<svg version="1.1" xmlns="http://www.w3.org/2000/svg" xmlns:xlink="http://www.w3.org/1999/xlink" width="73.00001" height="73.00001" viewBox="0,0,73.00001,73.00001"><g transform="translate(-203.5,-143.5)"><g data-paper-data="{&quot;isPaintingLayer&quot;:true}" fill-rule="nonzero" stroke-linecap="butt" stroke-linejoin="miter" stroke-miterlimit="10" stroke-dasharray="" stroke-dashoffset="0" style="mix-blend-mode: normal"><path d="M205.5,209.21875c0,-13.83706 0,-50.61027 0,-58.33333c0,-2.7811 2.71284,-5.38542 5.58334,-5.38542c7.9136,0 45.31568,0 58.66667,0c2.97017,0 4.75,2.15455 4.75,4.55209c0,7.34023 0,45.40321 0,59.33333c0,3.19011 -1.91196,5.11459 -5.08334,5.11459c-13.89578,0 -51.97072,0 -59.33333,0c-2.41214,0 -4.58334,-1.99298 -4.58334,-5.28125z" fill="#ffffff" stroke="#12130f" stroke-width="4"/><path d="M226.08333,180c0,-7.68596 6.2307,-13.91667 13.91667,-13.91667c7.68596,0 13.91667,6.2307 13.91667,13.91667c0,7.68596 -6.2307,13.91667 -13.91667,13.91667c-7.68596,0 -13.91667,-6.2307 -13.91667,-13.91667z" fill="#3081f2" stroke="none" stroke-width="0"/></g></g></svg>