<svg version="1.1" xmlns="http://www.w3.org/2000/svg" xmlns:xlink="http://www.w3.org/1999/xlink" width="185.67532" height="189.23386" viewBox="0,0,185.67532,189.23386"><g transform="translate(-147.00697,-85.50807)"><g data-paper-data="{&quot;isPaintingLayer&quot;:true}" fill-rule="nonzero" stroke-linejoin="miter" stroke-miterlimit="10" stroke-dasharray="" stroke-dashoffset="0" style="mix-blend-mode: normal"><path d="M148.68229,223.45185c0,-27.63285 0,-115.50274 0,-130.28571c0,-4.13371 3.33327,-7.65807 7.45715,-7.65807c17.31129,0 136.15944,0 168.45714,0c5.13805,0 8.08571,3.52436 8.08571,7.65807c0,14.74246 0,102.17173 0,130.05714c0,5.37796 -2.77383,8.5412 -7.62857,8.5412c-31.34211,0 -149.4161,0 -167.77143,0c-4.69396,0 -8.60001,-3.07373 -8.60001,-8.31263z" fill="#5b9279" stroke="none" stroke-width="0" stroke-linecap="butt"/><path d="M154.57801,274.49191c-1.42826,0 -2.8466,-0.24797 -4.25501,-0.74388c-1.38857,-0.49591 -2.39034,-1.05136 -3.00529,-1.66629l1.90434,-3.39211c0.49591,0.45624 1.26956,0.93234 2.32091,1.42825c1.05136,0.47609 2.06304,0.71411 3.03505,0.71411c1.24972,0 2.27132,-0.29755 3.06479,-0.89265c0.79347,-0.5951 1.19022,-1.40842 1.19022,-2.43993c0,-0.81333 -0.2182,-1.51752 -0.65461,-2.11264c-0.41658,-0.5951 -0.93235,-1.08113 -1.54728,-1.45801c-0.61493,-0.39674 -1.48778,-0.88274 -2.61847,-1.45801c-1.3489,-0.65461 -2.27132,-1.15054 -2.76724,-1.48777c-2.30107,-1.52744 -3.4516,-3.65991 -3.4516,-6.3974c0,-2.24157 0.74387,-3.95745 2.23165,-5.14766c1.48778,-1.21005 3.37227,-1.81508 5.65351,-1.81508c2.43993,0 4.51288,0.7042 6.21887,2.11263l-1.8746,3.21358c-0.45624,-0.47609 -1.09103,-0.88274 -1.90434,-1.21997c-0.81333,-0.33722 -1.68613,-0.50585 -2.61847,-0.50585c-1.19022,0 -2.12256,0.26781 -2.797,0.8034c-0.67445,0.53559 -1.01167,1.31916 -1.01167,2.35067c0,0.73395 0.20828,1.3985 0.62486,1.99362c0.43641,0.57526 0.98192,1.08111 1.63653,1.51751c0.65461,0.41658 1.53736,0.93235 2.64823,1.54728c1.0712,0.5951 1.8845,1.06128 2.43993,1.3985c0.57526,0.33722 1.11087,0.74388 1.60679,1.21997c0.6943,0.61493 1.24971,1.3489 1.66629,2.20189c0.43641,0.85299 0.65461,1.78532 0.65461,2.79699c0,1.58695 -0.36698,2.94578 -1.10095,4.07648c-0.71411,1.11087 -1.70596,1.95393 -2.97552,2.52919c-1.26956,0.55543 -2.70773,0.83316 -4.31453,0.83316zM173.2599,262.44101l-2.14237,2.64822v9.04562h-3.89795v-26.12518h3.89795v11.66408l8.95635,-11.66408h4.76085l-8.98611,11.48555l10.26559,14.63961h-4.85012zM188.00156,257.82894h3.83843v3.18381c0.37689,-1.09103 0.99186,-1.96385 1.84484,-2.61846c0.85299,-0.65461 1.825,-0.98193 2.91603,-0.98193c0.7538,0 1.27948,0.06942 1.57704,0.20829l-0.5356,3.86819c-0.2182,-0.13885 -0.68439,-0.20829 -1.3985,-0.20829c-1.11087,0 -2.12255,0.35707 -3.03505,1.0712c-0.91249,0.6943 -1.36875,1.825 -1.36875,3.39211v8.391h-3.83842zM208.07587,274.49191c-1.46794,0 -2.82675,-0.34713 -4.07648,-1.04143c-1.22988,-0.71411 -2.22172,-1.71588 -2.97553,-3.0053c-0.73395,-1.28941 -1.10095,-2.797 -1.10095,-4.52281c0,-1.70598 0.31738,-3.19373 0.95217,-4.4633c0.65461,-1.28941 1.58695,-2.28124 2.797,-2.97553c1.21005,-0.71411 2.6284,-1.0712 4.255,-1.0712c0.95217,0 1.84484,0.16862 2.67797,0.50584c0.83316,0.31738 1.52744,0.72405 2.08288,1.21997c0.57526,0.47609 0.96209,0.95217 1.16045,1.42826l0.05952,-2.73749h3.65991v16.30591h-3.63015l-0.05952,-2.88627c-0.41658,0.85299 -1.16045,1.6068 -2.23166,2.26142c-1.05136,0.65461 -2.24158,0.98192 -3.57063,0.98192zM208.73049,271.27834c1.3489,0 2.47961,-0.46617 3.39212,-1.3985c0.93234,-0.93234 1.3985,-2.15231 1.3985,-3.65991v-0.2678c0,-1.01167 -0.21821,-1.91426 -0.65463,-2.70773c-0.41658,-0.81333 -0.99184,-1.4481 -1.72581,-1.90434c-0.73395,-0.45624 -1.53734,-0.68438 -2.41018,-0.68438c-1.52744,0 -2.70773,0.49592 -3.54088,1.48778c-0.81333,0.99184 -1.21997,2.2614 -1.21997,3.80869c0,1.58695 0.40665,2.87635 1.21997,3.86818c0.81333,0.97201 1.99361,1.45801 3.54088,1.45801zM232.39522,274.49191c-1.32908,0 -2.52919,-0.3273 -3.60039,-0.98192c-1.05136,-0.65461 -1.77539,-1.40842 -2.17213,-2.26142l-0.05952,2.88627h-3.68967v-26.12518h3.74916v10.05728l-0.17854,2.76726c0.39674,-0.93234 1.1803,-1.73572 2.35067,-2.41018c1.19022,-0.67445 2.46968,-1.01167 3.83843,-1.01167c1.6068,0 3.00529,0.35707 4.19551,1.0712c1.21005,0.71411 2.13246,1.72581 2.76726,3.03505c0.63478,1.28941 0.95216,2.78708 0.95216,4.49304c0,1.72581 -0.37689,3.2334 -1.13069,4.52281c-0.73395,1.26956 -1.72581,2.25149 -2.97553,2.94578c-1.22988,0.67445 -2.5788,1.01167 -4.04673,1.01167zM231.74059,271.27834c1.54728,0 2.72756,-0.486 3.54088,-1.45801c0.83316,-0.99184 1.24972,-2.26142 1.24972,-3.80869c0,-1.58695 -0.40665,-2.87635 -1.21997,-3.86818c-0.81333,-0.99184 -2.00353,-1.48778 -3.57062,-1.48778c-1.3489,0 -2.48953,0.47609 -3.42186,1.42826c-0.91249,0.93234 -1.36875,2.1523 -1.36875,3.65991v0.2678c0,1.01167 0.2182,1.92416 0.65461,2.73749c0.43641,0.79347 1.01167,1.41833 1.72581,1.8746c0.73395,0.43641 1.53734,0.65463 2.41018,0.65463zM254.3159,274.49191c-1.32908,0 -2.5292,-0.3273 -3.60039,-0.98192c-1.05136,-0.65461 -1.77539,-1.40842 -2.17212,-2.26142l-0.05952,2.88627h-3.68968v-26.12518h3.74917v10.05728l-0.17854,2.76726c0.39674,-0.93234 1.1803,-1.73572 2.35067,-2.41018c1.19022,-0.67445 2.46968,-1.01167 3.83843,-1.01167c1.6068,0 3.00529,0.35707 4.19549,1.0712c1.21005,0.71411 2.13246,1.72581 2.76726,3.03505c0.63479,1.28941 0.95217,2.78708 0.95217,4.49304c0,1.72581 -0.37689,3.2334 -1.1307,4.52281c-0.73395,1.26956 -1.72581,2.25149 -2.97553,2.94578c-1.22988,0.67445 -2.57879,1.01167 -4.04672,1.01167zM253.66128,271.27834c1.54728,0 2.72757,-0.486 3.54089,-1.45801c0.83316,-0.99184 1.24971,-2.26142 1.24971,-3.80869c0,-1.58695 -0.40665,-2.87635 -1.21997,-3.86818c-0.81333,-0.99184 -2.00353,-1.48778 -3.57063,-1.48778c-1.3489,0 -2.48953,0.47609 -3.42187,1.42826c-0.91249,0.93234 -1.36875,2.1523 -1.36875,3.65991v0.2678c0,1.01167 0.21821,1.92416 0.65463,2.73749c0.43641,0.79347 1.01167,1.41833 1.72581,1.8746c0.73395,0.43641 1.53734,0.65463 2.41017,0.65463zM274.27273,274.49191c-1.94402,0 -3.57063,-0.38683 -4.87987,-1.16045c-1.28941,-0.77363 -2.24157,-1.80514 -2.8565,-3.09455c-0.61493,-1.28941 -0.92241,-2.69781 -0.92241,-4.22526c0,-1.74565 0.35707,-3.26316 1.0712,-4.55256c0.71411,-1.30924 1.70596,-2.31099 2.97553,-3.00529c1.28941,-0.6943 2.74742,-1.04143 4.37403,-1.04143c2.49945,0 4.35419,0.6943 5.56424,2.08288c1.22988,1.36875 1.84483,3.31275 1.84483,5.83204c0,0.63478 -0.03969,1.29931 -0.11902,1.99362h-11.7236c0.27771,1.4481 0.79347,2.48952 1.54728,3.12431c0.77363,0.63479 1.84483,0.95216 3.21358,0.95216c1.15054,0 2.09279,-0.08926 2.82675,-0.2678c0.73395,-0.19837 1.40842,-0.46617 2.02335,-0.8034l1.16045,2.73749c-0.5951,0.37689 -1.3985,0.71411 -2.41018,1.01167c-1.01167,0.27771 -2.24158,0.41658 -3.68967,0.41658zM277.72436,264.6429c0.01985,-1.46794 -0.30748,-2.49945 -0.98192,-3.09456c-0.65461,-0.61493 -1.59687,-0.92241 -2.82675,-0.92241c-2.47961,0 -3.91778,1.33898 -4.31453,4.01697zM285.79425,248.00969h3.77892v26.12518h-3.77892zM297.60687,274.49191c-0.71411,0 -1.31917,-0.23804 -1.81508,-0.71412c-0.49591,-0.49591 -0.74387,-1.10095 -0.74387,-1.81507c0,-0.73395 0.23804,-1.33898 0.71411,-1.81507c0.49591,-0.49591 1.11088,-0.74388 1.84484,-0.74388c0.73395,0 1.33898,0.24797 1.81508,0.74388c0.49591,0.47609 0.74388,1.08111 0.74388,1.81508c0,0.71411 -0.24797,1.31916 -0.74388,1.81508c-0.47609,0.47609 -1.08111,0.71412 -1.81507,0.71412zM305.59481,257.82894h3.9872v16.30591h-3.9872zM307.55866,254.76415c-0.73395,0 -1.35883,-0.24796 -1.8746,-0.74387c-0.49591,-0.49591 -0.74387,-1.11087 -0.74387,-1.84483c0,-0.65461 0.24796,-1.21997 0.74387,-1.69606c0.51576,-0.47609 1.14063,-0.71411 1.8746,-0.71411c0.69431,0 1.28941,0.23803 1.78532,0.71411c0.51576,0.47609 0.77363,1.04144 0.77363,1.69606c0,0.73395 -0.24796,1.3489 -0.74387,1.84483c-0.47609,0.49591 -1.08113,0.74387 -1.81508,0.74387zM322.5071,274.49191c-1.66627,0 -3.15403,-0.37689 -4.46327,-1.13069c-1.30924,-0.7538 -2.32091,-1.78533 -3.03505,-3.09456c-0.69431,-1.30924 -1.04144,-2.75733 -1.04144,-4.34428c0,-1.56711 0.34714,-2.99537 1.04144,-4.28476c0.69431,-1.30924 1.68612,-2.34074 2.97553,-3.09456c1.30924,-0.7538 2.81683,-1.1307 4.52277,-1.1307c1.70598,0 3.20364,0.37689 4.49304,1.1307c1.28941,0.7538 2.28124,1.78532 2.97553,3.09456c0.71411,1.28941 1.0712,2.71766 1.0712,4.28476c0,1.58695 -0.35707,3.03505 -1.0712,4.34428c-0.71411,1.30924 -1.71588,2.34076 -3.00529,3.09456c-1.28941,0.7538 -2.77716,1.13069 -4.46331,1.13069zM322.62611,271.3676c1.36873,0 2.44986,-0.50584 3.24333,-1.51752c0.79347,-1.03152 1.19021,-2.31099 1.19021,-3.83843c0,-1.54728 -0.4265,-2.8466 -1.27948,-3.89795c-0.85299,-1.05136 -1.97376,-1.57703 -3.36232,-1.57703c-1.3489,0 -2.43993,0.52568 -3.27308,1.57703c-0.81333,1.03152 -1.21997,2.33084 -1.21997,3.89795c0,1.50758 0.43641,2.77715 1.30924,3.80869c0.89266,1.03152 2.02335,1.54727 3.39207,1.54727z" fill="#12130f" stroke="#12130f" stroke-width="0.5" stroke-linecap="square"/><g stroke="#eae6e5"><path d="M212.18229,173.82317c0,-15.74012 7.15994,-34.49425 26.9,-34.7c20.9392,-0.21824 30.1,18.95988 30.1,34.7c0,15.74012 -12.75988,28.5 -28.5,28.5c-15.74012,0 -28.5,-12.75988 -28.5,-28.5z" fill="#eae6e5" stroke-width="6" stroke-linecap="butt"/><path d="M240.68229,126.32224v74.4" fill="none" stroke-width="6" stroke-linecap="round"/><g fill="none" stroke-width="9" stroke-linecap="round"><path d="M228.58229,114.95141c0,0 5.79825,-0.19345 8.8,3.2c2.88001,3.25581 3.4,8.6 3.4,8.6"/><path d="M240.58229,126.75141c0,0 0.51999,-5.34418 3.4,-8.6c3.00174,-3.39344 8.8,-3.2 8.8,-3.2" data-paper-data="{&quot;index&quot;:null}"/></g><path d="M201.18229,146.72223c0,0 4.12212,-0.61414 8.6,2.4c3.1962,2.15142 5.2,6.6 5.2,6.6" fill="none" stroke-width="6" stroke-linecap="round"/><path d="M192.98229,144.62224c0,-2.15391 1.74609,-3.9 3.9,-3.9c2.15391,0 3.9,1.74609 3.9,3.9c0,2.15391 -1.74609,3.9 -3.9,3.9c-2.15391,0 -3.9,-1.74609 -3.9,-3.9z" fill="#eae6e5" stroke-width="6" stroke-linecap="butt"/><path d="M182.38229,166.22224c0,-2.15391 1.74609,-3.9 3.9,-3.9c2.15391,0 3.9,1.74609 3.9,3.9c0,2.15391 -1.74609,3.9 -3.9,3.9c-2.15391,0 -3.9,-1.74609 -3.9,-3.9z" fill="#eae6e5" stroke-width="6" stroke-linecap="butt"/><path d="M190.18229,196.82224c0,-2.15391 1.74609,-3.9 3.9,-3.9c2.15391,0 3.9,1.74609 3.9,3.9c0,2.15391 -1.74609,3.9 -3.9,3.9c-2.15391,0 -3.9,-1.74609 -3.9,-3.9z" fill="#eae6e5" stroke-width="6" stroke-linecap="butt"/><path d="M196.98229,193.52224c0,0 2.00379,-4.44858 5.2,-6.6c4.47788,-3.01414 10.8,-2.6 10.8,-2.6" data-paper-data="{&quot;index&quot;:null}" fill="none" stroke-width="6" stroke-linecap="round"/><path d="M190.98229,166.52224h20.2" fill="none" stroke-width="6" stroke-linecap="round"/><path d="M266.38228,155.72223c0,0 2.00379,-4.44858 5.2,-6.6c4.47787,-3.01414 8.6,-2.4 8.6,-2.4" fill="none" stroke-width="6" stroke-linecap="round"/><path d="M284.48229,148.52224c-2.15391,0 -3.9,-1.74609 -3.9,-3.9c0,-2.15391 1.74609,-3.9 3.9,-3.9c2.15391,0 3.9,1.74609 3.9,3.9c0,2.15391 -1.74609,3.9 -3.9,3.9z" fill="#eae6e5" stroke-width="6" stroke-linecap="butt"/><path d="M295.08229,170.12224c-2.15391,0 -3.9,-1.74609 -3.9,-3.9c0,-2.15391 1.74609,-3.9 3.9,-3.9c2.15391,0 3.9,1.74609 3.9,3.9c0,2.15391 -1.74609,3.9 -3.9,3.9z" fill="#eae6e5" stroke-width="6" stroke-linecap="butt"/><path d="M287.28229,200.72224c-2.15391,0 -3.9,-1.74609 -3.9,-3.9c0,-2.15391 1.74609,-3.9 3.9,-3.9c2.15391,0 3.9,1.74609 3.9,3.9c0,2.15391 -1.74609,3.9 -3.9,3.9z" fill="#eae6e5" stroke-width="6" stroke-linecap="butt"/><path d="M269.18229,183.72224c0,0 5.52213,0.18586 10,3.2c3.19621,2.15142 5.2,6.6 5.2,6.6" data-paper-data="{&quot;index&quot;:null}" fill="none" stroke-width="6" stroke-linecap="round"/><path d="M270.18228,166.52224h20.2" fill="none" stroke-width="6" stroke-linecap="round"/><path d="M240.64061,135.9749v-7.33334" fill="none" stroke-width="9" stroke-linecap="round"/></g></g></g></svg>