<svg version="1.1" xmlns="http://www.w3.org/2000/svg" xmlns:xlink="http://www.w3.org/1999/xlink" width="73.00001" height="73.00001" viewBox="0,0,73.00001,73.00001"><g transform="translate(-203.5,-143.5)"><g data-paper-data="{&quot;isPaintingLayer&quot;:true}" fill-rule="nonzero" stroke="#12130f" stroke-linejoin="miter" stroke-miterlimit="10" stroke-dasharray="" stroke-dashoffset="0" style="mix-blend-mode: normal"><path d="M205.5,209.21875c0,-13.83706 0,-50.61027 0,-58.33333c0,-2.7811 2.71284,-5.38542 5.58334,-5.38542c7.9136,0 45.31568,0 58.66667,0c2.97017,0 4.75,2.15455 4.75,4.55209c0,7.34023 0,45.40321 0,59.33333c0,3.19011 -1.91196,5.11459 -5.08334,5.11459c-13.89578,0 -51.97072,0 -59.33333,0c-2.41214,0 -4.58334,-1.99298 -4.58334,-5.28125z" fill="#ffffff" stroke-width="4" stroke-linecap="butt"/><g stroke-width="3" stroke-linecap="round"><path d="M246.51715,177.17073l-12.86108,9.41339l-7.82743,-10.69427l12.93099,-9.46454z" fill="#12130f"/><path d="M254.17136,187.77505l-7.90157,5.78337l-7.43912,0.01628l-5.1746,-7.06981l12.82271,-9.3853z" fill="none"/></g></g></g></svg>