<svg version="1.1" xmlns="http://www.w3.org/2000/svg" xmlns:xlink="http://www.w3.org/1999/xlink" width="73.00001" height="73.00001" viewBox="0,0,73.00001,73.00001"><g transform="translate(-203.50001,-143.5)"><g data-paper-data="{&quot;isPaintingLayer&quot;:true}" fill-rule="nonzero" stroke-linecap="butt" stroke-linejoin="miter" stroke-miterlimit="10" stroke-dasharray="" stroke-dashoffset="0" style="mix-blend-mode: normal"><path d="M205.50001,209.21875c0,-13.83706 0,-50.61027 0,-58.33333c0,-2.7811 2.71284,-5.38542 5.58334,-5.38542c7.9136,0 45.31568,0 58.66667,0c2.97017,0 4.75,2.15455 4.75,4.55209c0,7.34023 0,45.40321 0,59.33333c0,3.19011 -1.91196,5.11459 -5.08334,5.11459c-13.89578,0 -51.97072,0 -59.33333,0c-2.41214,0 -4.58334,-1.99298 -4.58334,-5.28125z" fill="#ffffff" stroke="#12130f" stroke-width="4"/><path d="M224.13637,180c0,-8.76124 7.10239,-15.86364 15.86364,-15.86364c8.76124,0 15.86364,7.10239 15.86364,15.86364c0,8.76124 -7.10239,15.86364 -15.86364,15.86364c-8.76124,0 -15.86364,-7.10239 -15.86364,-15.86364z" fill="#12130f" stroke="none" stroke-width="0"/><path d="M240.23853,192.40322c0,-4.43 3.59123,-8.02124 8.02124,-8.02124c4.43,0 8.02124,3.59123 8.02124,8.02124c0,4.43 -3.59123,8.02124 -8.02124,8.02124c-4.43,0 -8.02124,-3.59123 -8.02124,-8.02124z" fill="#ffffff" stroke="none" stroke-width="0"/><path d="M233.91579,174.56727c-0.20103,-1.89918 1.17558,-3.60173 3.07476,-3.80276c1.89918,-0.20103 3.60173,1.17559 3.80276,3.07477c0.20103,1.89918 -1.17558,3.60172 -3.07477,3.80275c-1.89918,0.20103 -3.60172,-1.17557 -3.80275,-3.07476z" fill="#ffffff" stroke="none" stroke-width="0"/><path d="M243.99311,174.82254c-0.20103,-1.89917 1.17558,-3.60173 3.07476,-3.80276c1.89917,-0.20103 3.60173,1.17559 3.80276,3.07477c0.20103,1.89917 -1.17558,3.60172 -3.07477,3.80275c-1.89917,0.20103 -3.60172,-1.17557 -3.80275,-3.07476z" fill="#ffffff" stroke="none" stroke-width="0"/><path d="M228.46457,182.45368c-0.20103,-1.89917 1.17558,-3.60173 3.07476,-3.80276c1.89917,-0.20103 3.60173,1.17559 3.80276,3.07477c0.20103,1.89917 -1.17558,3.60172 -3.07477,3.80275c-1.89917,0.20103 -3.60172,-1.17557 -3.80275,-3.07476z" fill="#ffffff" stroke="none" stroke-width="0"/></g></g></svg>