<svg version="1.1" xmlns="http://www.w3.org/2000/svg" xmlns:xlink="http://www.w3.org/1999/xlink" width="184.00001" height="146.25641" viewBox="0,0,184.00001,146.25641"><g transform="translate(-147.99999,-106.87179)"><g data-paper-data="{&quot;isPaintingLayer&quot;:true}" fill-rule="nonzero" stroke-linejoin="miter" stroke-miterlimit="10" stroke-dasharray="" stroke-dashoffset="0" style="mix-blend-mode: normal"><path d="M148,244.81558c0,-27.63285 0,-115.50274 0,-130.28571c0,-4.13371 3.33327,-7.65807 7.45715,-7.65807c17.31129,0 136.15944,0 168.45714,0c5.13805,0 8.08571,3.52436 8.08571,7.65807c0,14.74246 0,102.17173 0,130.05714c0,5.37796 -2.77383,8.5412 -7.62857,8.5412c-31.34211,0 -149.4161,0 -167.77143,0c-4.69396,0 -8.60001,-3.07373 -8.60001,-8.31263z" fill="#5b9279" stroke="none" stroke-width="0" stroke-linecap="butt"/><g stroke="#eae6e5"><path d="M211.50001,195.1869c0,-15.74012 7.15994,-34.49425 26.9,-34.7c20.9392,-0.21824 30.1,18.95988 30.1,34.7c0,15.74012 -12.75988,28.5 -28.5,28.5c-15.74012,0 -28.5,-12.75988 -28.5,-28.5z" fill="#eae6e5" stroke-width="6" stroke-linecap="butt"/><path d="M240.00001,147.68596v74.4" fill="none" stroke-width="6" stroke-linecap="round"/><g fill="none" stroke-width="9" stroke-linecap="round"><path d="M227.90001,136.31514c0,0 5.79825,-0.19345 8.8,3.2c2.88001,3.25581 3.4,8.6 3.4,8.6"/><path d="M239.90001,148.11513c0,0 0.51999,-5.34418 3.4,-8.6c3.00174,-3.39344 8.8,-3.2 8.8,-3.2" data-paper-data="{&quot;index&quot;:null}"/></g><path d="M200.50001,168.08596c0,0 4.12212,-0.61414 8.6,2.4c3.1962,2.15142 5.2,6.6 5.2,6.6" fill="none" stroke-width="6" stroke-linecap="round"/><path d="M192.30001,165.98597c0,-2.15391 1.74609,-3.9 3.9,-3.9c2.15391,0 3.9,1.74609 3.9,3.9c0,2.15391 -1.74609,3.9 -3.9,3.9c-2.15391,0 -3.9,-1.74609 -3.9,-3.9z" fill="#eae6e5" stroke-width="6" stroke-linecap="butt"/><path d="M181.70001,187.58597c0,-2.15391 1.74609,-3.9 3.9,-3.9c2.15391,0 3.9,1.74609 3.9,3.9c0,2.15391 -1.74609,3.9 -3.9,3.9c-2.15391,0 -3.9,-1.74609 -3.9,-3.9z" fill="#eae6e5" stroke-width="6" stroke-linecap="butt"/><path d="M189.50001,218.18597c0,-2.15391 1.74609,-3.9 3.9,-3.9c2.15391,0 3.9,1.74609 3.9,3.9c0,2.15391 -1.74609,3.9 -3.9,3.9c-2.15391,0 -3.9,-1.74609 -3.9,-3.9z" fill="#eae6e5" stroke-width="6" stroke-linecap="butt"/><path d="M196.30001,214.88597c0,0 2.00379,-4.44858 5.2,-6.6c4.47788,-3.01414 10.8,-2.6 10.8,-2.6" data-paper-data="{&quot;index&quot;:null}" fill="none" stroke-width="6" stroke-linecap="round"/><path d="M190.30001,187.88597h20.2" fill="none" stroke-width="6" stroke-linecap="round"/><path d="M265.7,177.08596c0,0 2.00379,-4.44858 5.2,-6.6c4.47787,-3.01414 8.6,-2.4 8.6,-2.4" fill="none" stroke-width="6" stroke-linecap="round"/><path d="M283.80001,169.88597c-2.15391,0 -3.9,-1.74609 -3.9,-3.9c0,-2.15391 1.74609,-3.9 3.9,-3.9c2.15391,0 3.9,1.74609 3.9,3.9c0,2.15391 -1.74609,3.9 -3.9,3.9z" fill="#eae6e5" stroke-width="6" stroke-linecap="butt"/><path d="M294.40001,191.48597c-2.15391,0 -3.9,-1.74609 -3.9,-3.9c0,-2.15391 1.74609,-3.9 3.9,-3.9c2.15391,0 3.9,1.74609 3.9,3.9c0,2.15391 -1.74609,3.9 -3.9,3.9z" fill="#eae6e5" stroke-width="6" stroke-linecap="butt"/><path d="M286.6,222.08597c-2.15391,0 -3.9,-1.74609 -3.9,-3.9c0,-2.15391 1.74609,-3.9 3.9,-3.9c2.15391,0 3.9,1.74609 3.9,3.9c0,2.15391 -1.74609,3.9 -3.9,3.9z" fill="#eae6e5" stroke-width="6" stroke-linecap="butt"/><path d="M268.50001,205.08597c0,0 5.52213,0.18586 10,3.2c3.19621,2.15142 5.2,6.6 5.2,6.6" data-paper-data="{&quot;index&quot;:null}" fill="none" stroke-width="6" stroke-linecap="round"/><path d="M269.49999,187.88597h20.2" fill="none" stroke-width="6" stroke-linecap="round"/><path d="M239.95833,157.33862v-7.33334" fill="none" stroke-width="9" stroke-linecap="round"/></g></g></g></svg>