<svg version="1.1" xmlns="http://www.w3.org/2000/svg" xmlns:xlink="http://www.w3.org/1999/xlink" width="71.07195" height="67.91595" viewBox="0,0,71.07195,67.91595"><g transform="translate(-209.25047,-133.90151)"><g data-paper-data="{&quot;isPaintingLayer&quot;:true}" fill="#000000" fill-rule="nonzero" stroke="#000000" stroke-linejoin="miter" stroke-miterlimit="10" stroke-dasharray="" stroke-dashoffset="0" style="mix-blend-mode: normal"><path d="M231.33431,180.19514c-5.55348,-7.74523 -8.64719,-19.49977 0.9937,-26.56576c10.22654,-7.49523 21.50078,-1.2904 27.05426,6.45483c5.55348,7.74523 3.77672,18.52597 -3.96852,24.07945c-7.74523,5.55348 -18.52597,3.77672 -24.07945,-3.96852z" stroke-width="6" stroke-linecap="butt"/><path d="M228.59885,146.76591l26.25006,36.60998" stroke-width="6" stroke-linecap="round"/><g stroke-width="6" stroke-linecap="round"><path d="M218.63292,145.43983c0,0 2.78489,-2.14095 5.45925,-1.53022c2.56589,0.58595 4.70732,3.0322 4.70732,3.0322"/><path d="M228.70107,147.01237c0,0 -1.62968,-2.81317 -1.36124,-5.4314c0.27978,-2.72889 3.20118,-4.67947 3.20118,-4.67947" data-paper-data="{&quot;index&quot;:null}"/></g><path d="M216.3597,170.74065c0,0 1.81169,-1.75658 5.07857,-1.85331c2.33182,-0.06905 4.8874,1.41298 4.8874,1.41298" stroke-width="4" stroke-linecap="round"/><path d="M211.25047,172.60046c-0.75995,-1.05987 -0.51681,-2.53513 0.54306,-3.29508c1.05987,-0.75995 2.53513,-0.51681 3.29508,0.54306c0.75995,1.05987 0.51681,2.53513 -0.54306,3.29508c-1.05987,0.75995 -2.53513,0.51681 -3.29508,-0.54306z" stroke-width="4" stroke-linecap="butt"/><path d="M213.65551,186.96909c-0.75995,-1.05987 -0.51681,-2.53513 0.54306,-3.29508c1.05987,-0.75995 2.53513,-0.51681 3.29508,0.54306c0.75995,1.05987 0.51681,2.53513 -0.54306,3.29508c-1.05987,0.75995 -2.53513,0.51681 -3.29508,-0.54306z" stroke-width="4" stroke-linecap="butt"/><path d="M228.29005,199.2744c-0.75995,-1.05987 -0.51681,-2.53513 0.54306,-3.29508c1.05987,-0.75995 2.53513,-0.51681 3.29508,0.54306c0.75995,1.05987 0.51681,2.53513 -0.54306,3.29508c-1.05987,0.75995 -2.53513,0.51681 -3.29508,-0.54306z" stroke-width="4" stroke-linecap="butt"/><path d="M230.80514,195.25137c0,0 -0.58356,-2.89599 0.23013,-5.08234c1.13997,-3.06307 4.39701,-5.08987 4.39701,-5.08987" data-paper-data="{&quot;index&quot;:null}" stroke-width="4" stroke-linecap="round"/><path d="M228.26629,176.9554l-9.93981,7.12703" stroke-width="4" stroke-linecap="round"/><path d="M251.61804,152.1652c0,0 -0.58356,-2.89599 0.23013,-5.08234c1.13996,-3.06306 3.38502,-4.21525 3.38502,-4.21525" stroke-width="4" stroke-linecap="round"/><path d="M257.65084,142.23619c-1.05987,0.75995 -2.53513,0.51681 -3.29508,-0.54306c-0.75995,-1.05987 -0.51681,-2.53513 0.54306,-3.29508c1.05987,-0.75995 2.53513,-0.51681 3.29508,0.54306c0.75995,1.05987 0.51681,2.53513 -0.54306,3.29508z" stroke-width="4" stroke-linecap="butt"/><path d="M270.48777,149.12497c-1.05987,0.75995 -2.53513,0.51681 -3.29508,-0.54306c-0.75995,-1.05987 -0.51681,-2.53513 0.54306,-3.29508c1.05987,-0.75995 2.53513,-0.51681 3.29508,0.54306c0.75995,1.05987 0.51681,2.53513 -0.54306,3.29508z" stroke-width="4" stroke-linecap="butt"/><path d="M277.77935,166.93433c-1.05987,0.75995 -2.53513,0.51681 -3.29508,-0.54306c-0.75995,-1.05987 -0.51681,-2.53513 0.54306,-3.29508c1.05987,-0.75995 2.53513,-0.51681 3.29508,0.54306c0.75995,1.05987 0.51681,2.53513 -0.54306,3.29508z" stroke-width="4" stroke-linecap="butt"/><path d="M262.8749,164.95525c0,0 2.78285,-1.85688 6.04973,-1.95361c2.33183,-0.06905 4.8874,1.41298 4.8874,1.41298" data-paper-data="{&quot;index&quot;:null}" stroke-width="4" stroke-linecap="round"/><path d="M257.2984,156.13882l9.93981,-7.12703" stroke-width="4" stroke-linecap="round"/><path d="M229.39665,147.92188l2.58737,3.60851" stroke-width="6" stroke-linecap="round"/></g></g></svg>