<svg version="1.1" xmlns="http://www.w3.org/2000/svg" xmlns:xlink="http://www.w3.org/1999/xlink" width="122.60001" height="94.87177" viewBox="0,0,122.60001,94.87177"><g transform="translate(-178.7,-131.81514)"><g data-paper-data="{&quot;isPaintingLayer&quot;:true}" fill="#000000" fill-rule="nonzero" stroke="#000000" stroke-linejoin="miter" stroke-miterlimit="10" stroke-dasharray="" stroke-dashoffset="0" style="mix-blend-mode: normal"><g><path d="M211.50002,195.18691c0,-15.74012 7.15994,-34.49425 26.9,-34.7c20.9392,-0.21824 30.1,18.95988 30.1,34.7c0,15.74012 -12.75988,28.5 -28.5,28.5c-15.74012,0 -28.5,-12.75988 -28.5,-28.5z" stroke-width="6" stroke-linecap="butt"/><path d="M240.00002,147.68597v74.4" stroke-width="6" stroke-linecap="round"/><g stroke-width="9" stroke-linecap="round"><path d="M227.90002,136.31515c0,0 5.79825,-0.19345 8.8,3.2c2.88001,3.25581 3.4,8.6 3.4,8.6"/><path d="M239.90002,148.11514c0,0 0.51999,-5.34418 3.4,-8.6c3.00174,-3.39344 8.8,-3.2 8.8,-3.2" data-paper-data="{&quot;index&quot;:null}"/></g><path d="M200.50002,168.08597c0,0 4.12212,-0.61414 8.6,2.4c3.1962,2.15142 5.2,6.6 5.2,6.6" stroke-width="6" stroke-linecap="round"/><path d="M192.30001,165.98598c0,-2.15391 1.74609,-3.9 3.9,-3.9c2.15391,0 3.9,1.74609 3.9,3.9c0,2.15391 -1.74609,3.9 -3.9,3.9c-2.15391,0 -3.9,-1.74609 -3.9,-3.9z" stroke-width="6" stroke-linecap="butt"/><path d="M181.70001,187.58598c0,-2.15391 1.74609,-3.9 3.9,-3.9c2.15391,0 3.9,1.74609 3.9,3.9c0,2.15391 -1.74609,3.9 -3.9,3.9c-2.15391,0 -3.9,-1.74609 -3.9,-3.9z" stroke-width="6" stroke-linecap="butt"/><path d="M189.50002,218.18598c0,-2.15391 1.74609,-3.9 3.9,-3.9c2.15391,0 3.9,1.74609 3.9,3.9c0,2.15391 -1.74609,3.9 -3.9,3.9c-2.15391,0 -3.9,-1.74609 -3.9,-3.9z" stroke-width="6" stroke-linecap="butt"/><path d="M196.30001,214.88597c0,0 2.00379,-4.44858 5.2,-6.6c4.47788,-3.01414 10.8,-2.6 10.8,-2.6" data-paper-data="{&quot;index&quot;:null}" stroke-width="6" stroke-linecap="round"/><path d="M210.50001,187.88597h-20.2" stroke-width="6" stroke-linecap="round"/><path d="M265.7,177.08597c0,0 2.00379,-4.44858 5.2,-6.6c4.47787,-3.01414 8.6,-2.4 8.6,-2.4" stroke-width="6" stroke-linecap="round"/><path d="M283.80001,169.88597c-2.15391,0 -3.9,-1.74609 -3.9,-3.9c0,-2.15391 1.74609,-3.9 3.9,-3.9c2.15391,0 3.9,1.74609 3.9,3.9c0,2.15391 -1.74609,3.9 -3.9,3.9z" stroke-width="6" stroke-linecap="butt"/><path d="M294.40002,191.48598c-2.15391,0 -3.9,-1.74609 -3.9,-3.9c0,-2.15391 1.74609,-3.9 3.9,-3.9c2.15391,0 3.9,1.74609 3.9,3.9c0,2.15391 -1.74609,3.9 -3.9,3.9z" stroke-width="6" stroke-linecap="butt"/><path d="M286.60001,222.08598c-2.15391,0 -3.9,-1.74609 -3.9,-3.9c0,-2.15391 1.74609,-3.9 3.9,-3.9c2.15391,0 3.9,1.74609 3.9,3.9c0,2.15391 -1.74609,3.9 -3.9,3.9z" stroke-width="6" stroke-linecap="butt"/><path d="M268.50001,205.08598c0,0 5.52213,0.18586 10,3.2c3.19621,2.15142 5.2,6.6 5.2,6.6" data-paper-data="{&quot;index&quot;:null}" stroke-width="6" stroke-linecap="round"/><path d="M269.5,187.88597h20.2" stroke-width="6" stroke-linecap="round"/><path d="M239.95833,157.33863v-7.33334" stroke-width="9" stroke-linecap="round"/></g></g></g></svg>