<svg version="1.1" xmlns="http://www.w3.org/2000/svg" xmlns:xlink="http://www.w3.org/1999/xlink" width="85.39154" height="32.33333" viewBox="0,0,85.39154,32.33333"><g transform="translate(-196.91667,-154.63542)"><g data-paper-data="{&quot;isPaintingLayer&quot;:true}" fill-rule="nonzero" stroke-linejoin="miter" stroke-miterlimit="10" stroke-dasharray="" stroke-dashoffset="0" style="mix-blend-mode: normal"><g fill="none" stroke="#000000" stroke-width="5" stroke-linecap="round"><path d="M258.12884,167.30339c0,0 5.04645,1.01157 7.68737,5.53493c1.86393,3.19253 3.5362,9.83985 3.5362,9.83985"/><path d="M268.58464,183.90908c0,0 1.67224,-6.64731 3.53619,-9.83984c2.64094,-4.52335 7.68738,-5.53492 7.68738,-5.53492" data-paper-data="{&quot;index&quot;:null}"/></g><path d="M201.91667,181.96875h65.33333" fill="none" stroke="#000000" stroke-width="10" stroke-linecap="round"/><path d="M208.58333,176.00564c0,-11.80245 8.33656,-21.37022 18.62022,-21.37022c10.28366,0 18.62022,9.56777 18.62022,21.37022c0,0.59774 -0.06332,1.77508 -0.06332,1.77508l-37.11168,0.02948c0,0 -0.06545,-1.19677 -0.06545,-1.80455z" fill="#000000" stroke="none" stroke-width="0" stroke-linecap="butt"/></g></g></svg>