<svg version="1.1" xmlns="http://www.w3.org/2000/svg" xmlns:xlink="http://www.w3.org/1999/xlink" width="73.00001" height="73.00001" viewBox="0,0,73.00001,73.00001"><g transform="translate(-203.50003,-143.5)"><g data-paper-data="{&quot;isPaintingLayer&quot;:true}" fill-rule="nonzero" stroke-linecap="butt" stroke-linejoin="miter" stroke-miterlimit="10" stroke-dasharray="" stroke-dashoffset="0" style="mix-blend-mode: normal"><path d="M205.50003,209.21875c0,-13.83706 0,-50.61027 0,-58.33333c0,-2.7811 2.71284,-5.38542 5.58334,-5.38542c7.9136,0 45.31568,0 58.66667,0c2.97017,0 4.75,2.15455 4.75,4.55209c0,7.34023 0,45.40321 0,59.33333c0,3.19011 -1.91196,5.11459 -5.08334,5.11459c-13.89578,0 -51.97072,0 -59.33333,0c-2.41214,0 -4.58334,-1.99298 -4.58334,-5.28125z" fill="#ffffff" stroke="#12130f" stroke-width="4"/><path d="M222.95833,180c0,-9.41185 7.62981,-17.04167 17.04167,-17.04167c9.41185,0 17.04167,7.62981 17.04167,17.04167c0,9.41185 -7.62981,17.04167 -17.04167,17.04167c-9.41185,0 -17.04167,-7.62981 -17.04167,-17.04167z" fill="none" stroke="#12130f" stroke-width="3"/><path d="M228.96054,193.40128c0.59087,-5.57482 5.30795,-9.91811 11.03946,-9.91811c5.54478,0 10.14015,4.0649 10.96868,9.37728c0.04499,0.2885 -5.35005,3.69248 -11.01173,3.80252c-5.36732,0.10432 -11.01646,-3.07241 -10.9964,-3.26168z" fill="#12130f" stroke="none" stroke-width="0"/><path d="M234.66667,176.08333c0,-2.94552 2.38781,-5.33333 5.33333,-5.33333c2.94552,0 5.33333,2.38781 5.33333,5.33333c0,2.94552 -2.38781,5.33333 -5.33333,5.33333c-2.94552,0 -5.33333,-2.38781 -5.33333,-5.33333z" fill="#12130f" stroke="none" stroke-width="0"/></g></g></svg>