<svg version="1.1" xmlns="http://www.w3.org/2000/svg" xmlns:xlink="http://www.w3.org/1999/xlink" width="353" height="191.5" viewBox="0,0,353,191.5"><g transform="translate(-64.5,-81.5)"><g data-paper-data="{&quot;isPaintingLayer&quot;:true}" fill-rule="nonzero" stroke-linejoin="miter" stroke-miterlimit="10" stroke-dasharray="" stroke-dashoffset="0" style="mix-blend-mode: normal"><path d="M64.5,273v-191.5h353v191.5z" fill="#8fcb9b" stroke="none" stroke-width="0" stroke-linecap="butt"/><path d="M74.66666,236.66667v-124.33333h220v124.33333z" fill="#ffffff" stroke="#59927b" stroke-width="1.5" stroke-linecap="butt"/><path d="M74.66666,263.66667v-24.33333h220v24.33333z" fill="#ffffff" stroke="#59927b" stroke-width="1.5" stroke-linecap="butt"/><path d="M297.33333,263.52081v-151.18747h107v151.18748z" fill="#ffffff" stroke="#59927b" stroke-width="1.5" stroke-linecap="butt"/><path d="M222.34146,150.71251c2.47674,2.47674 0,4.95348 0,4.95348l-1.1027,1.08811c-2.1267,1.8229 -4.41535,3.56131 -6.27333,5.67183c-1.97103,2.23894 -2.67933,4.81714 -4.15273,7.32556c-0.91167,1.55209 -2.10929,2.92613 -2.99758,4.49171c0,0 -0.68476,1.19833 -1.94682,1.66071c-0.42147,0.37537 -0.86504,0.72574 -1.31074,1.0555c-2.59264,1.91817 -6.42554,1.80533 -9.44748,2.31722c-3.07506,0.52088 -2.99313,0.80622 -6.59383,2.33582c-5.54321,0.82721 -11.14102,2.58797 -16.74821,2.84106c-5.32314,0.24027 -10.8546,-0.58768 -16.14656,-0.01169c-7.43037,0.80874 -14.87172,1.41743 -22.13174,3.23243c0,0 -3.39807,0.84952 -4.24757,-2.54854c-0.84952,-3.39807 2.54855,-4.24757 2.54855,-4.24757c7.5859,-1.89648 15.37565,-2.61477 23.1405,-3.4075c5.41487,-0.55281 11.0111,0.21439 16.44945,-0.01168c5.10734,-0.21233 10.18349,-1.9068 15.24417,-2.59161c4.37273,-1.89152 8.14988,-2.29312 12.69,-3.3238c0.00095,-0.00021 2.08163,-0.53996 2.22314,-0.98217c0.11243,-0.35135 -0.23742,-0.70637 -0.26662,-1.07412c-0.14551,-1.83279 0.18748,-4.31658 -0.95136,-5.95091c-0.43941,-0.63059 -1.21423,-0.97343 -1.66229,-1.5979c-1.76302,-2.45717 -2.49253,-5.26979 -4.0975,-7.79824l-0.7662,-2.67855c0,0 -0.68693,-3.43462 2.7477,-4.12154c3.43462,-0.68692 4.12154,2.7477 4.12154,2.7477l-0.16258,0.33961c1.41567,2.29286 2.14579,5.16095 3.74969,7.29249c0.56459,0.75032 1.46935,1.22294 1.95949,2.02389c0.36766,0.60078 0.67806,1.24124 0.93776,1.90844c0.69445,-1.31581 1.46547,-2.59888 2.52568,-3.81617c2.07907,-2.38713 4.61295,-4.34912 7.00653,-6.40076l0.7082,-0.72279c0,0 2.47674,-2.47674 4.95348,0z" fill="#fdd422" stroke="none" stroke-width="0.5" stroke-linecap="butt"/><path d="M141.42255,180.48139c-0.54265,0.74567 -1.47369,1.39126 -3.06315,1.24676c-2.55721,-0.23247 -3.06933,-2.16918 -3.16053,-3.18647c-0.07145,-0.1682 -0.13585,-0.35011 -0.19204,-0.5468c-0.42373,-1.48305 -0.00781,-2.49962 0.59044,-3.17296c0.41017,-2.55015 0.93471,-5.08097 1.09244,-7.665c0.16111,-2.6395 -0.08382,-5.77198 0.74028,-8.31975c1.14667,-3.54499 4.07236,-7.16372 6.41037,-10.01188c3.50442,-4.26907 9.24659,-7.42979 14.91941,-5.6115c2.6319,0.84359 6.18955,3.75653 8.52132,5.26247c0.70195,0.8789 3.85961,4.67421 4.45505,5.96087c1.03502,2.23657 0.80459,4.2768 1.41495,6.6146c0.49859,1.90972 1.23157,3.75115 1.78621,5.64535c1.24758,4.26071 2.4158,7.14347 -1.26555,10.77475c-3.03368,2.99243 -6.08322,2.67523 -9.86043,2.45304c-4.92411,-0.28965 -10.82634,-0.61198 -15.69817,-0.01415c-1.93814,0.23783 -4.61848,1.51433 -6.6906,0.57066z" fill="#f28a11" stroke="none" stroke-width="0.5" stroke-linecap="butt"/><path d="M285.8396,168.98079c-0.03123,0.56528 -0.34511,3.40548 -3.49919,3.40548c-3.50264,0 -3.50264,-3.50264 -3.50264,-3.50264l0.08341,-1.06165c0.43017,-1.93569 0.835,-3.70773 1.08073,-5.48523c-1.03682,0.66602 -2.07602,1.34106 -3.09636,2.09873c-1.4631,1.08644 -2.55063,2.60367 -3.84202,3.88948c-2.84415,2.83189 -5.98024,4.95763 -8.53204,7.92114c0.77305,2.25263 1.82941,4.33082 2.24986,6.8523c0.46017,2.75958 0.4561,5.45402 1.15006,8.17545l0.10458,1.45315c0,0 0,3.50264 -3.50264,3.50264c-3.50264,0 -3.50264,-3.50264 -3.50264,-3.50264l0.10458,0.24589c-0.71682,-2.91401 -0.77456,-5.78494 -1.26446,-8.72618c-0.30951,-1.85819 -0.97441,-3.25043 -1.58822,-4.76502c-0.0725,-0.04308 -0.14564,-0.08914 -0.2194,-0.13831c-2.48207,-1.65471 -1.441,-4.01405 -1.07752,-4.67759c-0.35996,-2.39813 -0.51946,-4.86909 -1.42285,-7.15809c-0.30787,-0.78007 -0.94436,-1.40462 -1.23824,-2.19007c-1.18307,-3.16206 -1.49558,-6.08971 -3.75411,-8.76345c-1.39126,-1.20155 -2.98199,-2.17565 -4.62352,-3.00994c1.09426,2.11021 1.63314,5.10343 2.27023,6.92688c1.55284,4.44444 3.33331,8.69474 4.33461,13.35113c1.20517,5.60448 0.39343,12.29198 0.39343,17.99931c0,0 0,3.50264 -3.50264,3.50264c-3.50264,0 -3.50264,-3.50264 -3.50264,-3.50264c0,-8.18539 0.60401,-16.60048 -2.19212,-24.42605c-1.35917,-3.80392 -3.43495,-7.55641 -4.80568,-11.4083c-0.5715,-1.60598 -1.69929,-3.22203 -1.44032,-4.90687c1.65582,-10.77254 13.92465,-2.97028 18.05642,0.55487c2.93788,3.5516 3.73148,6.98355 5.30034,11.15633c0.66763,1.77576 1.5523,3.48121 2.0923,5.29658c1.6919,-1.51501 3.43969,-2.98858 5.12487,-4.68214c1.52458,-1.53216 2.88462,-3.25785 4.60879,-4.56134c2.55086,-1.92846 5.2573,-3.20514 7.6782,-5.29667l1.31669,-0.77527c0,0 0.94003,-0.47002 2.04771,-0.3802c2.91405,0.02196 3.29614,3.07861 3.29614,3.07861c0.59166,4.8335 -0.1531,8.84359 -1.18366,13.50965z" fill="#a5f42e" stroke="none" stroke-width="0.5" stroke-linecap="butt"/><path d="M92.44147,194.3508c-3.13286,-1.56643 -1.56643,-4.69928 -1.56643,-4.69928l0.00005,0.27588c0.62818,-3.13986 1.71113,-6.47388 2.06418,-9.64198c0.3835,-3.44127 -0.93352,-7.67183 0.69987,-10.94758c0.38427,-0.77065 1.63783,-0.84214 2.01561,-1.61599c0.27548,-0.56429 -0.28378,-1.22949 -0.32045,-1.85636c-0.1175,-2.00867 0,-4.0242 0,-6.0363c0,-2.1275 -0.70564,-6.11977 0,-8.149v-2.41452c0,-1.93446 1.56818,-3.50264 3.50264,-3.50264c1.53039,0 2.83154,0.98149 3.30833,2.34935l0.87673,2.33795c2.08311,5.58911 5.19831,10.79165 7.00875,16.49414c1.25496,3.95289 2.81682,7.7166 4.18641,11.65208c1.10606,3.17824 1.71728,6.18905 3.376,9.10946c0,0 1.70103,3.06186 -1.36083,4.76289c-3.06186,1.70103 -4.76289,-1.36083 -4.76289,-1.36083c-1.82206,-3.336 -2.62421,-6.63001 -3.86755,-10.20669c-1.39413,-4.01043 -2.99667,-7.85127 -4.26441,-11.88949c-0.2988,-0.95178 -0.6366,-1.89002 -1.0016,-2.81874c-0.02435,1.91819 -0.1006,3.87581 -0.31677,4.45588c-0.3474,0.93216 -1.63654,1.19278 -2.2098,2.0058c-0.18819,0.2669 0.09969,0.64721 0.10896,0.97366c0.02103,0.74075 -0.00395,7.31578 -0.01272,7.39492c-0.37449,3.37873 -1.49073,6.92416 -2.16123,10.27782l-0.60358,1.48313c0,0 -1.56643,3.13286 -4.69928,1.56643z" fill="#a5f42e" stroke="none" stroke-width="0.5" stroke-linecap="butt"/><path d="M74.625,200.625h220" fill="none" stroke="#59927b" stroke-width="1.5" stroke-linecap="round"/><g stroke-linecap="butt"><path d="M80.96259,230.37449c0,-2.05288 0,-7.50857 0,-8.65437c0,-0.41261 0.40248,-0.79898 0.82835,-0.79898c1.17407,0 6.72306,0 8.70382,0c0.44066,0 0.70471,0.31965 0.70471,0.67535c0,1.089 0,6.73605 0,8.80273c0,0.47329 -0.28366,0.7588 -0.75417,0.7588c-2.06158,0 -7.71041,0 -8.80273,0c-0.35787,0 -0.67999,-0.29568 -0.67999,-0.78353z" fill="#ffffff" stroke="#12130f" stroke-width="0.75"/><path d="M84.01635,226.03957c0,-1.1403 0.92439,-2.06468 2.06468,-2.06468c1.14029,0 2.06468,0.92439 2.06468,2.06468c0,1.1403 -0.92439,2.06468 -2.06468,2.06468c-1.14029,0 -2.06468,-0.92439 -2.06468,-2.06468z" fill="#f12711" stroke="none" stroke-width="0"/><path d="M95.66451,230.37449c0,-2.05288 0,-7.50857 0,-8.65437c0,-0.41261 0.40247,-0.79898 0.82834,-0.79898c1.17407,0 6.72306,0 8.70382,0c0.44066,0 0.70472,0.31965 0.70472,0.67535c0,1.089 0,6.73605 0,8.80273c0,0.47329 -0.28366,0.7588 -0.75417,0.7588c-2.06158,0 -7.71041,0 -8.80273,0c-0.35787,0 -0.67999,-0.29568 -0.67999,-0.78353z" fill="#ffffff" stroke="#12130f" stroke-width="0.75"/><path d="M98.71827,226.03957c0,-1.1403 0.92439,-2.06468 2.06468,-2.06468c1.14029,0 2.06468,0.92439 2.06468,2.06468c0,1.1403 -0.92439,2.06468 -2.06468,2.06468c-1.14029,0 -2.06468,-0.92439 -2.06468,-2.06468z" fill="#f28a11" stroke="none" stroke-width="0"/><path d="M110.36642,230.37449c0,-2.05288 0,-7.50857 0,-8.65437c0,-0.41261 0.40247,-0.79898 0.82834,-0.79898c1.17407,0 6.72306,0 8.70382,0c0.44066,0 0.70472,0.31965 0.70472,0.67535c0,1.089 0,6.73605 0,8.80273c0,0.47329 -0.28366,0.7588 -0.75417,0.7588c-2.06158,0 -7.71041,0 -8.80273,0c-0.35787,0 -0.67998,-0.29568 -0.67998,-0.78353z" fill="#ffffff" stroke="#12130f" stroke-width="0.75"/><path d="M113.42018,226.03957c0,-1.1403 0.92439,-2.06468 2.06468,-2.06468c1.14029,0 2.06468,0.92439 2.06468,2.06468c0,1.1403 -0.92439,2.06468 -2.06468,2.06468c-1.14029,0 -2.06468,-0.92439 -2.06468,-2.06468z" fill="#fdd422" stroke="none" stroke-width="0"/><path d="M125.06833,230.37449c0,-2.05288 0,-7.50857 0,-8.65437c0,-0.41261 0.40248,-0.79898 0.82835,-0.79898c1.17407,0 6.72306,0 8.70382,0c0.44065,0 0.70471,0.31965 0.70471,0.67535c0,1.089 0,6.73605 0,8.80273c0,0.47329 -0.28366,0.7588 -0.75417,0.7588c-2.06159,0 -7.7104,0 -8.80272,0c-0.35787,0 -0.67999,-0.29568 -0.67999,-0.78353z" fill="#ffffff" stroke="#12130f" stroke-width="0.75"/><path d="M128.12209,226.03957c0,-1.1403 0.92439,-2.06468 2.06468,-2.06468c1.1403,0 2.06468,0.92439 2.06468,2.06468c0,1.1403 -0.92439,2.06468 -2.06468,2.06468c-1.1403,0 -2.06468,-0.92439 -2.06468,-2.06468z" fill="#a5f42e" stroke="none" stroke-width="0"/><path d="M139.77024,230.37449c0,-2.05288 0,-7.50857 0,-8.65437c0,-0.41261 0.40248,-0.79898 0.82835,-0.79898c1.17407,0 6.72306,0 8.70382,0c0.44065,0 0.70471,0.31965 0.70471,0.67535c0,1.089 0,6.73605 0,8.80273c0,0.47329 -0.28366,0.7588 -0.75417,0.7588c-2.06159,0 -7.71041,0 -8.80273,0c-0.35787,0 -0.67999,-0.29568 -0.67999,-0.78353z" fill="#ffffff" stroke="#12130f" stroke-width="0.75"/><path d="M142.824,226.03957c0,-1.1403 0.92439,-2.06468 2.06468,-2.06468c1.1403,0 2.06468,0.92439 2.06468,2.06468c0,1.1403 -0.92438,2.06468 -2.06468,2.06468c-1.1403,0 -2.06468,-0.92439 -2.06468,-2.06468z" fill="#30e0f2" stroke="none" stroke-width="0"/><path d="M154.47216,230.37449c0,-2.05288 0,-7.50857 0,-8.65437c0,-0.41261 0.40247,-0.79898 0.82834,-0.79898c1.17407,0 6.72307,0 8.70383,0c0.44065,0 0.70471,0.31965 0.70471,0.67535c0,1.089 0,6.73605 0,8.80273c0,0.47329 -0.28366,0.7588 -0.75417,0.7588c-2.06159,0 -7.7104,0 -8.80272,0c-0.35787,0 -0.67999,-0.29568 -0.67999,-0.78353z" fill="#ffffff" stroke="#12130f" stroke-width="0.75"/><path d="M157.52592,226.03957c0,-1.1403 0.92439,-2.06468 2.06468,-2.06468c1.1403,0 2.06468,0.92439 2.06468,2.06468c0,1.1403 -0.92439,2.06468 -2.06468,2.06468c-1.1403,0 -2.06468,-0.92439 -2.06468,-2.06468z" fill="#4639e6" stroke="none" stroke-width="0"/></g><g><g><path d="M110.36642,215.67257c0,-2.05288 0,-7.50857 0,-8.65437c0,-0.41261 0.40247,-0.79898 0.82834,-0.79898c1.17407,0 6.72306,0 8.70382,0c0.44066,0 0.70472,0.31965 0.70472,0.67535c0,1.089 0,6.73605 0,8.80273c0,0.47329 -0.28366,0.7588 -0.75417,0.7588c-2.06158,0 -7.71041,0 -8.80273,0c-0.35787,0 -0.67998,-0.29568 -0.67998,-0.78353z" fill="#ffffff" stroke="#12130f" stroke-width="0.75" stroke-linecap="butt"/><path d="M116.18233,210.6402l-1.39493,1.39493" fill="none" stroke="#12130f" stroke-width="0.75" stroke-linecap="round"/><path d="M116.26887,210.56384v-1.44584h1.44583v1.44584z" fill="none" stroke="#12130f" stroke-width="0.75" stroke-linecap="butt"/><path d="M125.06833,215.67257c0,-2.05288 0,-7.50857 0,-8.65437c0,-0.41261 0.40248,-0.79898 0.82835,-0.79898c1.17407,0 6.72306,0 8.70382,0c0.44065,0 0.70471,0.31965 0.70471,0.67535c0,1.089 0,6.73605 0,8.80273c0,0.47329 -0.28366,0.7588 -0.75417,0.7588c-2.06159,0 -7.7104,0 -8.80272,0c-0.35787,0 -0.67999,-0.29568 -0.67999,-0.78353z" fill="#ffffff" stroke="#12130f" stroke-width="0.75" stroke-linecap="butt"/><g stroke="#12130f" stroke-width="0.75" stroke-linecap="round"><path d="M131.15366,210.91791l-1.90807,1.39658l-1.16128,-1.5866l1.91845,-1.40417z" fill="#12130f"/><path d="M132.28925,212.49117l-1.17228,0.85802l-1.10367,0.00241l-0.76771,-1.04888l1.90238,-1.39241z" fill="none"/></g><path d="M95.66451,215.67257c0,-2.05288 0,-7.50857 0,-8.65437c0,-0.41261 0.40247,-0.79898 0.82834,-0.79898c1.17407,0 6.72306,0 8.70382,0c0.44066,0 0.70472,0.31965 0.70472,0.67535c0,1.089 0,6.73605 0,8.80273c0,0.47329 -0.28366,0.7588 -0.75417,0.7588c-2.06158,0 -7.71041,0 -8.80273,0c-0.35787,0 -0.67999,-0.29568 -0.67999,-0.78353z" fill="#ffffff" stroke="#12130f" stroke-width="0.75" stroke-linecap="butt"/><path d="M99.88408,211.49333l2.43044,-2.43043l0.74319,0.74319l-2.43044,2.43044z" fill="#12130f" stroke="none" stroke-width="0" stroke-linecap="butt"/><path d="M80.96259,215.67257c0,-2.05288 0,-7.50857 0,-8.65437c0,-0.41261 0.40247,-0.79898 0.82834,-0.79898c1.17407,0 6.72306,0 8.70382,0c0.44066,0 0.70471,0.31965 0.70471,0.67535c0,1.089 0,6.73605 0,8.80273c0,0.47329 -0.28366,0.7588 -0.75417,0.7588c-2.06158,0 -7.71041,0 -8.80273,0c-0.35787,0 -0.67999,-0.29568 -0.67999,-0.78353z" fill="#ffffff" stroke="#12130f" stroke-width="0.75" stroke-linecap="butt"/><path d="M83.7275,211.33766c0,-1.29982 1.05371,-2.35354 2.35354,-2.35354c1.29982,0 2.35353,1.05372 2.35353,2.35354c0,1.29982 -1.05371,2.35353 -2.35353,2.35353c-1.29982,0 -2.35354,-1.05371 -2.35354,-2.35353z" fill="#12130f" stroke="none" stroke-width="0" stroke-linecap="butt"/><path d="M85.22516,210.48122c-0.02983,-0.28177 0.17441,-0.53436 0.45618,-0.56418c0.28176,-0.02982 0.53435,0.17442 0.56417,0.45618c0.02983,0.28177 -0.17441,0.53435 -0.45617,0.56418c-0.28176,0.02982 -0.53435,-0.17441 -0.56418,-0.45618z" fill="#ffffff" stroke="none" stroke-width="0" stroke-linecap="butt"/><path d="M86.66565,210.51495c-0.02983,-0.28176 0.17441,-0.53435 0.45618,-0.56418c0.28176,-0.02982 0.53435,0.17441 0.56418,0.45618c0.02983,0.28176 -0.17441,0.53435 -0.45618,0.56418c-0.28176,0.02982 -0.53435,-0.17441 -0.56418,-0.45618z" fill="#ffffff" stroke="none" stroke-width="0" stroke-linecap="butt"/><path d="M84.36963,211.70169c-0.02983,-0.28176 0.17441,-0.53435 0.45618,-0.56418c0.28176,-0.02982 0.53435,0.17441 0.56418,0.45618c0.02983,0.28176 -0.17441,0.53435 -0.45618,0.56418c-0.28176,0.02982 -0.53435,-0.17441 -0.56418,-0.45618z" fill="#ffffff" stroke="none" stroke-width="0" stroke-linecap="butt"/></g><path d="M113.25502,213.55733v-1.44583h1.44584v1.44583z" fill="none" stroke="#12130f" stroke-width="0.75" stroke-linecap="butt"/><path d="M98.8396,212.20639c0.29675,-0.29674 0.77787,-0.29674 1.07461,0c0.29675,0.29674 0.29675,0.77787 0,1.07461c-0.29675,0.29674 -1.40604,0.33142 -1.40604,0.33142c0,0 0.03468,-1.1093 0.33143,-1.40604z" fill="#12130f" stroke="none" stroke-width="0" stroke-linecap="butt"/><path d="M86.12421,213.30646c0,-0.72828 0.5904,-1.31868 1.31868,-1.31868c0.72828,0 1.31868,0.5904 1.31868,1.31868c0,0.72828 -0.5904,1.31868 -1.31868,1.31868c-0.72828,0 -1.31868,-0.5904 -1.31868,-1.31868z" fill="#ffffff" stroke="none" stroke-width="0" stroke-linecap="butt"/></g><path d="M379.05801,256.08013c0,-3.7201 0,-13.60664 0,-15.68299c0,-0.7477 0.72935,-1.44787 1.50109,-1.44787c2.12759,0 12.18317,0 15.7726,0c0.79854,0 1.27704,0.57925 1.27704,1.22383c0,1.97342 0,12.20671 0,15.95183c0,0.85766 -0.51404,1.37507 -1.36667,1.37507c-3.7359,0 -13.97239,0 -15.95183,0c-0.64851,0 -1.23224,-0.53582 -1.23224,-1.41987z" fill="#ffffff" stroke="#12130f" stroke-width="1" stroke-linecap="butt"/><path d="M385.20094,250.93728v-5.42528l6.26484,2.72959z" fill="none" stroke="#12130f" stroke-width="1" stroke-linecap="butt"/><path d="M385.22711,247.88834v-2.27189c0,0 1.44276,0.56365 2.352,0.95038c1.11651,0.47489 3.85387,1.68918 3.85387,1.68918z" fill="#12130f" stroke="none" stroke-width="0" stroke-linecap="butt"/><g stroke-linecap="butt"><path d="M304.16668,257.5v-18.33334h47v18.33334z" fill="#ffffff" stroke="#000000" stroke-width="1"/><path d="M356.05076,255.95695c0,-3.72011 0,-13.60663 0,-15.68299c0,-0.7477 0.72935,-1.44788 1.50108,-1.44788c2.12758,0 12.18318,0 15.7726,0c0.79854,0 1.27704,0.57926 1.27704,1.22384c0,1.97343 0,12.20671 0,15.95184c0,0.85766 -0.51404,1.37506 -1.36667,1.37506c-3.7359,0 -13.97239,0 -15.95183,0c-0.64851,0 -1.23224,-0.53582 -1.23224,-1.41987z" fill="#ffffff" stroke="#12130f" stroke-width="1"/><path d="M360.74445,248.10145c0,-2.53038 2.05129,-4.58167 4.58168,-4.58167c2.53039,0 4.58167,2.05128 4.58167,4.58167c0,2.53038 -2.05128,4.58167 -4.58167,4.58167c-2.53039,0 -4.58168,-2.05128 -4.58168,-4.58167z" fill="none" stroke="#12130f" stroke-width="1"/><path d="M362.40178,251.74803c0.15886,-1.4988 1.42705,-2.6665 2.96797,-2.6665c1.49072,0 2.72619,1.09286 2.94894,2.5211c0.01209,0.07756 -1.43837,0.99273 -2.96052,1.02231c-1.44301,0.02804 -2.96179,-0.82602 -2.95639,-0.8769z" fill="#12130f" stroke="none" stroke-width="0"/><path d="M363.89225,247.04845c0,-0.79191 0.64197,-1.43387 1.43388,-1.43387c0.7919,0 1.43387,0.64196 1.43387,1.43387c0,0.79191 -0.64197,1.43388 -1.43387,1.43388c-0.7919,0 -1.43388,-0.64197 -1.43388,-1.43388z" fill="#12130f" stroke="none" stroke-width="0"/></g><g stroke-linecap="butt"><g><path d="M326.39912,221.5176v-18.33334h47v18.33334z" fill="#ffffff" stroke="#000000" stroke-width="1"/><path d="M378.2832,219.97454c0,-3.72011 0,-13.60663 0,-15.68299c0,-0.7477 0.72935,-1.44788 1.50108,-1.44788c2.12758,0 12.18318,0 15.7726,0c0.79854,0 1.27704,0.57926 1.27704,1.22384c0,1.97343 0,12.20671 0,15.95184c0,0.85766 -0.51404,1.37506 -1.36667,1.37506c-3.7359,0 -13.97239,0 -15.95183,0c-0.64851,0 -1.23224,-0.53582 -1.23224,-1.41987z" fill="#ffffff" stroke="#12130f" stroke-width="1"/><path d="M382.97689,212.11905c0,-2.53038 2.05129,-4.58168 4.58168,-4.58168c2.53039,0 4.58167,2.05129 4.58167,4.58168c0,2.53038 -2.05128,4.58167 -4.58167,4.58167c-2.53039,0 -4.58168,-2.05128 -4.58168,-4.58167z" fill="none" stroke="#12130f" stroke-width="1"/><path d="M384.63422,215.76562c0.15886,-1.4988 1.42705,-2.66649 2.96797,-2.66649c1.49072,0 2.72619,1.09286 2.94894,2.5211c0.01209,0.07756 -1.43837,0.99273 -2.96052,1.02231c-1.44301,0.02804 -2.96179,-0.82602 -2.9564,-0.8769z" fill="#12130f" stroke="none" stroke-width="0"/><path d="M386.12469,211.06604c0,-0.79191 0.64197,-1.43387 1.43388,-1.43387c0.7919,0 1.43387,0.64196 1.43387,1.43387c0,0.79191 -0.64197,1.43388 -1.43387,1.43388c-0.7919,0 -1.43388,-0.64197 -1.43388,-1.43388z" fill="#12130f" stroke="none" stroke-width="0"/></g><g><path d="M326.18172,196.4089v-18.33334h47v18.33334z" fill="#ffffff" stroke="#000000" stroke-width="1"/><path d="M378.06581,194.86585c0,-3.72011 0,-13.60663 0,-15.68299c0,-0.7477 0.72935,-1.44788 1.50108,-1.44788c2.12758,0 12.18318,0 15.7726,0c0.79854,0 1.27704,0.57925 1.27704,1.22383c0,1.97343 0,12.20671 0,15.95184c0,0.85766 -0.51403,1.37506 -1.36666,1.37506c-3.7359,0 -13.97239,0 -15.95184,0c-0.64851,0 -1.23224,-0.53581 -1.23224,-1.41987z" fill="#ffffff" stroke="#12130f" stroke-width="1"/><path d="M382.7595,187.01035c0,-2.53038 2.05128,-4.58167 4.58167,-4.58167c2.53039,0 4.58167,2.05128 4.58167,4.58167c0,2.53038 -2.05128,4.58167 -4.58167,4.58167c-2.53039,0 -4.58167,-2.05128 -4.58167,-4.58167z" fill="none" stroke="#12130f" stroke-width="1"/><path d="M384.41683,190.65693c0.15886,-1.4988 1.42704,-2.66649 2.96797,-2.66649c1.49072,0 2.72619,1.09286 2.94894,2.5211c0.01209,0.07756 -1.43837,0.99272 -2.96052,1.02231c-1.44301,0.02804 -2.96179,-0.82602 -2.95639,-0.8769z" fill="#12130f" stroke="none" stroke-width="0"/><path d="M385.9073,185.95735c0,-0.79191 0.64197,-1.43387 1.43388,-1.43387c0.7919,0 1.43387,0.64196 1.43387,1.43387c0,0.79191 -0.64197,1.43388 -1.43387,1.43388c-0.7919,0 -1.43388,-0.64197 -1.43388,-1.43388z" fill="#12130f" stroke="none" stroke-width="0"/></g><g><path d="M326.29042,171.5176v-18.33334h47v18.33334z" fill="#ffffff" stroke="#000000" stroke-width="1"/><path d="M378.17451,169.97454c0,-3.72011 0,-13.60663 0,-15.68299c0,-0.7477 0.72935,-1.44788 1.50108,-1.44788c2.12758,0 12.18318,0 15.7726,0c0.79854,0 1.27704,0.57926 1.27704,1.22384c0,1.97343 0,12.20671 0,15.95184c0,0.85766 -0.51404,1.37506 -1.36667,1.37506c-3.7359,0 -13.97239,0 -15.95183,0c-0.64851,0 -1.23224,-0.53582 -1.23224,-1.41987z" fill="#ffffff" stroke="#12130f" stroke-width="1"/><path d="M382.86819,162.11905c0,-2.53038 2.05128,-4.58168 4.58167,-4.58168c2.53039,0 4.58167,2.05129 4.58167,4.58168c0,2.53038 -2.05128,4.58167 -4.58167,4.58167c-2.53039,0 -4.58167,-2.05128 -4.58167,-4.58167z" fill="none" stroke="#12130f" stroke-width="1"/><path d="M384.52552,165.76562c0.15886,-1.4988 1.42705,-2.66649 2.96797,-2.66649c1.49072,0 2.72619,1.09286 2.94894,2.5211c0.01209,0.07756 -1.43837,0.99273 -2.96052,1.02231c-1.44301,0.02804 -2.96179,-0.82602 -2.9564,-0.8769z" fill="#12130f" stroke="none" stroke-width="0"/><path d="M386.01599,161.06604c0,-0.79191 0.64197,-1.43387 1.43388,-1.43387c0.7919,0 1.43387,0.64196 1.43387,1.43387c0,0.79191 -0.64197,1.43388 -1.43387,1.43388c-0.7919,0 -1.43388,-0.64197 -1.43388,-1.43388z" fill="#12130f" stroke="none" stroke-width="0"/></g><g><path d="M326.07303,146.4089v-18.33334h47v18.33334z" fill="#ffffff" stroke="#000000" stroke-width="1"/><path d="M377.95712,144.86585c0,-3.72011 0,-13.60663 0,-15.68299c0,-0.7477 0.72935,-1.44788 1.50108,-1.44788c2.12758,0 12.18318,0 15.7726,0c0.79854,0 1.27705,0.57925 1.27705,1.22383c0,1.97343 0,12.20671 0,15.95184c0,0.85766 -0.51404,1.37506 -1.36667,1.37506c-3.7359,0 -13.97239,0 -15.95184,0c-0.64851,0 -1.23224,-0.53581 -1.23224,-1.41987z" fill="#ffffff" stroke="#12130f" stroke-width="1"/><path d="M382.6508,137.01035c0,-2.53038 2.05129,-4.58167 4.58168,-4.58167c2.53039,0 4.58167,2.05128 4.58167,4.58167c0,2.53038 -2.05128,4.58167 -4.58167,4.58167c-2.53039,0 -4.58168,-2.05128 -4.58168,-4.58167z" fill="none" stroke="#12130f" stroke-width="1"/><path d="M384.30813,140.65693c0.15886,-1.4988 1.42704,-2.66649 2.96797,-2.66649c1.49072,0 2.7262,1.09286 2.94895,2.5211c0.01209,0.07756 -1.43837,0.99272 -2.96052,1.02231c-1.44301,0.02804 -2.96179,-0.82602 -2.95639,-0.8769z" fill="#12130f" stroke="none" stroke-width="0"/><path d="M385.7986,135.95735c0,-0.79191 0.64197,-1.43387 1.43388,-1.43387c0.7919,0 1.43387,0.64196 1.43387,1.43387c0,0.79191 -0.64196,1.43388 -1.43387,1.43388c-0.7919,0 -1.43388,-0.64197 -1.43388,-1.43388z" fill="#12130f" stroke="none" stroke-width="0"/></g></g><path d="M297.48881,231.01548h106.20072" fill="none" stroke="#59927b" stroke-width="1.5" stroke-linecap="round"/><path d="M213.16667,107.16667v-12h56.66667v12z" fill="#8fcb9b" stroke="none" stroke-width="0" stroke-linecap="butt"/><path d="M198.17809,104.64101c-0.70602,0 -1.40714,-0.12258 -2.10335,-0.36772c-0.68641,-0.24514 -1.18161,-0.51971 -1.48559,-0.82369l0.94136,-1.6768c0.24514,0.22553 0.62757,0.46088 1.14729,0.70602c0.51971,0.23534 1.01981,0.35301 1.50029,0.35301c0.61776,0 1.12277,-0.14709 1.515,-0.44127c0.39223,-0.29418 0.58835,-0.69622 0.58835,-1.20612c0,-0.40204 -0.10786,-0.75015 -0.3236,-1.04432c-0.20592,-0.29418 -0.46088,-0.53442 -0.76485,-0.72073c-0.30398,-0.19612 -0.73544,-0.43636 -1.29438,-0.72073c-0.6668,-0.3236 -1.12277,-0.56874 -1.36792,-0.73544c-1.13748,-0.75506 -1.70622,-1.80917 -1.70622,-3.16238c0,-1.10806 0.36772,-1.95626 1.10315,-2.54462c0.73544,-0.59816 1.667,-0.89724 2.79467,-0.89724c1.20612,0 2.23083,0.34811 3.07413,1.04432l-0.92666,1.58854c-0.22553,-0.23534 -0.53932,-0.43636 -0.94136,-0.60306c-0.40204,-0.1667 -0.8335,-0.25005 -1.29438,-0.25005c-0.58835,0 -1.04922,0.13238 -1.38262,0.39714c-0.33339,0.26476 -0.50009,0.65209 -0.50009,1.16199c0,0.36281 0.10296,0.69131 0.30888,0.98548c0.21572,0.28437 0.48539,0.53442 0.80899,0.75015c0.3236,0.20592 0.75995,0.46088 1.30908,0.76485c0.52951,0.29418 0.93155,0.52462 1.20612,0.69131c0.28437,0.1667 0.54913,0.36772 0.79427,0.60306c0.34321,0.30398 0.61776,0.6668 0.82369,1.08845c0.21572,0.42165 0.3236,0.88253 0.3236,1.38262c0,0.78446 -0.18141,1.45617 -0.54423,2.0151c-0.35301,0.54913 -0.8433,0.96587 -1.47087,1.25024c-0.62757,0.27456 -1.3385,0.41185 -2.13277,0.41185zM207.41299,98.68396l-1.05903,1.30908v4.47146h-1.92684v-12.9143h1.92684v5.76584l4.42734,-5.76584h2.3534l-4.44205,5.67759l5.07452,7.23671h-2.39753zM214.70016,96.4041h1.89743v1.57384c0.18632,-0.53932 0.4903,-0.97078 0.91194,-1.29438c0.42165,-0.3236 0.90214,-0.48539 1.44145,-0.48539c0.37262,0 0.63248,0.03432 0.77957,0.10296l-0.26476,1.91214c-0.10786,-0.06864 -0.3383,-0.10296 -0.69131,-0.10296c-0.54913,0 -1.04922,0.17651 -1.50029,0.52951c-0.45107,0.34321 -0.6766,0.90214 -0.6766,1.6768v4.14787h-1.89743zM224.62338,104.64101c-0.72564,0 -1.39733,-0.1716 -2.0151,-0.51481c-0.60797,-0.35301 -1.09825,-0.8482 -1.47087,-1.48559c-0.36281,-0.63738 -0.54423,-1.38262 -0.54423,-2.23574c0,-0.8433 0.1569,-1.57875 0.47069,-2.20632c0.3236,-0.63738 0.78446,-1.12767 1.38262,-1.47087c0.59816,-0.35301 1.29927,-0.52951 2.10335,-0.52951c0.47069,0 0.91194,0.08335 1.32378,0.25005c0.41185,0.1569 0.75506,0.35791 1.02961,0.60306c0.28437,0.23534 0.47558,0.47069 0.57364,0.70602l0.02942,-1.3532h1.80917v8.0604h-1.79447l-0.02942,-1.42675c-0.20592,0.42165 -0.57364,0.79427 -1.10315,1.11787c-0.51971,0.3236 -1.10806,0.48539 -1.76505,0.48539zM224.94696,103.05247c0.6668,0 1.22573,-0.23044 1.6768,-0.69131c0.46088,-0.46088 0.69131,-1.06394 0.69131,-1.80917v-0.13238c0,-0.50009 -0.10786,-0.94627 -0.3236,-1.3385c-0.20592,-0.40204 -0.4903,-0.71583 -0.85311,-0.94136c-0.36281,-0.22553 -0.75995,-0.3383 -1.19141,-0.3383c-0.75506,0 -1.3385,0.24514 -1.75035,0.73544c-0.40204,0.4903 -0.60306,1.11787 -0.60306,1.88272c0,0.78446 0.20102,1.42184 0.60306,1.91214c0.40204,0.48048 0.98548,0.72073 1.75035,0.72073zM236.645,104.64101c-0.65699,0 -1.25024,-0.16179 -1.77977,-0.48539c-0.51971,-0.3236 -0.87762,-0.69622 -1.07374,-1.11787l-0.02942,1.42675h-1.82389v-12.9143h1.8533v4.97157l-0.08825,1.36792c0.19612,-0.46088 0.58344,-0.85801 1.16199,-1.19141c0.58835,-0.33339 1.22083,-0.50009 1.89743,-0.50009c0.79427,0 1.48559,0.17651 2.07393,0.52951c0.59816,0.35301 1.05413,0.85311 1.36792,1.50029c0.31379,0.63738 0.47069,1.37772 0.47069,2.22102c0,0.85311 -0.18632,1.59835 -0.55893,2.23574c-0.36281,0.62757 -0.85311,1.11296 -1.47087,1.45617c-0.60797,0.33339 -1.27476,0.50009 -2.00039,0.50009zM236.32141,103.05247c0.76485,0 1.34831,-0.24025 1.75035,-0.72073c0.41185,-0.4903 0.61776,-1.11787 0.61776,-1.88272c0,-0.78446 -0.20102,-1.42184 -0.60306,-1.91214c-0.40204,-0.4903 -0.99039,-0.73544 -1.76505,-0.73544c-0.6668,0 -1.23063,0.23534 -1.69151,0.70602c-0.45107,0.46088 -0.6766,1.06394 -0.6766,1.80917v0.13238c0,0.50009 0.10786,0.95117 0.3236,1.3532c0.21572,0.39223 0.50009,0.70111 0.85311,0.92666c0.36281,0.21572 0.75995,0.3236 1.19141,0.3236zM247.48092,104.64101c-0.65699,0 -1.25024,-0.16179 -1.77977,-0.48539c-0.51971,-0.3236 -0.87762,-0.69622 -1.07374,-1.11787l-0.02942,1.42675h-1.82389v-12.9143h1.8533v4.97157l-0.08825,1.36792c0.19612,-0.46088 0.58344,-0.85801 1.16199,-1.19141c0.58835,-0.33339 1.22083,-0.50009 1.89743,-0.50009c0.79427,0 1.48559,0.17651 2.07393,0.52951c0.59816,0.35301 1.05413,0.85311 1.36792,1.50029c0.31379,0.63738 0.47069,1.37772 0.47069,2.22102c0,0.85311 -0.18632,1.59835 -0.55893,2.23574c-0.36281,0.62757 -0.85311,1.11296 -1.47087,1.45617c-0.60797,0.33339 -1.27476,0.50009 -2.00039,0.50009zM247.15733,103.05247c0.76485,0 1.34831,-0.24025 1.75035,-0.72073c0.41185,-0.4903 0.61776,-1.11787 0.61776,-1.88272c0,-0.78446 -0.20102,-1.42184 -0.60306,-1.91214c-0.40204,-0.4903 -0.99039,-0.73544 -1.76505,-0.73544c-0.6668,0 -1.23063,0.23534 -1.69151,0.70602c-0.45107,0.46088 -0.6766,1.06394 -0.6766,1.80917v0.13238c0,0.50009 0.10786,0.95117 0.3236,1.3532c0.21572,0.39223 0.50009,0.70111 0.85311,0.92666c0.36281,0.21572 0.75995,0.3236 1.19141,0.3236zM257.34606,104.64101c-0.96097,0 -1.76505,-0.19121 -2.41223,-0.57364c-0.63738,-0.38243 -1.10806,-0.89233 -1.41205,-1.52971c-0.30398,-0.63738 -0.45597,-1.33359 -0.45597,-2.08865c0,-0.86292 0.17651,-1.61306 0.52951,-2.25044c0.35301,-0.64718 0.8433,-1.14238 1.47087,-1.48559c0.63738,-0.34321 1.35811,-0.51481 2.16219,-0.51481c1.23554,0 2.15239,0.34321 2.75053,1.02961c0.60797,0.6766 0.91194,1.63758 0.91194,2.88292c0,0.31379 -0.01961,0.64228 -0.05884,0.98548h-5.79526c0.13728,0.71583 0.39223,1.23063 0.76485,1.54442c0.38243,0.31379 0.91194,0.47069 1.58854,0.47069c0.56874,0 1.03452,-0.04412 1.39733,-0.13238c0.36281,-0.09806 0.69622,-0.23044 1.0002,-0.39714l0.57364,1.3532c-0.29418,0.18632 -0.69131,0.35301 -1.19141,0.50009c-0.50009,0.13728 -1.10806,0.20592 -1.82389,0.20592zM259.05228,99.77241c0.00981,-0.72564 -0.152,-1.23554 -0.48539,-1.52971c-0.3236,-0.30398 -0.78937,-0.45597 -1.39733,-0.45597c-1.22573,0 -1.93665,0.6619 -2.13277,1.98568zM263.04141,91.55021h1.86801v12.9143h-1.86801zM268.88068,104.64101c-0.35301,0 -0.65209,-0.11767 -0.89724,-0.35301c-0.24514,-0.24514 -0.36772,-0.54423 -0.36772,-0.89724c0,-0.36281 0.11767,-0.6619 0.35301,-0.89724c0.24514,-0.24514 0.54913,-0.36772 0.91194,-0.36772c0.36281,0 0.6619,0.12258 0.89724,0.36772c0.24514,0.23534 0.36772,0.53442 0.36772,0.89724c0,0.35301 -0.12258,0.65209 -0.36772,0.89724c-0.23534,0.23534 -0.53442,0.35301 -0.89724,0.35301zM272.82931,96.4041h1.97098v8.0604h-1.97098zM273.80009,94.8891c-0.36281,0 -0.67169,-0.12258 -0.92666,-0.36772c-0.24514,-0.24514 -0.36772,-0.54913 -0.36772,-0.91194c0,-0.3236 0.12258,-0.60306 0.36772,-0.8384c0.25495,-0.23534 0.56384,-0.35301 0.92666,-0.35301c0.34321,0 0.63738,0.11767 0.88253,0.35301c0.25495,0.23534 0.38243,0.51481 0.38243,0.8384c0,0.36281 -0.12258,0.6668 -0.36772,0.91194c-0.23534,0.24514 -0.53442,0.36772 -0.89724,0.36772zM281.18946,104.64101c-0.82368,0 -1.55911,-0.18632 -2.2063,-0.55893c-0.64718,-0.37262 -1.14729,-0.88253 -1.50029,-1.52971c-0.34321,-0.64718 -0.51481,-1.36301 -0.51481,-2.14748c0,-0.77466 0.1716,-1.48068 0.51481,-2.11807c0.34321,-0.64718 0.8335,-1.15708 1.47087,-1.52971c0.64718,-0.37262 1.39242,-0.55893 2.23571,-0.55893c0.8433,0 1.58364,0.18632 2.22102,0.55893c0.63738,0.37262 1.12767,0.88253 1.47087,1.52971c0.35301,0.63738 0.52951,1.3434 0.52951,2.11807c0,0.78446 -0.17651,1.50029 -0.52951,2.14748c-0.35301,0.64718 -0.8482,1.15708 -1.48559,1.52971c-0.63738,0.37262 -1.37282,0.55893 -2.20632,0.55893zM281.2483,103.09659c0.6766,0 1.21103,-0.25005 1.60326,-0.75015c0.39223,-0.5099 0.58835,-1.14238 0.58835,-1.89743c0,-0.76485 -0.21083,-1.40714 -0.63248,-1.92684c-0.42165,-0.51971 -0.97568,-0.77957 -1.66207,-0.77957c-0.6668,0 -1.20612,0.25985 -1.61796,0.77957c-0.40204,0.5099 -0.60306,1.15219 -0.60306,1.92684c0,0.74524 0.21572,1.37282 0.64718,1.88272c0.44127,0.5099 1.00019,0.76485 1.67679,0.76485z" fill="#ffffff" stroke="#ffffff" stroke-width="0.5" stroke-linecap="square"/><g fill="#000000" stroke="none" stroke-width="1" stroke-linecap="square"><path d="M81.20358,243.12137l0.94931,-0.27424v6.3498h-0.9493zM84.44373,249.28131c-0.16876,0 -0.31175,-0.05626 -0.42894,-0.16877c-0.1172,-0.1172 -0.1758,-0.26018 -0.1758,-0.42894c0,-0.17345 0.05626,-0.31643 0.16877,-0.42894c0.1172,-0.1172 0.26252,-0.1758 0.43597,-0.1758c0.17346,0 0.31643,0.0586 0.42894,0.1758c0.1172,0.11251 0.1758,0.25549 0.1758,0.42895c0,0.16877 -0.0586,0.31175 -0.17579,0.42894c-0.11251,0.11251 -0.25549,0.16877 -0.42894,0.16877z"/><path d="M97.68797,249.28131c-0.16876,0 -0.31175,-0.05626 -0.42895,-0.16877c-0.1172,-0.1172 -0.17579,-0.26018 -0.17579,-0.42894c0,-0.17345 0.05625,-0.31643 0.16876,-0.42894c0.1172,-0.1172 0.26252,-0.1758 0.43598,-0.1758c0.17346,0 0.31644,0.0586 0.42895,0.1758c0.1172,0.11251 0.1758,0.25549 0.1758,0.42895c0,0.16877 -0.0586,0.31175 -0.1758,0.42894c-0.11251,0.11251 -0.25549,0.16877 -0.42894,0.16877zM100.13507,249.28131c-0.16876,0 -0.31175,-0.05626 -0.42894,-0.16877c-0.1172,-0.1172 -0.17579,-0.26018 -0.17579,-0.42894c0,-0.17345 0.05625,-0.31643 0.16876,-0.42894c0.1172,-0.1172 0.26252,-0.1758 0.43598,-0.1758c0.17346,0 0.31643,0.0586 0.42894,0.1758c0.1172,0.11251 0.1758,0.25549 0.1758,0.42895c0,0.16877 -0.06094,0.31175 -0.18283,0.42894c-0.1172,0.11251 -0.25784,0.16877 -0.42191,0.16877zM102.5681,249.28131c-0.16876,0 -0.31175,-0.05626 -0.42894,-0.16877c-0.1172,-0.1172 -0.1758,-0.26018 -0.1758,-0.42894c0,-0.17345 0.0586,-0.31643 0.1758,-0.42894c0.1172,-0.1172 0.26018,-0.1758 0.42894,-0.1758c0.17346,0 0.31644,0.0586 0.42895,0.1758c0.1172,0.11251 0.1758,0.25549 0.1758,0.42895c0,0.16877 -0.0586,0.31175 -0.17579,0.42894c-0.11251,0.11251 -0.25549,0.16877 -0.42894,0.16877z"/><path d="M80.47547,256.68308c0.26252,-0.35159 0.48051,-0.67741 0.65396,-0.97743c0.17814,-0.30471 0.26722,-0.58599 0.26722,-0.84382c0,-0.31409 -0.08204,-0.55318 -0.24612,-0.71726c-0.16407,-0.16407 -0.41254,-0.24611 -0.74538,-0.24611c-0.30003,0 -0.5438,0.08438 -0.73132,0.25315c-0.18283,0.16407 -0.33518,0.368 -0.45707,0.61178l-0.78054,-0.42191c0.19221,-0.37503 0.4477,-0.69147 0.76648,-0.9493c0.31878,-0.25784 0.72897,-0.38675 1.23058,-0.38675c0.6188,0 1.09229,0.16173 1.42044,0.4852c0.33284,0.31877 0.49927,0.73835 0.49927,1.25871c0,0.67975 -0.33519,1.42982 -1.00556,2.2502l-1.1462,1.44857h2.39787v0.82977h-4.19804zM84.44373,259.36223c-0.16876,0 -0.31175,-0.05626 -0.42894,-0.16877c-0.1172,-0.1172 -0.1758,-0.26018 -0.1758,-0.42894c0,-0.17345 0.05626,-0.31644 0.16877,-0.42894c0.1172,-0.1172 0.26252,-0.17579 0.43597,-0.17579c0.17346,0 0.31643,0.0586 0.42894,0.1758c0.1172,0.11251 0.1758,0.2555 0.1758,0.42895c0,0.16877 -0.0586,0.31174 -0.17579,0.42894c-0.11251,0.11251 -0.25549,0.16876 -0.42894,0.16876z"/><path d="M97.68797,259.36223c-0.16876,0 -0.31175,-0.05626 -0.42895,-0.16877c-0.1172,-0.1172 -0.17579,-0.26018 -0.17579,-0.42894c0,-0.17345 0.05625,-0.31644 0.16876,-0.42894c0.1172,-0.1172 0.26252,-0.17579 0.43598,-0.17579c0.17346,0 0.31644,0.0586 0.42895,0.1758c0.1172,0.11251 0.1758,0.25549 0.1758,0.42895c0,0.16877 -0.0586,0.31174 -0.1758,0.42894c-0.11251,0.11251 -0.25549,0.16877 -0.42894,0.16877zM100.13507,259.36223c-0.16876,0 -0.31175,-0.05626 -0.42894,-0.16877c-0.1172,-0.1172 -0.17579,-0.26018 -0.17579,-0.42894c0,-0.17345 0.05625,-0.31644 0.16876,-0.42894c0.1172,-0.1172 0.26252,-0.17579 0.43598,-0.17579c0.17346,0 0.31643,0.0586 0.42894,0.1758c0.1172,0.11251 0.1758,0.25549 0.1758,0.42895c0,0.16877 -0.06094,0.31174 -0.18283,0.42894c-0.1172,0.11251 -0.25784,0.16877 -0.42191,0.16877zM102.5681,259.36223c-0.16876,0 -0.31175,-0.05626 -0.42894,-0.16877c-0.1172,-0.1172 -0.1758,-0.26018 -0.1758,-0.42894c0,-0.17345 0.0586,-0.31644 0.1758,-0.42894c0.1172,-0.1172 0.26018,-0.17579 0.42894,-0.17579c0.17346,0 0.31644,0.0586 0.42895,0.1758c0.1172,0.11251 0.1758,0.25549 0.1758,0.42895c0,0.16877 -0.0586,0.31174 -0.17579,0.42894c-0.11251,0.11251 -0.25549,0.16877 -0.42894,0.16877z"/><path d="M126.18298,249.63415c-0.36097,0 -0.72194,-0.05156 -1.08291,-0.1547c-0.36097,-0.10314 -0.62115,-0.23674 -0.78054,-0.40082l0.39378,-0.7946c0.16876,0.13127 0.37972,0.24612 0.63287,0.34457c0.25784,0.09844 0.5227,0.14767 0.7946,0.14767c0.95633,0 1.43451,-0.3891 1.43451,-1.1673c0,-0.32816 -0.13126,-0.59302 -0.39378,-0.7946c-0.25784,-0.20158 -0.60709,-0.30237 -1.04775,-0.30237c-0.3094,0 -0.56958,0.01642 -0.78054,0.04923l1.53999,-2.40491h-2.31349v-0.82273h3.98708l-1.75093,2.49632c0.35628,0.00938 0.67037,0.09376 0.94227,0.25315c0.2719,0.1547 0.48051,0.36097 0.62584,0.61881c0.14533,0.25315 0.218,0.53442 0.218,0.84383c0,0.40316 -0.0961,0.76179 -0.28831,1.07588c-0.19221,0.31409 -0.47113,0.56256 -0.83679,0.74538c-0.36097,0.17814 -0.79226,0.26721 -1.29387,0.26721zM130.42024,249.59196c-0.16877,0 -0.31175,-0.05626 -0.42894,-0.16877c-0.1172,-0.1172 -0.17579,-0.26018 -0.17579,-0.42894c0,-0.17345 0.05626,-0.31643 0.16877,-0.42894c0.1172,-0.1172 0.26252,-0.1758 0.43597,-0.1758c0.17345,0 0.31644,0.0586 0.42895,0.1758c0.1172,0.11251 0.1758,0.25549 0.1758,0.42894c0,0.16877 -0.0586,0.31175 -0.17579,0.42895c-0.11251,0.11251 -0.25549,0.16876 -0.42894,0.16876zM143.1487,249.59196c-0.16877,0 -0.31174,-0.05626 -0.42894,-0.16877c-0.1172,-0.1172 -0.1758,-0.26018 -0.1758,-0.42894c0,-0.17345 0.05626,-0.31643 0.16877,-0.42894c0.1172,-0.1172 0.26252,-0.1758 0.43598,-0.1758c0.17345,0 0.31644,0.0586 0.42895,0.1758c0.1172,0.11251 0.17579,0.25549 0.17579,0.42894c0,0.16877 -0.0586,0.31175 -0.17579,0.42895c-0.11251,0.11251 -0.25549,0.16876 -0.42894,0.16876zM145.5958,249.59196c-0.16877,0 -0.31175,-0.05626 -0.42894,-0.16877c-0.1172,-0.1172 -0.17579,-0.26018 -0.17579,-0.42894c0,-0.17345 0.05626,-0.31643 0.16877,-0.42894c0.1172,-0.1172 0.26252,-0.1758 0.43597,-0.1758c0.17345,0 0.31644,0.0586 0.42895,0.1758c0.1172,0.11251 0.1758,0.25549 0.1758,0.42894c0,0.16877 -0.06095,0.31175 -0.18283,0.42895c-0.1172,0.11251 -0.25784,0.16876 -0.42191,0.16876zM148.02883,249.59196c-0.16877,0 -0.31175,-0.05626 -0.42894,-0.16877c-0.1172,-0.1172 -0.17579,-0.26018 -0.17579,-0.42894c0,-0.17345 0.05859,-0.31643 0.17579,-0.42894c0.1172,-0.1172 0.26019,-0.1758 0.42895,-0.1758c0.17345,0 0.31644,0.0586 0.42894,0.1758c0.1172,0.11251 0.1758,0.25549 0.1758,0.42894c0,0.16877 -0.0586,0.31175 -0.1758,0.42895c-0.11251,0.11251 -0.25549,0.16876 -0.42894,0.16876z"/><path d="M127.05494,258.04149h-2.81978l1.77204,-4.83091l0.87195,0.32346l-1.33606,3.62846h1.51186l0.04922,-1.39934h0.93525v1.39935h0.85086v0.87899h-0.85085v1.54701h-0.98446zM130.56298,259.67289c-0.16877,0 -0.31174,-0.05626 -0.42894,-0.16877c-0.1172,-0.1172 -0.1758,-0.26018 -0.1758,-0.42894c0,-0.17345 0.05626,-0.31644 0.16877,-0.42894c0.1172,-0.1172 0.26252,-0.17579 0.43598,-0.17579c0.17345,0 0.31644,0.0586 0.42895,0.1758c0.1172,0.11251 0.1758,0.2555 0.1758,0.42895c0,0.16877 -0.0586,0.31174 -0.17579,0.42894c-0.11251,0.11251 -0.25549,0.16877 -0.42894,0.16877zM143.29143,259.67289c-0.16877,0 -0.31174,-0.05626 -0.42894,-0.16877c-0.1172,-0.1172 -0.1758,-0.26018 -0.1758,-0.42894c0,-0.17345 0.05626,-0.31644 0.16877,-0.42894c0.1172,-0.1172 0.26252,-0.17579 0.43598,-0.17579c0.17345,0 0.31644,0.0586 0.42895,0.1758c0.1172,0.11251 0.1758,0.2555 0.1758,0.42895c0,0.16877 -0.0586,0.31174 -0.17579,0.42894c-0.11251,0.11251 -0.25549,0.16877 -0.42894,0.16877zM145.73854,259.67289c-0.16877,0 -0.31175,-0.05626 -0.42895,-0.16877c-0.1172,-0.1172 -0.17579,-0.26018 -0.17579,-0.42894c0,-0.17345 0.05626,-0.31644 0.16877,-0.42894c0.1172,-0.1172 0.26252,-0.17579 0.43598,-0.17579c0.17345,0 0.31644,0.0586 0.42895,0.1758c0.1172,0.11251 0.1758,0.2555 0.1758,0.42895c0,0.16877 -0.06095,0.31174 -0.18283,0.42894c-0.1172,0.11251 -0.25784,0.16877 -0.42192,0.16877zM148.17156,259.67289c-0.16877,0 -0.31174,-0.05626 -0.42894,-0.16877c-0.1172,-0.1172 -0.17579,-0.26018 -0.17579,-0.42894c0,-0.17345 0.05859,-0.31644 0.17579,-0.42894c0.1172,-0.1172 0.26018,-0.17579 0.42895,-0.17579c0.17345,0 0.31644,0.0586 0.42894,0.1758c0.1172,0.11251 0.1758,0.2555 0.1758,0.42895c0,0.16877 -0.0586,0.31174 -0.17579,0.42894c-0.11251,0.11251 -0.25549,0.16877 -0.42894,0.16877z"/></g></g></g></svg>