<svg version="1.1" xmlns="http://www.w3.org/2000/svg" xmlns:xlink="http://www.w3.org/1999/xlink" width="353" height="191.5" viewBox="0,0,353,191.5"><g transform="translate(-63.5,-84.25)"><g data-paper-data="{&quot;isPaintingLayer&quot;:true}" fill-rule="nonzero" stroke-linejoin="miter" stroke-miterlimit="10" stroke-dasharray="" stroke-dashoffset="0" style="mix-blend-mode: normal"><path d="M63.5,275.75v-191.5h353v191.5z" fill="#8fcb9b" stroke="none" stroke-width="0" stroke-linecap="butt"/><path d="M73.66666,239.41667v-124.33333h220v124.33333z" fill="#ffffff" stroke="#59927b" stroke-width="1.5" stroke-linecap="butt"/><path d="M73.66666,266.41667v-24.33333h220v24.33333z" fill="#ffffff" stroke="#59927b" stroke-width="1.5" stroke-linecap="butt"/><path d="M296.33333,266.27081v-151.18747h107v151.18748z" fill="#ffffff" stroke="#59927b" stroke-width="1.5" stroke-linecap="butt"/><path d="M378.05801,258.83013c0,-3.7201 0,-13.60664 0,-15.68299c0,-0.7477 0.72935,-1.44787 1.50109,-1.44787c2.12759,0 12.18317,0 15.7726,0c0.79854,0 1.27704,0.57925 1.27704,1.22383c0,1.97342 0,12.20671 0,15.95183c0,0.85766 -0.51404,1.37507 -1.36667,1.37507c-3.7359,0 -13.97239,0 -15.95183,0c-0.64851,0 -1.23224,-0.53582 -1.23224,-1.41987z" fill="#ffffff" stroke="#12130f" stroke-width="1" stroke-linecap="butt"/><path d="M384.20094,253.68728v-5.42528l6.26484,2.72959z" fill="none" stroke="#12130f" stroke-width="1" stroke-linecap="butt"/><path d="M384.22711,250.63834v-2.27189c0,0 1.44276,0.56365 2.352,0.95038c1.11651,0.47489 3.85387,1.68918 3.85387,1.68918z" fill="#12130f" stroke="none" stroke-width="0" stroke-linecap="butt"/><g stroke-linecap="butt"><path d="M303.16668,260.25v-18.33334h47v18.33334z" fill="#ffffff" stroke="#000000" stroke-width="1"/><path d="M355.05076,258.70695c0,-3.72011 0,-13.60663 0,-15.68299c0,-0.7477 0.72935,-1.44788 1.50108,-1.44788c2.12758,0 12.18318,0 15.7726,0c0.79854,0 1.27704,0.57926 1.27704,1.22384c0,1.97343 0,12.20671 0,15.95184c0,0.85766 -0.51404,1.37506 -1.36667,1.37506c-3.7359,0 -13.97239,0 -15.95183,0c-0.64851,0 -1.23224,-0.53582 -1.23224,-1.41987z" fill="#ffffff" stroke="#12130f" stroke-width="1"/><path d="M359.74445,250.85145c0,-2.53038 2.05129,-4.58167 4.58168,-4.58167c2.53039,0 4.58167,2.05128 4.58167,4.58167c0,2.53038 -2.05128,4.58167 -4.58167,4.58167c-2.53039,0 -4.58168,-2.05128 -4.58168,-4.58167z" fill="none" stroke="#12130f" stroke-width="1"/><path d="M361.40178,254.49803c0.15886,-1.4988 1.42705,-2.6665 2.96797,-2.6665c1.49072,0 2.72619,1.09286 2.94894,2.5211c0.01209,0.07756 -1.43837,0.99273 -2.96052,1.02231c-1.44301,0.02804 -2.96179,-0.82602 -2.95639,-0.8769z" fill="#12130f" stroke="none" stroke-width="0"/><path d="M362.89225,249.79845c0,-0.79191 0.64197,-1.43387 1.43388,-1.43387c0.7919,0 1.43387,0.64196 1.43387,1.43387c0,0.79191 -0.64197,1.43388 -1.43387,1.43388c-0.7919,0 -1.43388,-0.64197 -1.43388,-1.43388z" fill="#12130f" stroke="none" stroke-width="0"/></g><g stroke-linecap="butt"><g><path d="M325.39912,224.2676v-18.33334h47v18.33334z" fill="#ffffff" stroke="#000000" stroke-width="1"/><path d="M377.2832,222.72454c0,-3.72011 0,-13.60663 0,-15.68299c0,-0.7477 0.72935,-1.44788 1.50108,-1.44788c2.12758,0 12.18318,0 15.7726,0c0.79854,0 1.27704,0.57926 1.27704,1.22384c0,1.97343 0,12.20671 0,15.95184c0,0.85766 -0.51404,1.37506 -1.36667,1.37506c-3.7359,0 -13.97239,0 -15.95183,0c-0.64851,0 -1.23224,-0.53582 -1.23224,-1.41987z" fill="#ffffff" stroke="#12130f" stroke-width="1"/><path d="M381.97689,214.86905c0,-2.53038 2.05129,-4.58168 4.58168,-4.58168c2.53039,0 4.58167,2.05129 4.58167,4.58168c0,2.53038 -2.05128,4.58167 -4.58167,4.58167c-2.53039,0 -4.58168,-2.05128 -4.58168,-4.58167z" fill="none" stroke="#12130f" stroke-width="1"/><path d="M383.63422,218.51562c0.15886,-1.4988 1.42705,-2.66649 2.96797,-2.66649c1.49072,0 2.72619,1.09286 2.94894,2.5211c0.01209,0.07756 -1.43837,0.99273 -2.96052,1.02231c-1.44301,0.02804 -2.96179,-0.82602 -2.9564,-0.8769z" fill="#12130f" stroke="none" stroke-width="0"/><path d="M385.12469,213.81604c0,-0.79191 0.64197,-1.43387 1.43388,-1.43387c0.7919,0 1.43387,0.64196 1.43387,1.43387c0,0.79191 -0.64197,1.43388 -1.43387,1.43388c-0.7919,0 -1.43388,-0.64197 -1.43388,-1.43388z" fill="#12130f" stroke="none" stroke-width="0"/></g><g><path d="M325.18172,199.1589v-18.33334h47v18.33334z" fill="#ffffff" stroke="#000000" stroke-width="1"/><path d="M377.06581,197.61585c0,-3.72011 0,-13.60663 0,-15.68299c0,-0.7477 0.72935,-1.44788 1.50108,-1.44788c2.12758,0 12.18318,0 15.7726,0c0.79854,0 1.27704,0.57925 1.27704,1.22383c0,1.97343 0,12.20671 0,15.95184c0,0.85766 -0.51403,1.37506 -1.36666,1.37506c-3.7359,0 -13.97239,0 -15.95184,0c-0.64851,0 -1.23224,-0.53581 -1.23224,-1.41987z" fill="#ffffff" stroke="#12130f" stroke-width="1"/><path d="M381.7595,189.76035c0,-2.53038 2.05128,-4.58167 4.58167,-4.58167c2.53039,0 4.58167,2.05128 4.58167,4.58167c0,2.53038 -2.05128,4.58167 -4.58167,4.58167c-2.53039,0 -4.58167,-2.05128 -4.58167,-4.58167z" fill="none" stroke="#12130f" stroke-width="1"/><path d="M383.41683,193.40693c0.15886,-1.4988 1.42704,-2.66649 2.96797,-2.66649c1.49072,0 2.72619,1.09286 2.94894,2.5211c0.01209,0.07756 -1.43837,0.99272 -2.96052,1.02231c-1.44301,0.02804 -2.96179,-0.82602 -2.95639,-0.8769z" fill="#12130f" stroke="none" stroke-width="0"/><path d="M384.9073,188.70735c0,-0.79191 0.64197,-1.43387 1.43388,-1.43387c0.7919,0 1.43387,0.64196 1.43387,1.43387c0,0.79191 -0.64197,1.43388 -1.43387,1.43388c-0.7919,0 -1.43388,-0.64197 -1.43388,-1.43388z" fill="#12130f" stroke="none" stroke-width="0"/></g><g><path d="M325.29042,174.2676v-18.33334h47v18.33334z" fill="#ffffff" stroke="#000000" stroke-width="1"/><path d="M377.17451,172.72454c0,-3.72011 0,-13.60663 0,-15.68299c0,-0.7477 0.72935,-1.44788 1.50108,-1.44788c2.12758,0 12.18318,0 15.7726,0c0.79854,0 1.27704,0.57926 1.27704,1.22384c0,1.97343 0,12.20671 0,15.95184c0,0.85766 -0.51404,1.37506 -1.36667,1.37506c-3.7359,0 -13.97239,0 -15.95183,0c-0.64851,0 -1.23224,-0.53582 -1.23224,-1.41987z" fill="#ffffff" stroke="#12130f" stroke-width="1"/><path d="M381.86819,164.86905c0,-2.53038 2.05128,-4.58168 4.58167,-4.58168c2.53039,0 4.58167,2.05129 4.58167,4.58168c0,2.53038 -2.05128,4.58167 -4.58167,4.58167c-2.53039,0 -4.58167,-2.05128 -4.58167,-4.58167z" fill="none" stroke="#12130f" stroke-width="1"/><path d="M383.52552,168.51562c0.15886,-1.4988 1.42705,-2.66649 2.96797,-2.66649c1.49072,0 2.72619,1.09286 2.94894,2.5211c0.01209,0.07756 -1.43837,0.99273 -2.96052,1.02231c-1.44301,0.02804 -2.96179,-0.82602 -2.9564,-0.8769z" fill="#12130f" stroke="none" stroke-width="0"/><path d="M385.01599,163.81604c0,-0.79191 0.64197,-1.43387 1.43388,-1.43387c0.7919,0 1.43387,0.64196 1.43387,1.43387c0,0.79191 -0.64197,1.43388 -1.43387,1.43388c-0.7919,0 -1.43388,-0.64197 -1.43388,-1.43388z" fill="#12130f" stroke="none" stroke-width="0"/></g><g><path d="M325.07303,149.1589v-18.33334h47v18.33334z" fill="#ffffff" stroke="#000000" stroke-width="1"/><path d="M376.95712,147.61585c0,-3.72011 0,-13.60663 0,-15.68299c0,-0.7477 0.72935,-1.44788 1.50108,-1.44788c2.12758,0 12.18318,0 15.7726,0c0.79854,0 1.27705,0.57925 1.27705,1.22383c0,1.97343 0,12.20671 0,15.95184c0,0.85766 -0.51404,1.37506 -1.36667,1.37506c-3.7359,0 -13.97239,0 -15.95184,0c-0.64851,0 -1.23224,-0.53581 -1.23224,-1.41987z" fill="#ffffff" stroke="#12130f" stroke-width="1"/><path d="M381.6508,139.76035c0,-2.53038 2.05129,-4.58167 4.58168,-4.58167c2.53039,0 4.58167,2.05128 4.58167,4.58167c0,2.53038 -2.05128,4.58167 -4.58167,4.58167c-2.53039,0 -4.58168,-2.05128 -4.58168,-4.58167z" fill="none" stroke="#12130f" stroke-width="1"/><path d="M383.30813,143.40693c0.15886,-1.4988 1.42704,-2.66649 2.96797,-2.66649c1.49072,0 2.7262,1.09286 2.94895,2.5211c0.01209,0.07756 -1.43837,0.99272 -2.96052,1.02231c-1.44301,0.02804 -2.96179,-0.82602 -2.95639,-0.8769z" fill="#12130f" stroke="none" stroke-width="0"/><path d="M384.7986,138.70735c0,-0.79191 0.64197,-1.43387 1.43388,-1.43387c0.7919,0 1.43387,0.64196 1.43387,1.43387c0,0.79191 -0.64196,1.43388 -1.43387,1.43388c-0.7919,0 -1.43388,-0.64197 -1.43388,-1.43388z" fill="#12130f" stroke="none" stroke-width="0"/></g></g><path d="M296.48881,233.76548h106.20072" fill="none" stroke="#59927b" stroke-width="1.5" stroke-linecap="round"/><path d="M212.16667,109.91667v-12h56.66667v12z" fill="#8fcb9b" stroke="none" stroke-width="0" stroke-linecap="butt"/><path d="M197.17809,107.39101c-0.70602,0 -1.40714,-0.12258 -2.10335,-0.36772c-0.68641,-0.24514 -1.18161,-0.51971 -1.48559,-0.82369l0.94136,-1.6768c0.24514,0.22553 0.62757,0.46088 1.14729,0.70602c0.51971,0.23534 1.01981,0.35301 1.50029,0.35301c0.61776,0 1.12277,-0.14709 1.515,-0.44127c0.39223,-0.29418 0.58835,-0.69622 0.58835,-1.20612c0,-0.40204 -0.10786,-0.75015 -0.3236,-1.04432c-0.20592,-0.29418 -0.46088,-0.53442 -0.76485,-0.72073c-0.30398,-0.19612 -0.73544,-0.43636 -1.29438,-0.72073c-0.6668,-0.3236 -1.12277,-0.56874 -1.36792,-0.73544c-1.13748,-0.75506 -1.70622,-1.80917 -1.70622,-3.16238c0,-1.10806 0.36772,-1.95626 1.10315,-2.54462c0.73544,-0.59816 1.667,-0.89724 2.79467,-0.89724c1.20612,0 2.23083,0.34811 3.07413,1.04432l-0.92666,1.58854c-0.22553,-0.23534 -0.53932,-0.43636 -0.94136,-0.60306c-0.40204,-0.1667 -0.8335,-0.25005 -1.29438,-0.25005c-0.58835,0 -1.04922,0.13238 -1.38262,0.39714c-0.33339,0.26476 -0.50009,0.65209 -0.50009,1.16199c0,0.36281 0.10296,0.69131 0.30888,0.98548c0.21572,0.28437 0.48539,0.53442 0.80899,0.75015c0.3236,0.20592 0.75995,0.46088 1.30908,0.76485c0.52951,0.29418 0.93155,0.52462 1.20612,0.69131c0.28437,0.1667 0.54913,0.36772 0.79427,0.60306c0.34321,0.30398 0.61776,0.6668 0.82369,1.08845c0.21572,0.42165 0.3236,0.88253 0.3236,1.38262c0,0.78446 -0.18141,1.45617 -0.54423,2.0151c-0.35301,0.54913 -0.8433,0.96587 -1.47087,1.25024c-0.62757,0.27456 -1.3385,0.41185 -2.13277,0.41185zM206.41299,101.43396l-1.05903,1.30908v4.47146h-1.92684v-12.9143h1.92684v5.76584l4.42734,-5.76584h2.3534l-4.44205,5.67759l5.07452,7.23671h-2.39753zM213.70016,99.1541h1.89743v1.57384c0.18632,-0.53932 0.4903,-0.97078 0.91194,-1.29438c0.42165,-0.3236 0.90214,-0.48539 1.44145,-0.48539c0.37262,0 0.63248,0.03432 0.77957,0.10296l-0.26476,1.91214c-0.10786,-0.06864 -0.3383,-0.10296 -0.69131,-0.10296c-0.54913,0 -1.04922,0.17651 -1.50029,0.52951c-0.45107,0.34321 -0.6766,0.90214 -0.6766,1.6768v4.14787h-1.89743zM223.62338,107.39101c-0.72564,0 -1.39733,-0.1716 -2.0151,-0.51481c-0.60797,-0.35301 -1.09825,-0.8482 -1.47087,-1.48559c-0.36281,-0.63738 -0.54423,-1.38262 -0.54423,-2.23574c0,-0.8433 0.1569,-1.57875 0.47069,-2.20632c0.3236,-0.63738 0.78446,-1.12767 1.38262,-1.47087c0.59816,-0.35301 1.29927,-0.52951 2.10335,-0.52951c0.47069,0 0.91194,0.08335 1.32378,0.25005c0.41185,0.1569 0.75506,0.35791 1.02961,0.60306c0.28437,0.23534 0.47558,0.47069 0.57364,0.70602l0.02942,-1.3532h1.80917v8.0604h-1.79447l-0.02942,-1.42675c-0.20592,0.42165 -0.57364,0.79427 -1.10315,1.11787c-0.51971,0.3236 -1.10806,0.48539 -1.76505,0.48539zM223.94696,105.80247c0.6668,0 1.22573,-0.23044 1.6768,-0.69131c0.46088,-0.46088 0.69131,-1.06394 0.69131,-1.80917v-0.13238c0,-0.50009 -0.10786,-0.94627 -0.3236,-1.3385c-0.20592,-0.40204 -0.4903,-0.71583 -0.85311,-0.94136c-0.36281,-0.22553 -0.75995,-0.3383 -1.19141,-0.3383c-0.75506,0 -1.3385,0.24514 -1.75035,0.73544c-0.40204,0.4903 -0.60306,1.11787 -0.60306,1.88272c0,0.78446 0.20102,1.42184 0.60306,1.91214c0.40204,0.48048 0.98548,0.72073 1.75035,0.72073zM235.645,107.39101c-0.65699,0 -1.25024,-0.16179 -1.77977,-0.48539c-0.51971,-0.3236 -0.87762,-0.69622 -1.07374,-1.11787l-0.02942,1.42675h-1.82389v-12.9143h1.8533v4.97157l-0.08825,1.36792c0.19612,-0.46088 0.58344,-0.85801 1.16199,-1.19141c0.58835,-0.33339 1.22083,-0.50009 1.89743,-0.50009c0.79427,0 1.48559,0.17651 2.07393,0.52951c0.59816,0.35301 1.05413,0.85311 1.36792,1.50029c0.31379,0.63738 0.47069,1.37772 0.47069,2.22102c0,0.85311 -0.18632,1.59835 -0.55893,2.23574c-0.36281,0.62757 -0.85311,1.11296 -1.47087,1.45617c-0.60797,0.33339 -1.27476,0.50009 -2.00039,0.50009zM235.32141,105.80247c0.76485,0 1.34831,-0.24025 1.75035,-0.72073c0.41185,-0.4903 0.61776,-1.11787 0.61776,-1.88272c0,-0.78446 -0.20102,-1.42184 -0.60306,-1.91214c-0.40204,-0.4903 -0.99039,-0.73544 -1.76505,-0.73544c-0.6668,0 -1.23063,0.23534 -1.69151,0.70602c-0.45107,0.46088 -0.6766,1.06394 -0.6766,1.80917v0.13238c0,0.50009 0.10786,0.95117 0.3236,1.3532c0.21572,0.39223 0.50009,0.70111 0.85311,0.92666c0.36281,0.21572 0.75995,0.3236 1.19141,0.3236zM246.48092,107.39101c-0.65699,0 -1.25024,-0.16179 -1.77977,-0.48539c-0.51971,-0.3236 -0.87762,-0.69622 -1.07374,-1.11787l-0.02942,1.42675h-1.82389v-12.9143h1.8533v4.97157l-0.08825,1.36792c0.19612,-0.46088 0.58344,-0.85801 1.16199,-1.19141c0.58835,-0.33339 1.22083,-0.50009 1.89743,-0.50009c0.79427,0 1.48559,0.17651 2.07393,0.52951c0.59816,0.35301 1.05413,0.85311 1.36792,1.50029c0.31379,0.63738 0.47069,1.37772 0.47069,2.22102c0,0.85311 -0.18632,1.59835 -0.55893,2.23574c-0.36281,0.62757 -0.85311,1.11296 -1.47087,1.45617c-0.60797,0.33339 -1.27476,0.50009 -2.00039,0.50009zM246.15733,105.80247c0.76485,0 1.34831,-0.24025 1.75035,-0.72073c0.41185,-0.4903 0.61776,-1.11787 0.61776,-1.88272c0,-0.78446 -0.20102,-1.42184 -0.60306,-1.91214c-0.40204,-0.4903 -0.99039,-0.73544 -1.76505,-0.73544c-0.6668,0 -1.23063,0.23534 -1.69151,0.70602c-0.45107,0.46088 -0.6766,1.06394 -0.6766,1.80917v0.13238c0,0.50009 0.10786,0.95117 0.3236,1.3532c0.21572,0.39223 0.50009,0.70111 0.85311,0.92666c0.36281,0.21572 0.75995,0.3236 1.19141,0.3236zM256.34606,107.39101c-0.96097,0 -1.76505,-0.19121 -2.41223,-0.57364c-0.63738,-0.38243 -1.10806,-0.89233 -1.41205,-1.52971c-0.30398,-0.63738 -0.45597,-1.33359 -0.45597,-2.08865c0,-0.86292 0.17651,-1.61306 0.52951,-2.25044c0.35301,-0.64718 0.8433,-1.14238 1.47087,-1.48559c0.63738,-0.34321 1.35811,-0.51481 2.16219,-0.51481c1.23554,0 2.15239,0.34321 2.75053,1.02961c0.60797,0.6766 0.91194,1.63758 0.91194,2.88292c0,0.31379 -0.01961,0.64228 -0.05884,0.98548h-5.79526c0.13728,0.71583 0.39223,1.23063 0.76485,1.54442c0.38243,0.31379 0.91194,0.47069 1.58854,0.47069c0.56874,0 1.03452,-0.04412 1.39733,-0.13238c0.36281,-0.09806 0.69622,-0.23044 1.0002,-0.39714l0.57364,1.3532c-0.29418,0.18632 -0.69131,0.35301 -1.19141,0.50009c-0.50009,0.13728 -1.10806,0.20592 -1.82389,0.20592zM258.05228,102.52241c0.00981,-0.72564 -0.152,-1.23554 -0.48539,-1.52971c-0.3236,-0.30398 -0.78937,-0.45597 -1.39733,-0.45597c-1.22573,0 -1.93665,0.6619 -2.13277,1.98568zM262.04141,94.30021h1.86801v12.9143h-1.86801zM267.88068,107.39101c-0.35301,0 -0.65209,-0.11767 -0.89724,-0.35301c-0.24514,-0.24514 -0.36772,-0.54423 -0.36772,-0.89724c0,-0.36281 0.11767,-0.6619 0.35301,-0.89724c0.24514,-0.24514 0.54913,-0.36772 0.91194,-0.36772c0.36281,0 0.6619,0.12258 0.89724,0.36772c0.24514,0.23534 0.36772,0.53442 0.36772,0.89724c0,0.35301 -0.12258,0.65209 -0.36772,0.89724c-0.23534,0.23534 -0.53442,0.35301 -0.89724,0.35301zM271.82931,99.1541h1.97098v8.0604h-1.97098zM272.80009,97.6391c-0.36281,0 -0.67169,-0.12258 -0.92666,-0.36772c-0.24514,-0.24514 -0.36772,-0.54913 -0.36772,-0.91194c0,-0.3236 0.12258,-0.60306 0.36772,-0.8384c0.25495,-0.23534 0.56384,-0.35301 0.92666,-0.35301c0.34321,0 0.63738,0.11767 0.88253,0.35301c0.25495,0.23534 0.38243,0.51481 0.38243,0.8384c0,0.36281 -0.12258,0.6668 -0.36772,0.91194c-0.23534,0.24514 -0.53442,0.36772 -0.89724,0.36772zM280.18946,107.39101c-0.82368,0 -1.55911,-0.18632 -2.2063,-0.55893c-0.64718,-0.37262 -1.14729,-0.88253 -1.50029,-1.52971c-0.34321,-0.64718 -0.51481,-1.36301 -0.51481,-2.14748c0,-0.77466 0.1716,-1.48068 0.51481,-2.11807c0.34321,-0.64718 0.8335,-1.15708 1.47087,-1.52971c0.64718,-0.37262 1.39242,-0.55893 2.23571,-0.55893c0.8433,0 1.58364,0.18632 2.22102,0.55893c0.63738,0.37262 1.12767,0.88253 1.47087,1.52971c0.35301,0.63738 0.52951,1.3434 0.52951,2.11807c0,0.78446 -0.17651,1.50029 -0.52951,2.14748c-0.35301,0.64718 -0.8482,1.15708 -1.48559,1.52971c-0.63738,0.37262 -1.37282,0.55893 -2.20632,0.55893zM280.2483,105.84659c0.6766,0 1.21103,-0.25005 1.60326,-0.75015c0.39223,-0.5099 0.58835,-1.14238 0.58835,-1.89743c0,-0.76485 -0.21083,-1.40714 -0.63248,-1.92684c-0.42165,-0.51971 -0.97568,-0.77957 -1.66207,-0.77957c-0.6668,0 -1.20612,0.25985 -1.61796,0.77957c-0.40204,0.5099 -0.60306,1.15219 -0.60306,1.92684c0,0.74524 0.21572,1.37282 0.64718,1.88272c0.44127,0.5099 1.00019,0.76485 1.67679,0.76485z" fill="#ffffff" stroke="#ffffff" stroke-width="0.5" stroke-linecap="square"/><g fill="#000000" stroke="none" stroke-width="1" stroke-linecap="square"><path d="M80.20358,245.87137l0.94931,-0.27424v6.3498h-0.9493zM83.44373,252.03131c-0.16876,0 -0.31175,-0.05626 -0.42894,-0.16877c-0.1172,-0.1172 -0.1758,-0.26018 -0.1758,-0.42894c0,-0.17345 0.05626,-0.31643 0.16877,-0.42894c0.1172,-0.1172 0.26252,-0.1758 0.43597,-0.1758c0.17346,0 0.31643,0.0586 0.42894,0.1758c0.1172,0.11251 0.1758,0.25549 0.1758,0.42895c0,0.16877 -0.0586,0.31175 -0.17579,0.42894c-0.11251,0.11251 -0.25549,0.16877 -0.42894,0.16877z"/><path d="M96.68797,252.03131c-0.16876,0 -0.31175,-0.05626 -0.42895,-0.16877c-0.1172,-0.1172 -0.17579,-0.26018 -0.17579,-0.42894c0,-0.17345 0.05625,-0.31643 0.16876,-0.42894c0.1172,-0.1172 0.26252,-0.1758 0.43598,-0.1758c0.17346,0 0.31644,0.0586 0.42895,0.1758c0.1172,0.11251 0.1758,0.25549 0.1758,0.42895c0,0.16877 -0.0586,0.31175 -0.1758,0.42894c-0.11251,0.11251 -0.25549,0.16877 -0.42894,0.16877zM99.13507,252.03131c-0.16876,0 -0.31175,-0.05626 -0.42894,-0.16877c-0.1172,-0.1172 -0.17579,-0.26018 -0.17579,-0.42894c0,-0.17345 0.05625,-0.31643 0.16876,-0.42894c0.1172,-0.1172 0.26252,-0.1758 0.43598,-0.1758c0.17346,0 0.31643,0.0586 0.42894,0.1758c0.1172,0.11251 0.1758,0.25549 0.1758,0.42895c0,0.16877 -0.06094,0.31175 -0.18283,0.42894c-0.1172,0.11251 -0.25784,0.16877 -0.42191,0.16877zM101.5681,252.03131c-0.16876,0 -0.31175,-0.05626 -0.42894,-0.16877c-0.1172,-0.1172 -0.1758,-0.26018 -0.1758,-0.42894c0,-0.17345 0.0586,-0.31643 0.1758,-0.42894c0.1172,-0.1172 0.26018,-0.1758 0.42894,-0.1758c0.17346,0 0.31644,0.0586 0.42895,0.1758c0.1172,0.11251 0.1758,0.25549 0.1758,0.42895c0,0.16877 -0.0586,0.31175 -0.17579,0.42894c-0.11251,0.11251 -0.25549,0.16877 -0.42894,0.16877z"/><path d="M79.47547,259.43308c0.26252,-0.35159 0.48051,-0.67741 0.65396,-0.97743c0.17814,-0.30471 0.26722,-0.58599 0.26722,-0.84382c0,-0.31409 -0.08204,-0.55318 -0.24612,-0.71726c-0.16407,-0.16407 -0.41254,-0.24611 -0.74538,-0.24611c-0.30003,0 -0.5438,0.08438 -0.73132,0.25315c-0.18283,0.16407 -0.33518,0.368 -0.45707,0.61178l-0.78054,-0.42191c0.19221,-0.37503 0.4477,-0.69147 0.76648,-0.9493c0.31878,-0.25784 0.72897,-0.38675 1.23058,-0.38675c0.6188,0 1.09229,0.16173 1.42044,0.4852c0.33284,0.31877 0.49927,0.73835 0.49927,1.25871c0,0.67975 -0.33519,1.42982 -1.00556,2.2502l-1.1462,1.44857h2.39787v0.82977h-4.19804zM83.44373,262.11223c-0.16876,0 -0.31175,-0.05626 -0.42894,-0.16877c-0.1172,-0.1172 -0.1758,-0.26018 -0.1758,-0.42894c0,-0.17345 0.05626,-0.31644 0.16877,-0.42894c0.1172,-0.1172 0.26252,-0.17579 0.43597,-0.17579c0.17346,0 0.31643,0.0586 0.42894,0.1758c0.1172,0.11251 0.1758,0.2555 0.1758,0.42895c0,0.16877 -0.0586,0.31174 -0.17579,0.42894c-0.11251,0.11251 -0.25549,0.16876 -0.42894,0.16876z"/><path d="M96.68797,262.11223c-0.16876,0 -0.31175,-0.05626 -0.42895,-0.16877c-0.1172,-0.1172 -0.17579,-0.26018 -0.17579,-0.42894c0,-0.17345 0.05625,-0.31644 0.16876,-0.42894c0.1172,-0.1172 0.26252,-0.17579 0.43598,-0.17579c0.17346,0 0.31644,0.0586 0.42895,0.1758c0.1172,0.11251 0.1758,0.25549 0.1758,0.42895c0,0.16877 -0.0586,0.31174 -0.1758,0.42894c-0.11251,0.11251 -0.25549,0.16877 -0.42894,0.16877zM99.13507,262.11223c-0.16876,0 -0.31175,-0.05626 -0.42894,-0.16877c-0.1172,-0.1172 -0.17579,-0.26018 -0.17579,-0.42894c0,-0.17345 0.05625,-0.31644 0.16876,-0.42894c0.1172,-0.1172 0.26252,-0.17579 0.43598,-0.17579c0.17346,0 0.31643,0.0586 0.42894,0.1758c0.1172,0.11251 0.1758,0.25549 0.1758,0.42895c0,0.16877 -0.06094,0.31174 -0.18283,0.42894c-0.1172,0.11251 -0.25784,0.16877 -0.42191,0.16877zM101.5681,262.11223c-0.16876,0 -0.31175,-0.05626 -0.42894,-0.16877c-0.1172,-0.1172 -0.1758,-0.26018 -0.1758,-0.42894c0,-0.17345 0.0586,-0.31644 0.1758,-0.42894c0.1172,-0.1172 0.26018,-0.17579 0.42894,-0.17579c0.17346,0 0.31644,0.0586 0.42895,0.1758c0.1172,0.11251 0.1758,0.25549 0.1758,0.42895c0,0.16877 -0.0586,0.31174 -0.17579,0.42894c-0.11251,0.11251 -0.25549,0.16877 -0.42894,0.16877z"/><path d="M125.18298,252.38415c-0.36097,0 -0.72194,-0.05156 -1.08291,-0.1547c-0.36097,-0.10314 -0.62115,-0.23674 -0.78054,-0.40082l0.39378,-0.7946c0.16876,0.13127 0.37972,0.24612 0.63287,0.34457c0.25784,0.09844 0.5227,0.14767 0.7946,0.14767c0.95633,0 1.43451,-0.3891 1.43451,-1.1673c0,-0.32816 -0.13126,-0.59302 -0.39378,-0.7946c-0.25784,-0.20158 -0.60709,-0.30237 -1.04775,-0.30237c-0.3094,0 -0.56958,0.01642 -0.78054,0.04923l1.53999,-2.40491h-2.31349v-0.82273h3.98708l-1.75093,2.49632c0.35628,0.00938 0.67037,0.09376 0.94227,0.25315c0.2719,0.1547 0.48051,0.36097 0.62584,0.61881c0.14533,0.25315 0.218,0.53442 0.218,0.84383c0,0.40316 -0.0961,0.76179 -0.28831,1.07588c-0.19221,0.31409 -0.47113,0.56256 -0.83679,0.74538c-0.36097,0.17814 -0.79226,0.26721 -1.29387,0.26721zM129.42024,252.34196c-0.16877,0 -0.31175,-0.05626 -0.42894,-0.16877c-0.1172,-0.1172 -0.17579,-0.26018 -0.17579,-0.42894c0,-0.17345 0.05626,-0.31643 0.16877,-0.42894c0.1172,-0.1172 0.26252,-0.1758 0.43597,-0.1758c0.17345,0 0.31644,0.0586 0.42895,0.1758c0.1172,0.11251 0.1758,0.25549 0.1758,0.42894c0,0.16877 -0.0586,0.31175 -0.17579,0.42895c-0.11251,0.11251 -0.25549,0.16876 -0.42894,0.16876zM142.1487,252.34196c-0.16877,0 -0.31174,-0.05626 -0.42894,-0.16877c-0.1172,-0.1172 -0.1758,-0.26018 -0.1758,-0.42894c0,-0.17345 0.05626,-0.31643 0.16877,-0.42894c0.1172,-0.1172 0.26252,-0.1758 0.43598,-0.1758c0.17345,0 0.31644,0.0586 0.42895,0.1758c0.1172,0.11251 0.17579,0.25549 0.17579,0.42894c0,0.16877 -0.0586,0.31175 -0.17579,0.42895c-0.11251,0.11251 -0.25549,0.16876 -0.42894,0.16876zM144.5958,252.34196c-0.16877,0 -0.31175,-0.05626 -0.42894,-0.16877c-0.1172,-0.1172 -0.17579,-0.26018 -0.17579,-0.42894c0,-0.17345 0.05626,-0.31643 0.16877,-0.42894c0.1172,-0.1172 0.26252,-0.1758 0.43597,-0.1758c0.17345,0 0.31644,0.0586 0.42895,0.1758c0.1172,0.11251 0.1758,0.25549 0.1758,0.42894c0,0.16877 -0.06095,0.31175 -0.18283,0.42895c-0.1172,0.11251 -0.25784,0.16876 -0.42191,0.16876zM147.02883,252.34196c-0.16877,0 -0.31175,-0.05626 -0.42894,-0.16877c-0.1172,-0.1172 -0.17579,-0.26018 -0.17579,-0.42894c0,-0.17345 0.05859,-0.31643 0.17579,-0.42894c0.1172,-0.1172 0.26019,-0.1758 0.42895,-0.1758c0.17345,0 0.31644,0.0586 0.42894,0.1758c0.1172,0.11251 0.1758,0.25549 0.1758,0.42894c0,0.16877 -0.0586,0.31175 -0.1758,0.42895c-0.11251,0.11251 -0.25549,0.16876 -0.42894,0.16876z"/><path d="M126.05494,260.79149h-2.81978l1.77204,-4.83091l0.87195,0.32346l-1.33606,3.62846h1.51186l0.04922,-1.39934h0.93525v1.39935h0.85086v0.87899h-0.85085v1.54701h-0.98446zM129.56298,262.42289c-0.16877,0 -0.31174,-0.05626 -0.42894,-0.16877c-0.1172,-0.1172 -0.1758,-0.26018 -0.1758,-0.42894c0,-0.17345 0.05626,-0.31644 0.16877,-0.42894c0.1172,-0.1172 0.26252,-0.17579 0.43598,-0.17579c0.17345,0 0.31644,0.0586 0.42895,0.1758c0.1172,0.11251 0.1758,0.2555 0.1758,0.42895c0,0.16877 -0.0586,0.31174 -0.17579,0.42894c-0.11251,0.11251 -0.25549,0.16877 -0.42894,0.16877zM142.29143,262.42289c-0.16877,0 -0.31174,-0.05626 -0.42894,-0.16877c-0.1172,-0.1172 -0.1758,-0.26018 -0.1758,-0.42894c0,-0.17345 0.05626,-0.31644 0.16877,-0.42894c0.1172,-0.1172 0.26252,-0.17579 0.43598,-0.17579c0.17345,0 0.31644,0.0586 0.42895,0.1758c0.1172,0.11251 0.1758,0.2555 0.1758,0.42895c0,0.16877 -0.0586,0.31174 -0.17579,0.42894c-0.11251,0.11251 -0.25549,0.16877 -0.42894,0.16877zM144.73854,262.42289c-0.16877,0 -0.31175,-0.05626 -0.42895,-0.16877c-0.1172,-0.1172 -0.17579,-0.26018 -0.17579,-0.42894c0,-0.17345 0.05626,-0.31644 0.16877,-0.42894c0.1172,-0.1172 0.26252,-0.17579 0.43598,-0.17579c0.17345,0 0.31644,0.0586 0.42895,0.1758c0.1172,0.11251 0.1758,0.2555 0.1758,0.42895c0,0.16877 -0.06095,0.31174 -0.18283,0.42894c-0.1172,0.11251 -0.25784,0.16877 -0.42192,0.16877zM147.17156,262.42289c-0.16877,0 -0.31174,-0.05626 -0.42894,-0.16877c-0.1172,-0.1172 -0.17579,-0.26018 -0.17579,-0.42894c0,-0.17345 0.05859,-0.31644 0.17579,-0.42894c0.1172,-0.1172 0.26018,-0.17579 0.42895,-0.17579c0.17345,0 0.31644,0.0586 0.42894,0.1758c0.1172,0.11251 0.1758,0.2555 0.1758,0.42895c0,0.16877 -0.0586,0.31174 -0.17579,0.42894c-0.11251,0.11251 -0.25549,0.16877 -0.42894,0.16877z"/></g><g><path d="M110.03609,187.11826v-33.93076h34.50585v33.93076z" fill="none" stroke="#000000" stroke-width="1.5" stroke-linecap="butt"/><path d="M109.06984,196.53955h1.17038v7.72631h-1.17038zM111.94772,199.44352h1.10879l0.0176,0.87999c0.12907,-0.29333 0.33733,-0.53386 0.6248,-0.72159c0.28746,-0.18773 0.62479,-0.2816 1.01199,-0.2816c0.49866,0 0.87999,0.10266 1.14399,0.308c0.264,0.20533 0.43999,0.49573 0.52799,0.87119c0.09386,0.36959 0.1408,0.85066 0.1408,1.44318v2.32317h-1.13518v-2.28798c0,-0.61013 -0.05866,-1.05012 -0.17599,-1.31998c-0.11733,-0.26986 -0.36079,-0.40479 -0.73039,-0.40479c-0.2112,0 -0.42533,0.06453 -0.64239,0.1936c-0.21706,0.12907 -0.39893,0.31679 -0.54559,0.56319c-0.1408,0.2464 -0.2112,0.53385 -0.2112,0.86239v2.39357h-1.13519zM119.64366,204.37146c-0.3344,0 -0.68346,-0.044 -1.04719,-0.132c-0.35786,-0.088 -0.61306,-0.19066 -0.76559,-0.308l0.3784,-0.89759c0.41653,0.29333 0.89466,0.44 1.43438,0.44c0.53973,0 0.80959,-0.15547 0.80959,-0.46639c0,-0.1408 -0.05573,-0.24933 -0.1672,-0.3256c-0.11147,-0.07627 -0.31093,-0.1672 -0.59839,-0.27279l-0.396,-0.1496c-0.42239,-0.17013 -0.75679,-0.37253 -1.00319,-0.60719c-0.24053,-0.23466 -0.36079,-0.54266 -0.36079,-0.92399c0,-0.44586 0.17306,-0.79199 0.51919,-1.03839c0.34613,-0.2464 0.80959,-0.3696 1.39039,-0.3696c0.28746,0 0.56906,0.03227 0.84479,0.0968c0.27573,0.05866 0.48693,0.13786 0.63359,0.2376l-0.40479,0.90639c-0.09386,-0.09386 -0.24053,-0.17307 -0.44,-0.2376c-0.19946,-0.0704 -0.42239,-0.1056 -0.66879,-0.1056c-0.4928,0 -0.73919,0.15253 -0.73919,0.45759c0,0.16427 0.06453,0.2904 0.1936,0.37839c0.13493,0.088 0.352,0.1848 0.65119,0.2904c0.02933,0.00586 0.13786,0.044 0.3256,0.1144c0.45173,0.17599 0.78613,0.37546 1.00319,0.59839c0.21706,0.22293 0.32559,0.51039 0.32559,0.86239c0,0.47519 -0.18186,0.83599 -0.54559,1.08238c-0.35786,0.2464 -0.81545,0.3696 -1.37278,0.3696zM125.01766,204.37146c-0.57493,0 -1.05599,-0.1144 -1.44318,-0.3432c-0.38133,-0.22879 -0.66293,-0.53385 -0.84479,-0.91519c-0.18186,-0.38133 -0.2728,-0.79786 -0.2728,-1.24959c0,-0.51626 0.1056,-0.96505 0.3168,-1.34639c0.2112,-0.3872 0.50453,-0.68346 0.87999,-0.88879c0.38133,-0.20533 0.81252,-0.308 1.29359,-0.308c0.73919,0 1.28772,0.20533 1.64558,0.61599c0.36373,0.40479 0.54559,0.97973 0.54559,1.72478c0,0.18773 -0.01173,0.38426 -0.0352,0.58959h-3.46716c0.08213,0.42826 0.23466,0.73626 0.45759,0.92399c0.22879,0.18773 0.54559,0.2816 0.95039,0.2816c0.34026,0 0.61893,-0.0264 0.83599,-0.0792c0.21706,-0.05866 0.41653,-0.13786 0.59839,-0.2376l0.3432,0.80959c-0.17599,0.11147 -0.41359,0.2112 -0.71279,0.2992c-0.2992,0.08213 -0.66293,0.1232 -1.09119,0.1232zM126.03845,201.45869c0.00586,-0.43413 -0.09093,-0.73919 -0.2904,-0.91519c-0.1936,-0.18186 -0.47226,-0.2728 -0.83599,-0.2728c-0.73332,0 -1.15865,0.396 -1.27599,1.18799zM132.6842,204.26586h-1.32878l-0.97679,-1.57518l-0.2728,-0.5368l-0.63359,0.68639v1.42558h-1.09119v-7.72631h1.08239v4.24155l-0.0264,0.81839l1.83917,-2.15598h1.39918l-1.81278,2.01518zM134.01469,200.3675h-0.85359v-0.92399h0.85359v-1.96238l1.14399,-0.2552v2.21757h1.10879v0.92399h-1.10879v3.89835h-1.14399zM140.37765,196.66275l1.18799,-0.3432v7.94631h-1.18799zM144.43247,204.37146c-0.2112,0 -0.39013,-0.0704 -0.5368,-0.2112c-0.14666,-0.14666 -0.22,-0.32559 -0.22,-0.5368c0,-0.21706 0.0704,-0.396 0.2112,-0.5368c0.14666,-0.14666 0.32853,-0.22 0.54559,-0.22c0.21706,0 0.396,0.07333 0.5368,0.22c0.14666,0.1408 0.22,0.31973 0.22,0.5368c0,0.2112 -0.07333,0.39013 -0.22,0.5368c-0.1408,0.1408 -0.31973,0.2112 -0.5368,0.2112z" fill="#000000" stroke="none" stroke-width="1" stroke-linecap="square"/><path d="M163.14812,196.53955h1.17038v7.72631h-1.17038zM166.02601,199.44352h1.10879l0.0176,0.87999c0.12907,-0.29333 0.33733,-0.53386 0.62479,-0.72159c0.28746,-0.18773 0.62479,-0.2816 1.01199,-0.2816c0.49866,0 0.87999,0.10266 1.14399,0.308c0.264,0.20533 0.44,0.49573 0.528,0.87119c0.09386,0.36959 0.1408,0.85066 0.1408,1.44318v2.32317h-1.13519v-2.28798c0,-0.61013 -0.05866,-1.05012 -0.17599,-1.31998c-0.11733,-0.26986 -0.36079,-0.40479 -0.73039,-0.40479c-0.2112,0 -0.42533,0.06453 -0.64239,0.1936c-0.21706,0.12907 -0.39892,0.31679 -0.54559,0.56319c-0.1408,0.2464 -0.2112,0.53385 -0.2112,0.86239v2.39357h-1.13518zM173.72195,204.37146c-0.3344,0 -0.68346,-0.044 -1.04719,-0.132c-0.35786,-0.088 -0.61306,-0.19066 -0.76559,-0.308l0.37839,-0.89759c0.41653,0.29333 0.89466,0.44 1.43438,0.44c0.53973,0 0.80959,-0.15547 0.80959,-0.46639c0,-0.1408 -0.05573,-0.24933 -0.1672,-0.3256c-0.11147,-0.07627 -0.31093,-0.1672 -0.59839,-0.27279l-0.396,-0.1496c-0.42239,-0.17013 -0.75679,-0.37253 -1.00319,-0.60719c-0.24053,-0.23466 -0.36079,-0.54266 -0.36079,-0.92399c0,-0.44586 0.17307,-0.79199 0.5192,-1.03839c0.34613,-0.2464 0.80959,-0.3696 1.39038,-0.3696c0.28746,0 0.56906,0.03227 0.84479,0.0968c0.27573,0.05866 0.48693,0.13786 0.6336,0.2376l-0.40479,0.90639c-0.09386,-0.09386 -0.24053,-0.17307 -0.44,-0.2376c-0.19946,-0.0704 -0.42239,-0.1056 -0.66879,-0.1056c-0.4928,0 -0.73919,0.15253 -0.73919,0.45759c0,0.16427 0.06453,0.2904 0.1936,0.37839c0.13493,0.088 0.352,0.1848 0.65119,0.2904c0.02933,0.00586 0.13786,0.044 0.32559,0.1144c0.45173,0.17599 0.78613,0.37546 1.00319,0.59839c0.21706,0.22293 0.3256,0.51039 0.3256,0.86239c0,0.47519 -0.18186,0.83599 -0.54559,1.08238c-0.35786,0.2464 -0.81545,0.3696 -1.37278,0.3696zM179.09595,204.37146c-0.57493,0 -1.05599,-0.1144 -1.44318,-0.3432c-0.38133,-0.22879 -0.66293,-0.53385 -0.84479,-0.91519c-0.18186,-0.38133 -0.2728,-0.79786 -0.2728,-1.24959c0,-0.51626 0.1056,-0.96505 0.31679,-1.34639c0.2112,-0.3872 0.50453,-0.68346 0.87999,-0.88879c0.38133,-0.20533 0.81252,-0.308 1.29359,-0.308c0.73919,0 1.28772,0.20533 1.64558,0.61599c0.36373,0.40479 0.54559,0.97973 0.54559,1.72478c0,0.18773 -0.01173,0.38426 -0.0352,0.58959h-3.46716c0.08213,0.42826 0.23466,0.73626 0.45759,0.92399c0.22879,0.18773 0.54559,0.2816 0.95039,0.2816c0.34026,0 0.61893,-0.0264 0.83599,-0.0792c0.21706,-0.05866 0.41653,-0.13786 0.59839,-0.2376l0.3432,0.80959c-0.17599,0.11147 -0.41359,0.2112 -0.71279,0.2992c-0.2992,0.08213 -0.66293,0.1232 -1.09119,0.1232zM180.11674,201.45869c0.00586,-0.43413 -0.09094,-0.73919 -0.2904,-0.91519c-0.1936,-0.18186 -0.47226,-0.2728 -0.83599,-0.2728c-0.73332,0 -1.15865,0.396 -1.27598,1.18799zM186.76248,204.26586h-1.32878l-0.97679,-1.57518l-0.2728,-0.5368l-0.63359,0.68639v1.42558h-1.09119v-7.72631h1.08238v4.24155l-0.0264,0.81839l1.83918,-2.15598h1.39918l-1.81278,2.01518zM188.09298,200.3675h-0.85359v-0.92399h0.85359v-1.96238l1.14399,-0.2552v2.21757h1.10879v0.92399h-1.10879v3.89835h-1.14399zM194.45594,196.66275l1.18798,-0.3432v7.94631h-1.18798zM197.83316,196.53955h1.11759v7.72631h-1.11759zM201.32665,204.37146c-0.2112,0 -0.39013,-0.0704 -0.5368,-0.2112c-0.14666,-0.14666 -0.22,-0.32559 -0.22,-0.5368c0,-0.21706 0.0704,-0.396 0.2112,-0.5368c0.14666,-0.14666 0.32853,-0.22 0.54559,-0.22c0.21706,0 0.396,0.07333 0.5368,0.22c0.14666,0.1408 0.22,0.31973 0.22,0.5368c0,0.2112 -0.07333,0.39013 -0.22,0.5368c-0.1408,0.1408 -0.31973,0.2112 -0.5368,0.2112z" fill="#000000" stroke="none" stroke-width="1" stroke-linecap="square"/><path d="M220.63259,196.53955h1.17038v7.72631h-1.17038zM223.51047,199.44352h1.10879l0.0176,0.87999c0.12907,-0.29333 0.33733,-0.53386 0.62479,-0.72159c0.28746,-0.18773 0.62479,-0.2816 1.01199,-0.2816c0.49866,0 0.87999,0.10266 1.14399,0.308c0.264,0.20533 0.44,0.49573 0.528,0.87119c0.09386,0.36959 0.1408,0.85066 0.1408,1.44318v2.32317h-1.13519v-2.28798c0,-0.61013 -0.05866,-1.05012 -0.17599,-1.31998c-0.11733,-0.26986 -0.36079,-0.40479 -0.73039,-0.40479c-0.2112,0 -0.42533,0.06453 -0.64239,0.1936c-0.21706,0.12907 -0.39892,0.31679 -0.54559,0.56319c-0.1408,0.2464 -0.2112,0.53385 -0.2112,0.86239v2.39357h-1.13518zM231.20642,204.37146c-0.3344,0 -0.68346,-0.044 -1.04719,-0.132c-0.35786,-0.088 -0.61306,-0.19066 -0.7656,-0.308l0.3784,-0.89759c0.41653,0.29333 0.89466,0.44 1.43438,0.44c0.53973,0 0.80959,-0.15547 0.80959,-0.46639c0,-0.1408 -0.05573,-0.24933 -0.1672,-0.3256c-0.11147,-0.07627 -0.31093,-0.1672 -0.59839,-0.27279l-0.396,-0.1496c-0.42239,-0.17013 -0.75679,-0.37253 -1.00319,-0.60719c-0.24053,-0.23466 -0.36079,-0.54266 -0.36079,-0.92399c0,-0.44586 0.17306,-0.79199 0.51919,-1.03839c0.34613,-0.2464 0.80959,-0.3696 1.39039,-0.3696c0.28746,0 0.56906,0.03227 0.84479,0.0968c0.27573,0.05866 0.48693,0.13786 0.6336,0.2376l-0.40479,0.90639c-0.09386,-0.09386 -0.24053,-0.17307 -0.43999,-0.2376c-0.19946,-0.0704 -0.42239,-0.1056 -0.66879,-0.1056c-0.4928,0 -0.73919,0.15253 -0.73919,0.45759c0,0.16427 0.06453,0.2904 0.1936,0.37839c0.13493,0.088 0.352,0.1848 0.65119,0.2904c0.02933,0.00586 0.13786,0.044 0.32559,0.1144c0.45173,0.17599 0.78613,0.37546 1.00319,0.59839c0.21706,0.22293 0.32559,0.51039 0.32559,0.86239c0,0.47519 -0.18186,0.83599 -0.54559,1.08238c-0.35786,0.2464 -0.81545,0.3696 -1.37278,0.3696zM236.5804,204.37146c-0.57493,0 -1.05599,-0.1144 -1.44318,-0.3432c-0.38133,-0.22879 -0.66293,-0.53385 -0.84479,-0.91519c-0.18186,-0.38133 -0.27279,-0.79786 -0.27279,-1.24959c0,-0.51626 0.1056,-0.96505 0.31679,-1.34639c0.2112,-0.3872 0.50453,-0.68346 0.87999,-0.88879c0.38133,-0.20533 0.81252,-0.308 1.29359,-0.308c0.73919,0 1.28772,0.20533 1.64558,0.61599c0.36373,0.40479 0.54559,0.97973 0.54559,1.72478c0,0.18773 -0.01173,0.38426 -0.0352,0.58959h-3.46716c0.08213,0.42826 0.23466,0.73626 0.45759,0.92399c0.22879,0.18773 0.54559,0.2816 0.95039,0.2816c0.34026,0 0.61893,-0.0264 0.83599,-0.0792c0.21706,-0.05866 0.41653,-0.13786 0.59839,-0.2376l0.3432,0.80959c-0.17599,0.11147 -0.41359,0.2112 -0.71279,0.2992c-0.2992,0.08213 -0.66293,0.1232 -1.09119,0.1232zM237.6012,201.45869c0.00586,-0.43413 -0.09093,-0.73919 -0.2904,-0.91519c-0.1936,-0.18186 -0.47226,-0.2728 -0.83599,-0.2728c-0.73332,0 -1.15865,0.396 -1.27598,1.18799zM244.24696,204.26586h-1.32879l-0.97679,-1.57518l-0.27279,-0.5368l-0.6336,0.68639v1.42558h-1.09119v-7.72631h1.08239v4.24155l-0.0264,0.81839l1.83917,-2.15598h1.39918l-1.81278,2.01518zM245.57744,200.3675h-0.85359v-0.92399h0.85359v-1.96238l1.14398,-0.2552v2.21757h1.10879v0.92399h-1.10879v3.89835h-1.14398zM251.9404,196.66275l1.18798,-0.3432v7.94631h-1.18798zM255.43204,196.53955h1.17038v7.72631h-1.17038zM258.5211,196.53955h1.17038v7.72631h-1.17038zM262.17337,204.37146c-0.2112,0 -0.39013,-0.0704 -0.5368,-0.2112c-0.14666,-0.14666 -0.22,-0.32559 -0.22,-0.5368c0,-0.21706 0.0704,-0.396 0.2112,-0.5368c0.14666,-0.14666 0.32853,-0.22 0.54559,-0.22c0.21706,0 0.396,0.07333 0.5368,0.22c0.14666,0.1408 0.22,0.31973 0.22,0.5368c0,0.2112 -0.07333,0.39013 -0.22,0.5368c-0.1408,0.1408 -0.31973,0.2112 -0.5368,0.2112z" fill="#000000" stroke="none" stroke-width="1" stroke-linecap="square"/><path d="M164.86517,186.54317v-33.93076h34.50585v33.93076z" fill="none" stroke="#000000" stroke-width="1.5" stroke-linecap="butt"/><path d="M222.85727,186.25561v-33.93076h34.50585v33.93076z" fill="none" stroke="#000000" stroke-width="1.5" stroke-linecap="butt"/></g><path d="M297.15339,265.37538v-149.25075h105.19322v149.25075z" fill-opacity="0.76863" fill="#ffffff" stroke="none" stroke-width="0" stroke-linecap="butt"/><path d="M74.65339,265.87538v-22.75075h218.19322v22.75075z" fill-opacity="0.76863" fill="#ffffff" stroke="none" stroke-width="0" stroke-linecap="butt"/></g></g></svg>