<svg version="1.1" xmlns="http://www.w3.org/2000/svg" xmlns:xlink="http://www.w3.org/1999/xlink" width="353" height="191.5" viewBox="0,0,353,191.5"><g transform="translate(-64.5,-81.5)"><g data-paper-data="{&quot;isPaintingLayer&quot;:true}" fill-rule="nonzero" stroke-linejoin="miter" stroke-miterlimit="10" stroke-dasharray="" stroke-dashoffset="0" style="mix-blend-mode: normal"><path d="M64.5,273v-191.5h353v191.5z" fill="#8fcb9b" stroke="none" stroke-width="0" stroke-linecap="butt"/><path d="M213.16667,107.16667v-12h56.66667v12z" fill="#8fcb9b" stroke="none" stroke-width="0" stroke-linecap="butt"/><path d="M198.17809,104.33627c-0.70602,0 -1.40714,-0.12258 -2.10335,-0.36772c-0.68641,-0.24514 -1.18161,-0.51971 -1.48559,-0.82369l0.94136,-1.6768c0.24514,0.22553 0.62757,0.46088 1.14729,0.70602c0.51971,0.23534 1.01981,0.35301 1.50029,0.35301c0.61776,0 1.12277,-0.14709 1.515,-0.44127c0.39223,-0.29418 0.58835,-0.69622 0.58835,-1.20612c0,-0.40204 -0.10786,-0.75015 -0.3236,-1.04432c-0.20592,-0.29418 -0.46088,-0.53442 -0.76485,-0.72073c-0.30398,-0.19612 -0.73544,-0.43636 -1.29438,-0.72073c-0.6668,-0.3236 -1.12277,-0.56874 -1.36792,-0.73544c-1.13748,-0.75506 -1.70622,-1.80917 -1.70622,-3.16238c0,-1.10806 0.36772,-1.95626 1.10315,-2.54462c0.73544,-0.59816 1.667,-0.89724 2.79467,-0.89724c1.20612,0 2.23083,0.34811 3.07413,1.04432l-0.92666,1.58854c-0.22553,-0.23534 -0.53932,-0.43636 -0.94136,-0.60306c-0.40204,-0.1667 -0.8335,-0.25005 -1.29438,-0.25005c-0.58835,0 -1.04922,0.13238 -1.38262,0.39714c-0.33339,0.26476 -0.50009,0.65209 -0.50009,1.16199c0,0.36281 0.10296,0.69131 0.30888,0.98548c0.21572,0.28437 0.48539,0.53442 0.80899,0.75015c0.3236,0.20592 0.75995,0.46088 1.30908,0.76485c0.52951,0.29418 0.93155,0.52462 1.20612,0.69131c0.28437,0.1667 0.54913,0.36772 0.79427,0.60306c0.34321,0.30398 0.61776,0.6668 0.82369,1.08845c0.21572,0.42165 0.3236,0.88253 0.3236,1.38262c0,0.78446 -0.18141,1.45617 -0.54423,2.0151c-0.35301,0.54913 -0.8433,0.96587 -1.47087,1.25024c-0.62757,0.27456 -1.3385,0.41185 -2.13277,0.41185zM207.41299,98.37922l-1.05903,1.30908v4.47146h-1.92684v-12.9143h1.92684v5.76584l4.42734,-5.76584h2.3534l-4.44205,5.67759l5.07452,7.23671h-2.39753zM214.70016,96.09936h1.89743v1.57384c0.18632,-0.53932 0.4903,-0.97078 0.91194,-1.29438c0.42165,-0.3236 0.90214,-0.48539 1.44145,-0.48539c0.37262,0 0.63248,0.03432 0.77957,0.10296l-0.26476,1.91214c-0.10786,-0.06864 -0.3383,-0.10296 -0.69131,-0.10296c-0.54913,0 -1.04922,0.17651 -1.50029,0.52951c-0.45107,0.34321 -0.6766,0.90214 -0.6766,1.6768v4.14787h-1.89743zM224.62338,104.33627c-0.72564,0 -1.39733,-0.1716 -2.0151,-0.51481c-0.60797,-0.35301 -1.09825,-0.8482 -1.47087,-1.48559c-0.36281,-0.63738 -0.54423,-1.38262 -0.54423,-2.23574c0,-0.8433 0.1569,-1.57875 0.47069,-2.20632c0.3236,-0.63738 0.78446,-1.12767 1.38262,-1.47087c0.59816,-0.35301 1.29927,-0.52951 2.10335,-0.52951c0.47069,0 0.91194,0.08335 1.32378,0.25005c0.41185,0.1569 0.75506,0.35791 1.02961,0.60306c0.28437,0.23534 0.47558,0.47069 0.57364,0.70602l0.02942,-1.3532h1.80917v8.0604h-1.79447l-0.02942,-1.42675c-0.20592,0.42165 -0.57364,0.79427 -1.10315,1.11787c-0.51971,0.3236 -1.10806,0.48539 -1.76505,0.48539zM224.94696,102.74773c0.6668,0 1.22573,-0.23044 1.6768,-0.69131c0.46088,-0.46088 0.69131,-1.06394 0.69131,-1.80917v-0.13238c0,-0.50009 -0.10786,-0.94627 -0.3236,-1.3385c-0.20592,-0.40204 -0.4903,-0.71583 -0.85311,-0.94136c-0.36281,-0.22553 -0.75995,-0.3383 -1.19141,-0.3383c-0.75506,0 -1.3385,0.24514 -1.75035,0.73544c-0.40204,0.4903 -0.60306,1.11787 -0.60306,1.88272c0,0.78446 0.20102,1.42184 0.60306,1.91214c0.40204,0.48048 0.98548,0.72073 1.75035,0.72073zM236.645,104.33627c-0.65699,0 -1.25024,-0.16179 -1.77977,-0.48539c-0.51971,-0.3236 -0.87762,-0.69622 -1.07374,-1.11787l-0.02942,1.42675h-1.82389v-12.9143h1.8533v4.97157l-0.08825,1.36792c0.19612,-0.46088 0.58344,-0.85801 1.16199,-1.19141c0.58835,-0.33339 1.22083,-0.50009 1.89743,-0.50009c0.79427,0 1.48559,0.17651 2.07393,0.52951c0.59816,0.35301 1.05413,0.85311 1.36792,1.50029c0.31379,0.63738 0.47069,1.37772 0.47069,2.22102c0,0.85311 -0.18632,1.59835 -0.55893,2.23574c-0.36281,0.62757 -0.85311,1.11296 -1.47087,1.45617c-0.60797,0.33339 -1.27476,0.50009 -2.00039,0.50009zM236.32141,102.74773c0.76485,0 1.34831,-0.24025 1.75035,-0.72073c0.41185,-0.4903 0.61776,-1.11787 0.61776,-1.88272c0,-0.78446 -0.20102,-1.42184 -0.60306,-1.91214c-0.40204,-0.4903 -0.99039,-0.73544 -1.76505,-0.73544c-0.6668,0 -1.23063,0.23534 -1.69151,0.70602c-0.45107,0.46088 -0.6766,1.06394 -0.6766,1.80917v0.13238c0,0.50009 0.10786,0.95117 0.3236,1.3532c0.21572,0.39223 0.50009,0.70111 0.85311,0.92666c0.36281,0.21572 0.75995,0.3236 1.19141,0.3236zM247.48092,104.33627c-0.65699,0 -1.25024,-0.16179 -1.77977,-0.48539c-0.51971,-0.3236 -0.87762,-0.69622 -1.07374,-1.11787l-0.02942,1.42675h-1.82389v-12.9143h1.8533v4.97157l-0.08825,1.36792c0.19612,-0.46088 0.58344,-0.85801 1.16199,-1.19141c0.58835,-0.33339 1.22083,-0.50009 1.89743,-0.50009c0.79427,0 1.48559,0.17651 2.07393,0.52951c0.59816,0.35301 1.05413,0.85311 1.36792,1.50029c0.31379,0.63738 0.47069,1.37772 0.47069,2.22102c0,0.85311 -0.18632,1.59835 -0.55893,2.23574c-0.36281,0.62757 -0.85311,1.11296 -1.47087,1.45617c-0.60797,0.33339 -1.27476,0.50009 -2.00039,0.50009zM247.15733,102.74773c0.76485,0 1.34831,-0.24025 1.75035,-0.72073c0.41185,-0.4903 0.61776,-1.11787 0.61776,-1.88272c0,-0.78446 -0.20102,-1.42184 -0.60306,-1.91214c-0.40204,-0.4903 -0.99039,-0.73544 -1.76505,-0.73544c-0.6668,0 -1.23063,0.23534 -1.69151,0.70602c-0.45107,0.46088 -0.6766,1.06394 -0.6766,1.80917v0.13238c0,0.50009 0.10786,0.95117 0.3236,1.3532c0.21572,0.39223 0.50009,0.70111 0.85311,0.92666c0.36281,0.21572 0.75995,0.3236 1.19141,0.3236zM257.34606,104.33627c-0.96097,0 -1.76505,-0.19121 -2.41223,-0.57364c-0.63738,-0.38243 -1.10806,-0.89233 -1.41205,-1.52971c-0.30398,-0.63738 -0.45597,-1.33359 -0.45597,-2.08865c0,-0.86292 0.17651,-1.61306 0.52951,-2.25044c0.35301,-0.64718 0.8433,-1.14238 1.47087,-1.48559c0.63738,-0.34321 1.35811,-0.51481 2.16219,-0.51481c1.23554,0 2.15239,0.34321 2.75053,1.02961c0.60797,0.6766 0.91194,1.63758 0.91194,2.88292c0,0.31379 -0.01961,0.64228 -0.05884,0.98548h-5.79526c0.13728,0.71583 0.39223,1.23063 0.76485,1.54442c0.38243,0.31379 0.91194,0.47069 1.58854,0.47069c0.56874,0 1.03452,-0.04412 1.39733,-0.13238c0.36281,-0.09806 0.69622,-0.23044 1.0002,-0.39714l0.57364,1.3532c-0.29418,0.18632 -0.69131,0.35301 -1.19141,0.50009c-0.50009,0.13728 -1.10806,0.20592 -1.82389,0.20592zM259.05228,99.46767c0.00981,-0.72564 -0.152,-1.23554 -0.48539,-1.52971c-0.3236,-0.30398 -0.78937,-0.45597 -1.39733,-0.45597c-1.22573,0 -1.93665,0.6619 -2.13277,1.98568zM263.04141,91.24547h1.86801v12.9143h-1.86801zM268.88068,104.33627c-0.35301,0 -0.65209,-0.11767 -0.89724,-0.35301c-0.24514,-0.24514 -0.36772,-0.54423 -0.36772,-0.89724c0,-0.36281 0.11767,-0.6619 0.35301,-0.89724c0.24514,-0.24514 0.54913,-0.36772 0.91194,-0.36772c0.36281,0 0.6619,0.12258 0.89724,0.36772c0.24514,0.23534 0.36772,0.53442 0.36772,0.89724c0,0.35301 -0.12258,0.65209 -0.36772,0.89724c-0.23534,0.23534 -0.53442,0.35301 -0.89724,0.35301zM272.82931,96.09936h1.97098v8.0604h-1.97098zM273.80009,94.58436c-0.36281,0 -0.67169,-0.12258 -0.92666,-0.36772c-0.24514,-0.24514 -0.36772,-0.54913 -0.36772,-0.91194c0,-0.3236 0.12258,-0.60306 0.36772,-0.8384c0.25495,-0.23534 0.56384,-0.35301 0.92666,-0.35301c0.34321,0 0.63738,0.11767 0.88253,0.35301c0.25495,0.23534 0.38243,0.51481 0.38243,0.8384c0,0.36281 -0.12258,0.6668 -0.36772,0.91194c-0.23534,0.24514 -0.53442,0.36772 -0.89724,0.36772zM281.18946,104.33627c-0.82368,0 -1.55911,-0.18632 -2.2063,-0.55893c-0.64718,-0.37262 -1.14729,-0.88253 -1.50029,-1.52971c-0.34321,-0.64718 -0.51481,-1.36301 -0.51481,-2.14748c0,-0.77466 0.1716,-1.48068 0.51481,-2.11807c0.34321,-0.64718 0.8335,-1.15708 1.47087,-1.52971c0.64718,-0.37262 1.39242,-0.55893 2.23571,-0.55893c0.8433,0 1.58364,0.18632 2.22102,0.55893c0.63738,0.37262 1.12767,0.88253 1.47087,1.52971c0.35301,0.63738 0.52951,1.3434 0.52951,2.11807c0,0.78446 -0.17651,1.50029 -0.52951,2.14748c-0.35301,0.64718 -0.8482,1.15708 -1.48559,1.52971c-0.63738,0.37262 -1.37282,0.55893 -2.20632,0.55893zM281.2483,102.79185c0.6766,0 1.21103,-0.25005 1.60326,-0.75015c0.39223,-0.5099 0.58835,-1.14238 0.58835,-1.89743c0,-0.76485 -0.21083,-1.40714 -0.63248,-1.92684c-0.42165,-0.51971 -0.97568,-0.77957 -1.66207,-0.77957c-0.6668,0 -1.20612,0.25985 -1.61796,0.77957c-0.40204,0.5099 -0.60306,1.15219 -0.60306,1.92684c0,0.74524 0.21572,1.37282 0.64718,1.88272c0.44127,0.5099 1.00019,0.76485 1.67679,0.76485z" fill="#ffffff" stroke="#ffffff" stroke-width="0.5" stroke-linecap="square"/><path d="M74.67933,264.60786v-151.7598h329.42238v151.7598z" fill="#ffffff" stroke="#59927b" stroke-width="1.5" stroke-linecap="butt"/><g fill="#000000" stroke="none" stroke-width="1" stroke-linecap="square"><path d="M92.46457,193.26627c-0.5357,0 -1.07139,-0.07653 -1.60708,-0.22958c-0.5357,-0.15306 -0.92182,-0.35133 -1.15836,-0.59483l0.58439,-1.17923c0.25045,0.1948 0.56352,0.36525 0.93921,0.51134c0.38264,0.1461 0.77572,0.21915 1.17923,0.21915c1.41924,0 2.12887,-0.57744 2.12887,-1.73231c0,-0.48699 -0.1948,-0.88007 -0.58439,-1.17923c-0.38264,-0.29916 -0.90094,-0.44873 -1.55491,-0.44873c-0.45917,0 -0.84529,0.02435 -1.15836,0.07305l2.2854,-3.56898h-3.43331v-1.22096h5.91699l-2.59847,3.70464c0.52874,0.01391 0.99486,0.13915 1.39837,0.37568c0.40351,0.22958 0.7131,0.5357 0.92877,0.91834c0.21567,0.37568 0.3235,0.79311 0.3235,1.25228c0,0.59831 -0.14262,1.13052 -0.42786,1.59665c-0.28524,0.46612 -0.69919,0.83485 -1.24184,1.10618c-0.5357,0.26437 -1.17575,0.39655 -1.92015,0.39655zM98.75284,193.20366c-0.25045,0 -0.46265,-0.08348 -0.63657,-0.25045c-0.17392,-0.17392 -0.26089,-0.38612 -0.26089,-0.63657c0,-0.25741 0.08348,-0.4696 0.25045,-0.63657c0.17392,-0.17392 0.3896,-0.26089 0.64701,-0.26089c0.25741,0 0.4696,0.08696 0.63657,0.26089c0.17392,0.16697 0.26089,0.37916 0.26089,0.63657c0,0.25045 -0.08696,0.46265 -0.26089,0.63657c-0.16697,0.16697 -0.37916,0.25045 -0.63657,0.25045zM117.64238,193.20366c-0.25045,0 -0.46265,-0.08348 -0.63657,-0.25045c-0.17392,-0.17392 -0.26089,-0.38612 -0.26089,-0.63657c0,-0.25741 0.08348,-0.4696 0.25045,-0.63657c0.17392,-0.17392 0.3896,-0.26089 0.64701,-0.26089c0.25741,0 0.4696,0.08696 0.63657,0.26089c0.17392,0.16697 0.26089,0.37916 0.26089,0.63657c0,0.25045 -0.08696,0.46265 -0.26089,0.63657c-0.16697,0.16697 -0.37916,0.25045 -0.63657,0.25045zM121.27398,193.20366c-0.25045,0 -0.46265,-0.08348 -0.63657,-0.25045c-0.17392,-0.17392 -0.26089,-0.38612 -0.26089,-0.63657c0,-0.25741 0.08348,-0.4696 0.25045,-0.63657c0.17392,-0.17392 0.3896,-0.26089 0.64701,-0.26089c0.25741,0 0.4696,0.08696 0.63657,0.26089c0.17392,0.16697 0.26089,0.37916 0.26089,0.63657c0,0.25045 -0.09044,0.46265 -0.27132,0.63657c-0.17392,0.16697 -0.38264,0.25045 -0.62614,0.25045zM124.8847,193.20366c-0.25045,0 -0.46265,-0.08348 -0.63657,-0.25045c-0.17392,-0.17392 -0.26089,-0.38612 -0.26089,-0.63657c0,-0.25741 0.08696,-0.4696 0.26089,-0.63657c0.17392,-0.17392 0.38612,-0.26089 0.63657,-0.26089c0.25741,0 0.4696,0.08696 0.63657,0.26089c0.17392,0.16697 0.26089,0.37916 0.26089,0.63657c0,0.25045 -0.08696,0.46265 -0.26089,0.63657c-0.16697,0.16697 -0.37916,0.25045 -0.63657,0.25045z"/><path d="M93.75858,206.07705h-4.18468l2.62977,-7.16926l1.29401,0.48004l-1.98277,5.38478h2.24365l0.07305,-2.07669h1.38793v2.07669h1.26271v1.30445h-1.26271v2.29584h-1.46098zM98.96465,208.49811c-0.25045,0 -0.46265,-0.08348 -0.63657,-0.25045c-0.17392,-0.17392 -0.26089,-0.38612 -0.26089,-0.63657c0,-0.25741 0.08348,-0.4696 0.25045,-0.63657c0.17392,-0.17392 0.3896,-0.26089 0.64701,-0.26089c0.25741,0 0.4696,0.08696 0.63657,0.26089c0.17392,0.16697 0.26089,0.37916 0.26089,0.63657c0,0.25045 -0.08696,0.46265 -0.26089,0.63657c-0.16697,0.16697 -0.37916,0.25045 -0.63657,0.25045zM117.85421,208.49811c-0.25045,0 -0.46265,-0.08348 -0.63657,-0.25045c-0.17392,-0.17392 -0.26089,-0.38612 -0.26089,-0.63657c0,-0.25741 0.08348,-0.4696 0.25045,-0.63657c0.17392,-0.17392 0.3896,-0.26089 0.64701,-0.26089c0.25741,0 0.4696,0.08696 0.63657,0.26089c0.17392,0.16697 0.26089,0.37916 0.26089,0.63657c0,0.25045 -0.08696,0.46265 -0.26089,0.63657c-0.16697,0.16697 -0.37916,0.25045 -0.63657,0.25045zM121.4858,208.49811c-0.25045,0 -0.46265,-0.08348 -0.63657,-0.25045c-0.17392,-0.17392 -0.26089,-0.38612 -0.26089,-0.63657c0,-0.25741 0.08348,-0.4696 0.25045,-0.63657c0.17392,-0.17392 0.3896,-0.26089 0.64701,-0.26089c0.25741,0 0.4696,0.08696 0.63657,0.26089c0.17392,0.16697 0.26089,0.37916 0.26089,0.63657c0,0.25045 -0.09044,0.46265 -0.27132,0.63657c-0.17392,0.16697 -0.38264,0.25045 -0.62614,0.25045zM125.09652,208.49811c-0.25045,0 -0.46265,-0.08348 -0.63657,-0.25045c-0.17392,-0.17392 -0.26089,-0.38612 -0.26089,-0.63657c0,-0.25741 0.08696,-0.4696 0.26089,-0.63657c0.17392,-0.17392 0.38612,-0.26089 0.63657,-0.26089c0.25741,0 0.4696,0.08696 0.63657,0.26089c0.17392,0.16697 0.26089,0.37916 0.26089,0.63657c0,0.25045 -0.08696,0.46265 -0.26089,0.63657c-0.16697,0.16697 -0.37916,0.25045 -0.63657,0.25045z"/><path d="M93.95773,153.58768l1.40881,-0.40699v9.42335h-1.40881zM98.76625,162.72928c-0.25045,0 -0.46265,-0.08348 -0.63657,-0.25045c-0.17392,-0.17392 -0.26089,-0.38612 -0.26089,-0.63657c0,-0.25741 0.08348,-0.4696 0.25045,-0.63657c0.17392,-0.17392 0.3896,-0.26089 0.64701,-0.26089c0.25741,0 0.4696,0.08696 0.63657,0.26089c0.17392,0.16697 0.26089,0.37916 0.26089,0.63657c0,0.25045 -0.08696,0.46265 -0.26089,0.63657c-0.16697,0.16697 -0.37916,0.25045 -0.63657,0.25045zM117.65581,162.72928c-0.25045,0 -0.46265,-0.08348 -0.63657,-0.25045c-0.17392,-0.17392 -0.26089,-0.38612 -0.26089,-0.63657c0,-0.25741 0.08348,-0.4696 0.25045,-0.63657c0.17392,-0.17392 0.3896,-0.26089 0.64701,-0.26089c0.25741,0 0.4696,0.08696 0.63657,0.26089c0.17392,0.16697 0.26089,0.37916 0.26089,0.63657c0,0.25045 -0.08696,0.46265 -0.26089,0.63657c-0.16697,0.16697 -0.37916,0.25045 -0.63657,0.25045zM121.28741,162.72928c-0.25045,0 -0.46265,-0.08348 -0.63657,-0.25045c-0.17392,-0.17392 -0.26089,-0.38612 -0.26089,-0.63657c0,-0.25741 0.08348,-0.4696 0.25045,-0.63657c0.17392,-0.17392 0.3896,-0.26089 0.64701,-0.26089c0.25741,0 0.4696,0.08696 0.63657,0.26089c0.17392,0.16697 0.26089,0.37916 0.26089,0.63657c0,0.25045 -0.09044,0.46265 -0.27132,0.63657c-0.17392,0.16697 -0.38264,0.25045 -0.62614,0.25045zM124.89812,162.72928c-0.25045,0 -0.46265,-0.08348 -0.63657,-0.25045c-0.17392,-0.17392 -0.26089,-0.38612 -0.26089,-0.63657c0,-0.25741 0.08696,-0.4696 0.26089,-0.63657c0.17392,-0.17392 0.38612,-0.26089 0.63657,-0.26089c0.25741,0 0.4696,0.08696 0.63657,0.26089c0.17392,0.16697 0.26089,0.37916 0.26089,0.63657c0,0.25045 -0.08696,0.46265 -0.26089,0.63657c-0.16697,0.16697 -0.37916,0.25045 -0.63657,0.25045z"/><path d="M92.64285,173.71379c0.3896,-0.52178 0.7131,-1.0053 0.97051,-1.45055c0.26437,-0.45221 0.39655,-0.86964 0.39655,-1.25228c0,-0.46612 -0.12175,-0.82093 -0.36525,-1.06443c-0.2435,-0.2435 -0.61222,-0.36525 -1.10618,-0.36525c-0.44526,0 -0.80702,0.12523 -1.08531,0.37568c-0.27132,0.2435 -0.49743,0.54613 -0.67832,0.90789l-1.15836,-0.62614c0.28524,-0.55657 0.6644,-1.02617 1.13748,-1.40881c0.47308,-0.38264 1.08183,-0.57396 1.82623,-0.57396c0.91834,0 1.621,0.24002 2.10799,0.72006c0.49395,0.47308 0.74093,1.09574 0.74093,1.86797c0,1.00878 -0.49743,2.12191 -1.49229,3.3394l-1.701,2.14974h3.55855v1.2314h-6.23006zM98.53191,177.68976c-0.25045,0 -0.46265,-0.08348 -0.63657,-0.25045c-0.17392,-0.17392 -0.26089,-0.38612 -0.26089,-0.63657c0,-0.25741 0.08348,-0.4696 0.25045,-0.63657c0.17392,-0.17392 0.3896,-0.26089 0.64701,-0.26089c0.25741,0 0.4696,0.08696 0.63657,0.26089c0.17392,0.16697 0.26089,0.37916 0.26089,0.63657c0,0.25045 -0.08696,0.46265 -0.26089,0.63657c-0.16697,0.16697 -0.37916,0.25045 -0.63657,0.25045zM117.42147,177.68976c-0.25045,0 -0.46265,-0.08348 -0.63657,-0.25045c-0.17392,-0.17392 -0.26089,-0.38612 -0.26089,-0.63657c0,-0.25741 0.08348,-0.4696 0.25045,-0.63657c0.17392,-0.17392 0.3896,-0.26089 0.64701,-0.26089c0.25741,0 0.4696,0.08696 0.63657,0.26089c0.17392,0.16697 0.26089,0.37916 0.26089,0.63657c0,0.25045 -0.08696,0.46265 -0.26089,0.63657c-0.16697,0.16697 -0.37916,0.25045 -0.63657,0.25045zM121.05306,177.68976c-0.25045,0 -0.46265,-0.08348 -0.63657,-0.25045c-0.17392,-0.17392 -0.26089,-0.38612 -0.26089,-0.63657c0,-0.25741 0.08348,-0.4696 0.25045,-0.63657c0.17392,-0.17392 0.3896,-0.26089 0.64701,-0.26089c0.25741,0 0.4696,0.08696 0.63657,0.26089c0.17392,0.16697 0.26089,0.37916 0.26089,0.63657c0,0.25045 -0.09044,0.46265 -0.27132,0.63657c-0.17392,0.16697 -0.38264,0.25045 -0.62614,0.25045zM124.66378,177.68976c-0.25045,0 -0.46265,-0.08348 -0.63657,-0.25045c-0.17392,-0.17392 -0.26089,-0.38612 -0.26089,-0.63657c0,-0.25741 0.08696,-0.4696 0.26089,-0.63657c0.17392,-0.17392 0.38612,-0.26089 0.63657,-0.26089c0.25741,0 0.4696,0.08696 0.63657,0.26089c0.17392,0.16697 0.26089,0.37916 0.26089,0.63657c0,0.25045 -0.08696,0.46265 -0.26089,0.63657c-0.16697,0.16697 -0.37916,0.25045 -0.63657,0.25045z"/><path d="M93.0594,222.68013c-0.54961,0 -1.05747,-0.06957 -1.5236,-0.20872c-0.45917,-0.1461 -0.84529,-0.35481 -1.15836,-0.62614l0.63657,-1.16879c0.18088,0.15306 0.44873,0.30959 0.80354,0.4696c0.36177,0.15306 0.7618,0.22958 1.20009,0.22958c0.56352,0 1.02617,-0.16001 1.38793,-0.48004c0.36177,-0.32002 0.54265,-0.75484 0.54265,-1.30445c0,-0.51482 -0.16349,-0.93921 -0.49047,-1.27314c-0.32698,-0.34089 -0.85572,-0.51134 -1.58621,-0.51134c-0.37568,0 -0.76876,0.03478 -1.17923,0.10435c-0.40351,0.06262 -0.68875,0.13915 -0.85572,0.22958l0.18784,-4.81081h4.69602v1.22096h-3.3394l-0.12523,2.1706c0.2435,-0.06262 0.59483,-0.09392 1.05399,-0.09392c0.96008,0 1.71492,0.25045 2.26452,0.75136c0.55657,0.50091 0.83485,1.19314 0.83485,2.07669c0,0.62614 -0.13219,1.18618 -0.39655,1.68013c-0.25741,0.48699 -0.64005,0.86616 -1.14791,1.13748c-0.50786,0.27132 -1.10966,0.40699 -1.80536,0.40699zM99.19892,222.61753c-0.25045,0 -0.46265,-0.08348 -0.63657,-0.25045c-0.17392,-0.17392 -0.26089,-0.38612 -0.26089,-0.63657c0,-0.25741 0.08348,-0.4696 0.25045,-0.63657c0.17392,-0.17392 0.3896,-0.26089 0.64701,-0.26089c0.25741,0 0.4696,0.08696 0.63657,0.26089c0.17392,0.16697 0.26089,0.37916 0.26089,0.63657c0,0.25045 -0.08696,0.46265 -0.26089,0.63657c-0.16697,0.16697 -0.37916,0.25045 -0.63657,0.25045zM118.08848,222.61753c-0.25045,0 -0.46265,-0.08348 -0.63657,-0.25045c-0.17392,-0.17392 -0.26089,-0.38612 -0.26089,-0.63657c0,-0.25741 0.08348,-0.4696 0.25045,-0.63657c0.17392,-0.17392 0.3896,-0.26089 0.64701,-0.26089c0.25741,0 0.4696,0.08696 0.63657,0.26089c0.17392,0.16697 0.26089,0.37916 0.26089,0.63657c0,0.25045 -0.08696,0.46265 -0.26089,0.63657c-0.16697,0.16697 -0.37916,0.25045 -0.63657,0.25045zM121.72006,222.61753c-0.25045,0 -0.46265,-0.08348 -0.63657,-0.25045c-0.17392,-0.17392 -0.26089,-0.38612 -0.26089,-0.63657c0,-0.25741 0.08348,-0.4696 0.25045,-0.63657c0.17392,-0.17392 0.3896,-0.26089 0.64701,-0.26089c0.25741,0 0.4696,0.08696 0.63657,0.26089c0.17392,0.16697 0.26089,0.37916 0.26089,0.63657c0,0.25045 -0.09044,0.46265 -0.27132,0.63657c-0.17392,0.16697 -0.38264,0.25045 -0.62614,0.25045zM125.33079,222.61753c-0.25045,0 -0.46265,-0.08348 -0.63657,-0.25045c-0.17392,-0.17392 -0.26089,-0.38612 -0.26089,-0.63657c0,-0.25741 0.08696,-0.4696 0.26089,-0.63657c0.17392,-0.17392 0.38612,-0.26089 0.63657,-0.26089c0.25741,0 0.4696,0.08696 0.63657,0.26089c0.17392,0.16697 0.26089,0.37916 0.26089,0.63657c0,0.25045 -0.08696,0.46265 -0.26089,0.63657c-0.16697,0.16697 -0.37916,0.25045 -0.63657,0.25045z"/><path d="M93.33072,237.64062c-0.56352,0 -1.08183,-0.12175 -1.55491,-0.36525c-0.46612,-0.25045 -0.83485,-0.60527 -1.10618,-1.06443c-0.27132,-0.45917 -0.40699,-0.99486 -0.40699,-1.60708c0,-0.4383 0.0661,-0.86616 0.19828,-1.28358c0.13915,-0.41742 0.42438,-1.01921 0.85572,-1.80536c0.43134,-0.79311 1.12009,-1.96885 2.06625,-3.52723l1.18966,0.68875c-0.81398,1.2314 -1.4575,2.26452 -1.93059,3.09938c-0.02782,0.05566 -0.05914,0.11479 -0.09392,0.1774c-0.03478,0.05566 -0.06262,0.09392 -0.08348,0.11479c0.13219,-0.12523 0.30959,-0.22263 0.53222,-0.2922c0.22263,-0.07653 0.48004,-0.11479 0.77224,-0.11479c0.54961,0 1.03313,0.13219 1.45055,0.39655c0.42438,0.25741 0.75136,0.60527 0.98094,1.04356c0.22958,0.43134 0.34437,0.90094 0.34437,1.40881c0,0.64701 -0.13915,1.20705 -0.41742,1.68013c-0.27132,0.47308 -0.65049,0.83485 -1.13748,1.08531c-0.48004,0.2435 -1.03313,0.36525 -1.65926,0.36525zM93.41421,236.41966c0.52874,0 0.94269,-0.16697 1.24184,-0.50091c0.30611,-0.33394 0.45917,-0.7618 0.45917,-1.28358c0,-0.54961 -0.15653,-0.98442 -0.4696,-1.30445c-0.31307,-0.32002 -0.70962,-0.48004 -1.18966,-0.48004c-0.52874,0 -0.95312,0.16349 -1.27314,0.49047c-0.32002,0.32698 -0.48004,0.76876 -0.48004,1.32533c0,0.50091 0.16349,0.91834 0.49047,1.25228c0.32698,0.33394 0.73397,0.50091 1.22096,0.50091zM99.19892,237.578c-0.25045,0 -0.46265,-0.08348 -0.63657,-0.25045c-0.17392,-0.17392 -0.26089,-0.38612 -0.26089,-0.63657c0,-0.25741 0.08348,-0.4696 0.25045,-0.63657c0.17392,-0.17392 0.3896,-0.26089 0.64701,-0.26089c0.25741,0 0.4696,0.08696 0.63657,0.26089c0.17392,0.16697 0.26089,0.37916 0.26089,0.63657c0,0.25045 -0.08696,0.46265 -0.26089,0.63657c-0.16697,0.16697 -0.37916,0.25045 -0.63657,0.25045zM118.08848,237.578c-0.25045,0 -0.46265,-0.08348 -0.63657,-0.25045c-0.17392,-0.17392 -0.26089,-0.38612 -0.26089,-0.63657c0,-0.25741 0.08348,-0.4696 0.25045,-0.63657c0.17392,-0.17392 0.3896,-0.26089 0.64701,-0.26089c0.25741,0 0.4696,0.08696 0.63657,0.26089c0.17392,0.16697 0.26089,0.37916 0.26089,0.63657c0,0.25045 -0.08696,0.46265 -0.26089,0.63657c-0.16697,0.16697 -0.37916,0.25045 -0.63657,0.25045zM121.72006,237.578c-0.25045,0 -0.46265,-0.08348 -0.63657,-0.25045c-0.17392,-0.17392 -0.26089,-0.38612 -0.26089,-0.63657c0,-0.25741 0.08348,-0.4696 0.25045,-0.63657c0.17392,-0.17392 0.3896,-0.26089 0.64701,-0.26089c0.25741,0 0.4696,0.08696 0.63657,0.26089c0.17392,0.16697 0.26089,0.37916 0.26089,0.63657c0,0.25045 -0.09044,0.46265 -0.27132,0.63657c-0.17392,0.16697 -0.38264,0.25045 -0.62614,0.25045zM125.33079,237.578c-0.25045,0 -0.46265,-0.08348 -0.63657,-0.25045c-0.17392,-0.17392 -0.26089,-0.38612 -0.26089,-0.63657c0,-0.25741 0.08696,-0.4696 0.26089,-0.63657c0.17392,-0.17392 0.38612,-0.26089 0.63657,-0.26089c0.25741,0 0.4696,0.08696 0.63657,0.26089c0.17392,0.16697 0.26089,0.37916 0.26089,0.63657c0,0.25045 -0.08696,0.46265 -0.26089,0.63657c-0.16697,0.16697 -0.37916,0.25045 -0.63657,0.25045z"/></g><path d="M85.67372,123.5952h5.87752v1.79081h-3.85712v3.71937h3.10712v1.82142h-3.10712v4.301h4.46936v1.80612h-6.48976zM94.10119,128.6462h1.92856l0.03061,1.53061c0.22449,-0.51021 0.58673,-0.92856 1.08673,-1.2551c0.5,-0.32653 1.08673,-0.48979 1.76019,-0.48979c0.86734,0 1.53061,0.17857 1.98979,0.53572c0.45918,0.35714 0.7653,0.86224 0.91836,1.5153c0.16326,0.64286 0.2449,1.47958 0.2449,2.51019v4.0408h-1.97447v-3.97957c0,-1.06122 -0.10204,-1.82652 -0.30612,-2.29591c-0.20408,-0.46939 -0.62755,-0.70407 -1.2704,-0.70407c-0.36735,0 -0.73979,0.11224 -1.11734,0.33673c-0.37755,0.22449 -0.69388,0.55102 -0.94898,0.97958c-0.2449,0.42856 -0.36735,0.92856 -0.36735,1.5v4.16324h-1.97447zM108.31361,137.21759c-0.7551,0 -1.45407,-0.17857 -2.09693,-0.53572c-0.63265,-0.36735 -1.14285,-0.88265 -1.53061,-1.54591c-0.37755,-0.66326 -0.56632,-1.43877 -0.56632,-2.32652c0,-1.32652 0.36735,-2.38774 1.10203,-3.18366c0.74489,-0.79591 1.74999,-1.19387 3.01529,-1.19387c0.71428,0 1.36224,0.17347 1.94387,0.5204c0.58163,0.34693 0.97958,0.7602 1.19387,1.23979l-0.09184,-1.42346v-5.17344h1.92856v13.4387h-1.88264l-0.03061,-1.48468c-0.21428,0.43877 -0.59693,0.82653 -1.14795,1.16326c-0.54082,0.33673 -1.15305,0.5051 -1.83672,0.5051zM108.65034,135.54922c0.69388,0 1.27551,-0.23979 1.74489,-0.71938c0.47959,-0.47959 0.71938,-1.10714 0.71938,-1.88264v-0.13775c0,-0.5204 -0.11224,-0.98469 -0.33673,-1.39285c-0.21428,-0.41837 -0.51021,-0.74489 -0.88775,-0.97958c-0.37755,-0.2347 -0.79081,-0.35204 -1.23979,-0.35204c-0.78571,0 -1.39285,0.2551 -1.82142,0.7653c-0.41837,0.5 -0.62755,1.15305 -0.62755,1.95917c0,0.81633 0.20918,1.47958 0.62755,1.98979c0.41837,0.5 1.02551,0.75 1.82142,0.75zM119.79491,137.21759c-1,0 -1.83672,-0.19898 -2.51019,-0.59693c-0.66326,-0.39796 -1.15305,-0.92856 -1.46938,-1.59183c-0.31632,-0.66326 -0.47449,-1.38775 -0.47449,-2.17346c0,-0.89795 0.18367,-1.67856 0.55102,-2.34182c0.36735,-0.67347 0.87754,-1.18877 1.53061,-1.54591c0.66326,-0.35714 1.41326,-0.53572 2.24998,-0.53572c1.2857,0 2.23979,0.35714 2.86223,1.07142c0.63265,0.70407 0.94898,1.70407 0.94898,2.99998c0,0.32653 -0.02041,0.66837 -0.06123,1.02551h-6.03057c0.14286,0.74489 0.40816,1.2806 0.79591,1.60714c0.39796,0.32653 0.94898,0.48979 1.65305,0.48979c0.59183,0 1.07652,-0.04592 1.45407,-0.13775c0.37755,-0.10204 0.72449,-0.23979 1.04081,-0.41326l0.59693,1.40816c-0.30612,0.19388 -0.71938,0.36735 -1.23979,0.5204c-0.5204,0.14286 -1.15305,0.21428 -1.89795,0.21428zM121.57042,132.15128c0.0102,-0.7551 -0.15816,-1.2857 -0.5051,-1.59183c-0.33673,-0.31632 -0.82142,-0.47449 -1.45407,-0.47449c-1.27551,0 -2.0153,0.68877 -2.21938,2.06631zM125.76745,123.16664h2.34182l-0.35204,9.09178h-1.63775zM126.9001,137.23289c-0.36735,0 -0.67857,-0.12245 -0.93367,-0.36735c-0.2551,-0.2551 -0.38265,-0.57142 -0.38265,-0.94898c0,-0.36735 0.12245,-0.67857 0.36735,-0.93367c0.2551,-0.2551 0.57142,-0.38265 0.94898,-0.38265c0.37755,0 0.68877,0.12756 0.93367,0.38265c0.2551,0.2551 0.38265,0.56632 0.38265,0.93367c0,0.37755 -0.12756,0.69388 -0.38265,0.94898c-0.2449,0.2449 -0.55612,0.36735 -0.93367,0.36735z" fill="#000000" stroke="none" stroke-width="1" stroke-linecap="square"/><path d="M147.62682,125.69856h-5.69017v-1.70853h8.81012l-6.43301,11.30607h6.1656v1.73826h-9.37467zM156.35551,137.21263c-0.97064,0 -1.78282,-0.19314 -2.43652,-0.57942c-0.64379,-0.38628 -1.11922,-0.90132 -1.42626,-1.54511c-0.30705,-0.64379 -0.46056,-1.34702 -0.46056,-2.10967c0,-0.87161 0.17828,-1.6293 0.53484,-2.27309c0.35657,-0.6537 0.85179,-1.15388 1.48568,-1.50054c0.64379,-0.34666 1.37178,-0.51999 2.18396,-0.51999c1.24798,0 2.17406,0.34666 2.77823,1.03998c0.61408,0.68342 0.92113,1.65406 0.92113,2.91194c0,0.31694 -0.0198,0.64875 -0.05943,0.99541h-5.8536c0.13866,0.72303 0.39618,1.24302 0.77255,1.55997c0.38628,0.31694 0.92113,0.47542 1.60454,0.47542c0.57447,0 1.04493,-0.04456 1.41141,-0.13371c0.36647,-0.09905 0.70322,-0.23275 1.01027,-0.40113l0.57943,1.36684c-0.29714,0.18819 -0.69827,0.35657 -1.2034,0.50513c-0.50513,0.13866 -1.11922,0.20799 -1.84225,0.20799zM158.0789,132.29501c0.00991,-0.73294 -0.15352,-1.24798 -0.49027,-1.54511c-0.32685,-0.30705 -0.79732,-0.46056 -1.4114,-0.46056c-1.23807,0 -1.95615,0.66856 -2.15424,2.00568zM162.0785,128.89279h1.99081v8.14155h-1.99081zM163.05905,127.36253c-0.36647,0 -0.67846,-0.1238 -0.93597,-0.37141c-0.24762,-0.24762 -0.37141,-0.55466 -0.37141,-0.92113c0,-0.32685 0.1238,-0.60912 0.37142,-0.84684c0.25751,-0.23771 0.56951,-0.35657 0.93598,-0.35657c0.34666,0 0.64379,0.11886 0.89141,0.35657c0.25751,0.23771 0.38628,0.52 0.38628,0.84685c0,0.36647 -0.1238,0.67351 -0.37141,0.92113c-0.23771,0.24762 -0.5398,0.37142 -0.90627,0.37142zM167.44746,130.45276h-1.44111v-1.55996h1.44112v-3.31308l1.93139,-0.43084v3.74393h1.87196v1.55997h-1.87196v6.58159h-1.93139zM174.00737,131.21046c-0.35657,0 -0.65866,-0.11886 -0.90627,-0.35657c-0.24762,-0.24762 -0.37141,-0.5497 -0.37141,-0.90627c0,-0.36647 0.11886,-0.66855 0.35657,-0.90627c0.24762,-0.24762 0.55466,-0.37141 0.92113,-0.37141c0.36647,0 0.66856,0.1238 0.90628,0.37142c0.24762,0.23771 0.37142,0.5398 0.37142,0.90628c0,0.35657 -0.1238,0.65866 -0.37141,0.90628c-0.23771,0.23771 -0.5398,0.35657 -0.90627,0.35657zM174.00737,137.21263c-0.35657,0 -0.65866,-0.11886 -0.90627,-0.35657c-0.24762,-0.24762 -0.37141,-0.5497 -0.37141,-0.90627c0,-0.36647 0.11886,-0.66855 0.35657,-0.90627c0.24762,-0.24762 0.55466,-0.37141 0.92113,-0.37141c0.36647,0 0.66856,0.1238 0.90628,0.37142c0.24762,0.23771 0.37142,0.5398 0.37142,0.90628c0,0.35657 -0.1238,0.65866 -0.37141,0.90628c-0.23771,0.23771 -0.5398,0.35657 -0.90627,0.35657zM186.10486,137.30177c-0.78246,0 -1.50549,-0.09905 -2.1691,-0.29714c-0.6537,-0.20799 -1.2034,-0.50513 -1.64911,-0.89141l0.90628,-1.66397c0.25751,0.2179 0.63885,0.44075 1.14398,0.66856c0.51504,0.2179 1.08456,0.32685 1.70854,0.32685c0.80227,0 1.46093,-0.22781 1.97597,-0.68342c0.51504,-0.45561 0.77255,-1.07464 0.77255,-1.8571c0,-0.73294 -0.23275,-1.33712 -0.69827,-1.81254c-0.46551,-0.48533 -1.21826,-0.72798 -2.25825,-0.72798c-0.53484,0 -1.09446,0.04952 -1.67882,0.14857c-0.57447,0.08914 -0.98055,0.19809 -1.21826,0.32685l0.26742,-6.84901h6.68558v1.73826h-4.75419l-0.17828,3.09023c0.34666,-0.08914 0.84685,-0.13371 1.50055,-0.13371c1.36684,0 2.44148,0.35657 3.22394,1.06969c0.79236,0.71313 1.18855,1.69863 1.18855,2.95652c0,0.89141 -0.18819,1.68873 -0.56456,2.39196c-0.36647,0.69332 -0.91121,1.23312 -1.63426,1.6194c-0.72303,0.38628 -1.57978,0.57943 -2.57023,0.57943zM194.72664,131.21046c-0.35657,0 -0.65866,-0.11886 -0.90627,-0.35657c-0.24762,-0.24762 -0.37141,-0.5497 -0.37141,-0.90627c0,-0.36647 0.11886,-0.66855 0.35657,-0.90627c0.24762,-0.24762 0.55466,-0.37141 0.92113,-0.37141c0.36647,0 0.66856,0.1238 0.90628,0.37142c0.24762,0.23771 0.37142,0.5398 0.37142,0.90628c0,0.35657 -0.1238,0.65866 -0.37141,0.90628c-0.23771,0.23771 -0.5398,0.35657 -0.90627,0.35657zM194.72664,137.21263c-0.35657,0 -0.65866,-0.11886 -0.90627,-0.35657c-0.24762,-0.24762 -0.37141,-0.5497 -0.37141,-0.90627c0,-0.36647 0.11886,-0.66855 0.35657,-0.90627c0.24762,-0.24762 0.55466,-0.37141 0.92113,-0.37141c0.36647,0 0.66856,0.1238 0.90628,0.37142c0.24762,0.23771 0.37142,0.5398 0.37142,0.90628c0,0.35657 -0.1238,0.65866 -0.37141,0.90628c-0.23771,0.23771 -0.5398,0.35657 -0.90627,0.35657zM202.47804,137.30177c-0.78246,0 -1.50549,-0.09905 -2.1691,-0.29714c-0.6537,-0.20799 -1.2034,-0.50513 -1.64911,-0.89141l0.90628,-1.66397c0.25751,0.2179 0.63885,0.44075 1.14398,0.66856c0.51504,0.2179 1.08456,0.32685 1.70854,0.32685c0.80227,0 1.46093,-0.22781 1.97597,-0.68342c0.51504,-0.45561 0.77255,-1.07464 0.77255,-1.8571c0,-0.73294 -0.23275,-1.33712 -0.69827,-1.81254c-0.46551,-0.48533 -1.21826,-0.72798 -2.25825,-0.72798c-0.53484,0 -1.09446,0.04952 -1.67882,0.14857c-0.57447,0.08914 -0.98055,0.19809 -1.21826,0.32685l0.26742,-6.84901h6.68558v1.73826h-4.75419l-0.17828,3.09023c0.34666,-0.08914 0.84685,-0.13371 1.50055,-0.13371c1.36684,0 2.44148,0.35657 3.22394,1.06969c0.79236,0.71313 1.18855,1.69863 1.18855,2.95652c0,0.89141 -0.18819,1.68873 -0.56456,2.39196c-0.36647,0.69332 -0.91121,1.23312 -1.63426,1.6194c-0.72303,0.38628 -1.57978,0.57943 -2.57023,0.57943zM215.06661,125.72827h-6.0616v-1.73825h8.57241l-4.57591,13.04432h-2.27309z" fill="#000000" stroke="none" stroke-width="1" stroke-linecap="square"/><g fill="#000000" stroke="#000000"><path d="M319.11574,197.98919c-4.15134,-4.12799 -7.21985,-10.93483 -2.0971,-16.19509c5.43394,-5.5798 12.89454,-2.96625 17.04589,1.16175c4.15134,4.12799 4.17027,10.83973 0.04227,14.99107c-4.12799,4.15134 -10.83973,4.17027 -14.99107,0.04227z" stroke-width="6" stroke-linecap="butt"/><path d="M314.0621,178.01495l19.62247,19.51211" stroke-width="6" stroke-linecap="round"/><g stroke-width="6" stroke-linecap="round"><path d="M307.88979,178.22413c0,0 1.46963,-1.57998 3.15186,-1.48171c1.61401,0.09429 3.15987,1.35871 3.15987,1.35871"/><path d="M314.14907,178.15388c0,0 -1.27312,-1.5387 -1.3765,-3.15216c-0.10776,-1.68165 1.46391,-3.16017 1.46391,-3.16017" data-paper-data="{&quot;index&quot;:null}"/></g><path d="M309.08321,193.78289c0,0 0.91909,-1.24824 2.88841,-1.63876c1.40565,-0.27875 3.10446,0.35945 3.10446,0.35945" stroke-width="4" stroke-linecap="round"/><path d="M306.17688,195.4287c-0.56808,-0.56488 -0.57067,-1.48333 -0.00578,-2.05141c0.56488,-0.56808 1.48333,-0.57067 2.05141,-0.00578c0.56808,0.56488 0.57067,1.48333 0.00578,2.05141c-0.56488,0.56808 -1.48333,0.57067 -2.05141,0.00578z" stroke-width="4" stroke-linecap="butt"/><path d="M309.09377,203.88918c-0.56808,-0.56488 -0.57067,-1.48333 -0.00578,-2.05141c0.56488,-0.56808 1.48333,-0.57067 2.05141,-0.00578c0.56808,0.56488 0.57067,1.48333 0.00578,2.05141c-0.56488,0.56808 -1.48333,0.57067 -2.05141,0.00578z" stroke-width="4" stroke-linecap="butt"/><path d="M319.20993,209.85713c-0.56808,-0.56488 -0.57067,-1.48333 -0.00578,-2.05141c0.56488,-0.56808 1.48333,-0.57067 2.05141,-0.00578c0.56808,0.56488 0.57067,1.48333 0.00578,2.05141c-0.56488,0.56808 -1.48333,0.57067 -2.05141,0.00578z" stroke-width="4" stroke-linecap="butt"/><path d="M320.32488,207.16436c0,0 -0.64777,-1.69516 -0.37695,-3.10238c0.37941,-1.9715 2.14667,-3.5303 2.14667,-3.5303" data-paper-data="{&quot;index&quot;:null}" stroke-width="4" stroke-linecap="round"/><path d="M311.63026,201.66581l5.29765,-5.3276" stroke-width="4" stroke-linecap="round"/><path d="M328.55621,178.94719c0,0 -0.64777,-1.69516 -0.37695,-3.10238c0.3794,-1.97149 1.62245,-2.89761 1.62245,-2.89761" stroke-width="4" stroke-linecap="round"/><path d="M331.20222,172.31904c-0.56488,0.56808 -1.48333,0.57067 -2.05141,0.00578c-0.56808,-0.56488 -0.57067,-1.48333 -0.00578,-2.05141c0.56488,-0.56808 1.48333,-0.57067 2.05141,-0.00578c0.56808,0.56488 0.57067,1.48333 0.00578,2.05141z" stroke-width="4" stroke-linecap="butt"/><path d="M339.67902,175.18817c-0.56488,0.56808 -1.48333,0.57067 -2.05141,0.00578c-0.56808,-0.56488 -0.57067,-1.48333 -0.00578,-2.05141c0.56488,-0.56808 1.48333,-0.57067 2.05141,-0.00578c0.56808,0.56488 0.57067,1.48333 0.00578,2.05141z" stroke-width="4" stroke-linecap="butt"/><path d="M345.90587,185.23665c-0.56488,0.56808 -1.48333,0.57067 -2.05141,0.00578c-0.56808,-0.56488 -0.57067,-1.48333 -0.00578,-2.05141c0.56488,-0.56808 1.48333,-0.57067 2.05141,-0.00578c0.56808,0.56488 0.57067,1.48333 0.00578,2.05141z" stroke-width="4" stroke-linecap="butt"/><path d="M336.67535,185.55198c0,0 1.49725,-1.40768 3.46657,-1.7982c1.40566,-0.27875 3.10446,0.35945 3.10446,0.35945" data-paper-data="{&quot;index&quot;:null}" stroke-width="4" stroke-linecap="round"/><path d="M332.40122,180.77737l5.29765,-5.3276" stroke-width="4" stroke-linecap="round"/><path d="M314.66288,178.63421l1.93411,1.92324" stroke-width="6" stroke-linecap="round"/></g><g><g fill="none" stroke="#000000" stroke-width="4.5" stroke-linecap="round"><path d="M257.38459,202.112c0,0 3.52522,0.70664 5.37004,3.86645c1.30206,2.23015 2.47023,6.87367 2.47023,6.87367"/><path d="M264.68853,213.71197c0,0 1.16815,-4.64351 2.47022,-6.87366c1.84484,-3.1598 5.37005,-3.86644 5.37005,-3.86644" data-paper-data="{&quot;index&quot;:null}"/></g><path d="M218.11735,212.35654h45.63886" fill="none" stroke="#000000" stroke-width="7.5" stroke-linecap="round"/><path d="M222.77438,208.19099c0,-8.24465 5.82354,-14.92825 13.00723,-14.92825c7.18369,0 13.00723,6.6836 13.00723,14.92825c0,0.41755 -0.04423,1.23999 -0.04423,1.23999l-25.92451,0.02059c0,0 -0.04572,-0.83601 -0.04572,-1.26058z" fill="#000000" stroke="none" stroke-width="0" stroke-linecap="butt"/></g></g></g></svg>